<svg xmlns="http://www.w3.org/2000/svg" xmlns:xlink="http://www.w3.org/1999/xlink" width="30" zoomAndPan="magnify" viewBox="0 0 37.5 37.499999" height="30" preserveAspectRatio="xMidYMid meet" version="1.0"><defs><clipPath id="114342d1c7"><path d="M 2 2 L 37.007812 2 L 37.007812 37.007812 L 2 37.007812 Z M 2 2 " clip-rule="nonzero"/></clipPath><clipPath id="466ebc8414"><path d="M 0 0 L 37.007812 0 L 37.007812 37.007812 L 0 37.007812 Z M 0 0 " clip-rule="nonzero"/></clipPath><clipPath id="22618573e8"><path d="M 2.40625 2.40625 L 34.972656 2.40625 L 34.972656 34.972656 L 2.40625 34.972656 Z M 2.40625 2.40625 " clip-rule="nonzero"/></clipPath><clipPath id="350d50135e"><path d="M 2.40625 2.496094 L 34.230469 2.496094 L 34.230469 34.324219 L 2.40625 34.324219 Z M 2.40625 2.496094 " clip-rule="nonzero"/></clipPath></defs><g clip-path="url(#114342d1c7)"><path fill="#f2cdfc" d="M 404.21875 203.570312 C 404.21875 314.40625 314.371094 404.253906 203.535156 404.253906 C 92.699219 404.253906 2.847656 314.40625 2.847656 203.570312 C 2.847656 92.734375 92.699219 2.886719 203.535156 2.886719 C 314.371094 2.886719 404.21875 92.734375 404.21875 203.570312 Z M 404.21875 203.570312 " fill-opacity="1" fill-rule="nonzero"/></g><g clip-path="url(#466ebc8414)"><path fill="#000000" d="M 192.007812 95.460938 L 192.007812 82.167969 C 192.007812 78.210938 195.230469 74.988281 199.1875 74.988281 C 203.164062 74.988281 206.382812 78.210938 206.382812 82.167969 L 206.382812 95.460938 C 206.382812 99.421875 203.164062 102.640625 199.203125 102.640625 L 199.1875 102.640625 C 195.230469 102.640625 192.007812 99.421875 192.007812 95.460938 Z M 281.472656 130.398438 L 290.875 121 C 292.230469 119.644531 292.976562 117.839844 292.976562 115.921875 C 292.976562 114.003906 292.230469 112.203125 290.863281 110.835938 C 288.0625 108.035156 283.507812 108.035156 280.707031 110.835938 L 271.308594 120.234375 C 268.507812 123.035156 268.507812 127.589844 271.308594 130.390625 L 271.320312 130.398438 C 272.71875 131.800781 274.558594 132.5 276.394531 132.5 C 278.234375 132.5 280.074219 131.800781 281.472656 130.398438 Z M 323.15625 193.824219 L 309.863281 193.824219 C 305.90625 193.824219 302.683594 197.046875 302.683594 201.003906 L 302.683594 201.019531 C 302.683594 204.980469 305.90625 208.199219 309.863281 208.199219 L 323.15625 208.199219 C 327.117188 208.199219 330.335938 204.980469 330.335938 201.003906 C 330.335938 197.046875 327.117188 193.824219 323.15625 193.824219 Z M 285.089844 273.125 C 282.289062 270.324219 277.738281 270.324219 274.9375 273.125 L 274.925781 273.136719 C 272.125 275.933594 272.125 280.492188 274.925781 283.289062 L 284.324219 292.6875 C 285.722656 294.085938 287.558594 294.785156 289.398438 294.785156 C 291.238281 294.785156 293.082031 294.085938 294.488281 292.675781 C 297.289062 289.878906 297.289062 285.324219 294.488281 282.523438 Z M 204.320312 304.5 L 204.304688 304.5 C 200.34375 304.5 197.125 307.722656 197.125 311.679688 L 197.125 324.972656 C 197.125 328.933594 200.34375 332.152344 204.320312 332.152344 C 208.277344 332.152344 211.5 328.933594 211.5 324.972656 L 211.5 311.679688 C 211.5 307.722656 208.277344 304.5 204.320312 304.5 Z M 132.191406 276.742188 C 130.832031 275.386719 129.03125 274.636719 127.113281 274.636719 C 125.195312 274.636719 123.390625 275.386719 122.035156 276.742188 L 112.636719 286.140625 C 109.835938 288.941406 109.835938 293.496094 112.648438 296.304688 C 114.003906 297.664062 115.804688 298.410156 117.722656 298.410156 C 119.640625 298.410156 121.445312 297.664062 122.800781 296.304688 L 132.199219 286.90625 C 133.558594 285.550781 134.304688 283.746094 134.304688 281.828125 C 134.304688 279.910156 133.558594 278.109375 132.199219 276.753906 Z M 93.644531 198.941406 L 80.351562 198.941406 C 76.394531 198.941406 73.171875 202.160156 73.171875 206.136719 C 73.171875 210.09375 76.394531 213.316406 80.351562 213.316406 L 93.644531 213.316406 C 97.605469 213.316406 100.824219 210.09375 100.824219 206.136719 L 100.824219 206.121094 C 100.824219 202.160156 97.605469 198.941406 93.644531 198.941406 Z M 123.496094 136.121094 C 125.414062 136.121094 127.214844 135.375 128.535156 134.050781 L 128.546875 134.039062 C 128.558594 134.027344 128.570312 134.015625 128.582031 134.003906 C 131.382812 131.207031 131.382812 126.652344 128.582031 123.851562 L 119.183594 114.453125 C 117.828125 113.097656 116.023438 112.347656 114.105469 112.347656 C 112.1875 112.347656 110.386719 113.097656 109.019531 114.464844 C 107.664062 115.820312 106.914062 117.621094 106.914062 119.539062 C 106.914062 121.457031 107.664062 123.261719 109.019531 124.617188 L 118.417969 134.015625 C 119.773438 135.375 121.578125 136.121094 123.496094 136.121094 Z M 257.238281 248.375 C 258.40625 249.535156 259.054688 251.089844 259.054688 252.746094 C 259.058594 254.402344 258.414062 255.960938 257.242188 257.136719 C 256.074219 258.316406 254.515625 258.964844 252.855469 258.964844 C 251.203125 258.964844 249.644531 258.316406 248.46875 257.140625 L 209.183594 217.855469 C 206.957031 219.015625 204.433594 219.683594 201.753906 219.683594 C 192.871094 219.683594 185.640625 212.457031 185.640625 203.570312 C 185.640625 196.882812 189.738281 191.136719 195.550781 188.703125 L 195.550781 145.550781 C 195.550781 142.132812 198.332031 139.347656 201.753906 139.347656 C 203.414062 139.347656 204.972656 139.992188 206.144531 141.164062 C 207.3125 142.332031 207.957031 143.890625 207.957031 145.550781 L 207.957031 188.703125 C 213.773438 191.136719 217.867188 196.882812 217.867188 203.570312 C 217.867188 205.210938 217.617188 206.792969 217.160156 208.289062 Z M 212.167969 203.570312 C 212.167969 198.644531 208.722656 194.515625 204.117188 193.441406 C 203.890625 193.386719 203.65625 193.34375 203.421875 193.304688 C 203.261719 193.277344 203.101562 193.25 202.9375 193.230469 C 202.585938 193.191406 202.230469 193.167969 201.875 193.164062 C 201.835938 193.164062 201.796875 193.160156 201.753906 193.160156 C 201.714844 193.160156 201.675781 193.164062 201.636719 193.164062 C 201.28125 193.167969 200.921875 193.191406 200.570312 193.230469 C 200.40625 193.25 200.25 193.277344 200.089844 193.304688 C 199.855469 193.34375 199.621094 193.386719 199.390625 193.441406 C 194.785156 194.515625 191.34375 198.644531 191.34375 203.570312 C 191.34375 209.3125 196.011719 213.984375 201.753906 213.984375 C 204.136719 213.984375 206.328125 213.171875 208.082031 211.820312 C 208.3125 211.644531 208.53125 211.460938 208.742188 211.265625 C 208.839844 211.179688 208.941406 211.09375 209.035156 211 C 209.304688 210.738281 209.558594 210.464844 209.796875 210.175781 C 209.894531 210.058594 209.976562 209.933594 210.070312 209.808594 C 210.214844 209.621094 210.355469 209.425781 210.484375 209.226562 C 210.582031 209.074219 210.679688 208.914062 210.769531 208.753906 C 210.882812 208.5625 210.984375 208.363281 211.085938 208.164062 C 211.769531 206.777344 212.167969 205.21875 212.167969 203.570312 Z M 407.070312 203.570312 C 407.070312 257.9375 385.898438 309.050781 347.457031 347.492188 C 309.011719 385.933594 257.902344 407.105469 203.535156 407.105469 C 149.167969 407.105469 98.054688 385.933594 59.613281 347.492188 C 21.171875 309.050781 0 257.9375 0 203.570312 C 0 149.203125 21.171875 98.09375 59.613281 59.648438 C 98.054688 21.207031 149.167969 0.0351562 203.535156 0.0351562 C 257.902344 0.0351562 309.011719 21.207031 347.457031 59.648438 C 385.898438 98.09375 407.070312 149.203125 407.070312 203.570312 Z M 401.367188 203.570312 C 401.367188 150.726562 380.792969 101.046875 343.425781 63.679688 C 306.058594 26.316406 256.378906 5.734375 203.535156 5.734375 C 150.691406 5.734375 101.011719 26.316406 63.644531 63.679688 C 26.277344 101.046875 5.699219 150.726562 5.699219 203.570312 C 5.699219 256.414062 26.277344 306.09375 63.644531 343.460938 C 101.011719 380.828125 150.691406 401.40625 203.535156 401.40625 C 256.378906 401.40625 306.058594 380.828125 343.425781 343.460938 C 380.792969 306.09375 401.367188 256.414062 401.367188 203.570312 Z M 357.816406 203.570312 C 357.816406 288.640625 288.605469 357.851562 203.535156 357.851562 C 118.464844 357.851562 49.253906 288.640625 49.253906 203.570312 C 49.253906 118.5 118.464844 49.289062 203.535156 49.289062 C 288.605469 49.289062 357.816406 118.5 357.816406 203.570312 Z M 352.113281 203.570312 C 352.113281 121.644531 285.460938 54.992188 203.535156 54.992188 C 121.605469 54.992188 54.953125 121.644531 54.953125 203.570312 C 54.953125 285.496094 121.605469 352.152344 203.535156 352.152344 C 285.460938 352.152344 352.113281 285.496094 352.113281 203.570312 Z M 352.113281 203.570312 " fill-opacity="1" fill-rule="nonzero"/></g><g clip-path="url(#22618573e8)"><path fill="#000000" d="M 18.6875 2.40625 C 9.707031 2.40625 2.40625 9.707031 2.40625 18.6875 C 2.40625 27.667969 9.707031 34.972656 18.6875 34.972656 C 27.667969 34.972656 34.972656 27.667969 34.972656 18.6875 C 34.972656 9.707031 27.667969 2.40625 18.6875 2.40625 Z M 18.6875 33.828125 C 10.328125 33.828125 3.546875 27.046875 3.546875 18.6875 C 3.546875 10.328125 10.328125 3.546875 18.6875 3.546875 C 27.046875 3.546875 33.828125 10.328125 33.828125 18.6875 C 33.828125 27.046875 27.046875 33.828125 18.6875 33.828125 Z M 18.6875 33.828125 " fill-opacity="1" fill-rule="nonzero"/></g><path fill="#000000" d="M 18.6875 10.921875 C 18.6875 10.921875 12.359375 10.96875 13.753906 17.695312 C 14.167969 19.6875 18.6875 24.324219 18.6875 24.324219 C 18.6875 24.324219 23.207031 19.6875 23.621094 17.695312 C 25.019531 10.96875 18.6875 10.921875 18.6875 10.921875 Z M 18.6875 17.359375 C 18.457031 17.359375 18.230469 17.316406 18.015625 17.226562 C 17.800781 17.136719 17.609375 17.007812 17.445312 16.84375 C 17.28125 16.679688 17.152344 16.488281 17.0625 16.273438 C 16.976562 16.058594 16.929688 15.832031 16.929688 15.601562 C 16.929688 15.367188 16.976562 15.144531 17.066406 14.925781 C 17.15625 14.710938 17.28125 14.523438 17.445312 14.355469 C 17.613281 14.191406 17.800781 14.066406 18.019531 13.976562 C 18.234375 13.886719 18.457031 13.84375 18.691406 13.84375 C 18.925781 13.84375 19.148438 13.890625 19.363281 13.980469 C 19.578125 14.070312 19.769531 14.195312 19.933594 14.359375 C 20.097656 14.527344 20.226562 14.71875 20.3125 14.933594 C 20.402344 15.148438 20.445312 15.371094 20.445312 15.605469 C 20.445312 15.839844 20.402344 16.0625 20.3125 16.277344 C 20.222656 16.492188 20.09375 16.683594 19.929688 16.847656 C 19.765625 17.011719 19.574219 17.136719 19.359375 17.226562 C 19.144531 17.316406 18.921875 17.359375 18.6875 17.359375 Z M 18.6875 17.359375 " fill-opacity="1" fill-rule="nonzero"/><path fill="#000000" d="M 22.328125 21.019531 C 22.207031 21.183594 22.082031 21.339844 21.953125 21.5 C 23.480469 21.933594 24.480469 22.65625 24.480469 23.480469 C 24.480469 24.808594 21.886719 25.882812 18.6875 25.882812 C 15.488281 25.882812 12.894531 24.808594 12.894531 23.480469 C 12.894531 22.65625 13.898438 21.933594 15.421875 21.5 C 15.292969 21.339844 15.167969 21.183594 15.046875 21.019531 C 13.472656 21.511719 12.324219 22.34375 12.324219 23.480469 C 12.324219 25.410156 15.605469 26.453125 18.6875 26.453125 C 21.769531 26.453125 25.050781 25.410156 25.050781 23.480469 C 25.050781 22.34375 23.90625 21.511719 22.328125 21.019531 Z M 22.328125 21.019531 " fill-opacity="1" fill-rule="nonzero"/><g clip-path="url(#350d50135e)"><path fill="#000000" d="M 18.316406 2.496094 C 9.542969 2.496094 2.40625 9.636719 2.40625 18.410156 C 2.40625 27.1875 9.542969 34.324219 18.316406 34.324219 C 27.09375 34.324219 34.230469 27.1875 34.230469 18.410156 C 34.230469 9.636719 27.09375 2.496094 18.316406 2.496094 Z M 18.316406 33.207031 C 10.148438 33.207031 3.523438 26.582031 3.523438 18.410156 C 3.523438 10.242188 10.148438 3.613281 18.316406 3.613281 C 26.488281 3.613281 33.113281 10.242188 33.113281 18.410156 C 33.113281 26.582031 26.488281 33.207031 18.316406 33.207031 Z M 18.316406 33.207031 " fill-opacity="1" fill-rule="nonzero"/></g><path fill="#000000" d="M 18.316406 10.824219 C 18.316406 10.824219 12.132812 10.867188 13.496094 17.441406 C 13.902344 19.386719 18.316406 23.917969 18.316406 23.917969 C 18.316406 23.917969 22.734375 19.386719 23.140625 17.441406 C 24.503906 10.867188 18.316406 10.824219 18.316406 10.824219 Z M 18.316406 17.113281 C 18.089844 17.113281 17.871094 17.070312 17.660156 16.980469 C 17.449219 16.894531 17.265625 16.769531 17.101562 16.609375 C 16.941406 16.449219 16.816406 16.261719 16.730469 16.050781 C 16.644531 15.839844 16.601562 15.621094 16.601562 15.394531 C 16.601562 15.164062 16.644531 14.945312 16.730469 14.734375 C 16.820312 14.523438 16.945312 14.339844 17.105469 14.179688 C 17.265625 14.015625 17.453125 13.894531 17.664062 13.804688 C 17.875 13.71875 18.09375 13.675781 18.320312 13.675781 C 18.550781 13.675781 18.769531 13.722656 18.976562 13.808594 C 19.1875 13.894531 19.375 14.019531 19.535156 14.183594 C 19.695312 14.34375 19.820312 14.53125 19.90625 14.742188 C 19.992188 14.949219 20.035156 15.171875 20.035156 15.398438 C 20.035156 15.625 19.992188 15.84375 19.90625 16.054688 C 19.816406 16.265625 19.691406 16.449219 19.53125 16.609375 C 19.371094 16.769531 19.183594 16.894531 18.976562 16.980469 C 18.765625 17.070312 18.546875 17.113281 18.316406 17.113281 Z M 18.316406 17.113281 " fill-opacity="1" fill-rule="nonzero"/><path fill="#000000" d="M 21.875 20.691406 C 21.757812 20.847656 21.636719 21.003906 21.507812 21.15625 C 23 21.582031 23.980469 22.289062 23.980469 23.09375 C 23.980469 24.390625 21.445312 25.441406 18.316406 25.441406 C 15.191406 25.441406 12.65625 24.390625 12.65625 23.09375 C 12.65625 22.289062 13.636719 21.582031 15.128906 21.15625 C 15 21.003906 14.878906 20.847656 14.757812 20.691406 C 13.21875 21.167969 12.097656 21.980469 12.097656 23.09375 C 12.097656 24.980469 15.304688 26 18.316406 26 C 21.332031 26 24.535156 24.980469 24.535156 23.09375 C 24.535156 21.980469 23.417969 21.167969 21.875 20.691406 Z M 21.875 20.691406 " fill-opacity="1" fill-rule="nonzero"/></svg>