<svg xmlns="http://www.w3.org/2000/svg" xmlns:xlink="http://www.w3.org/1999/xlink" width="600" zoomAndPan="magnify" viewBox="0 0 224.87999 299.999988" height="700" preserveAspectRatio="xMidYMid meet" version="1.0"><defs><clipPath id="a0eddc9667"><path d="M 6 53 L 220 53 L 220 251.289062 L 6 251.289062 Z M 6 53 " clip-rule="nonzero"/></clipPath><clipPath id="967b19a38b"><path d="M 6 53 L 220 53 L 220 251.289062 L 6 251.289062 Z M 6 53 " clip-rule="nonzero"/></clipPath></defs><g clip-path="url(#a0eddc9667)"><path fill="#05585c" d="M 66.667969 251.082031 L 165.96875 251.082031 C 177.417969 251.082031 188.476562 246.894531 197.058594 239.3125 L 207.3125 230.25 C 224.738281 214.847656 223.28125 187.226562 204.332031 173.75 C 189.078125 162.902344 184.640625 142.191406 194.109375 126.042969 L 195.179688 124.21875 C 203.738281 109.621094 201.746094 91.144531 190.269531 78.710938 L 176.425781 63.71875 C 162.742188 48.894531 138.789062 50.828125 127.65625 67.652344 C 119.191406 80.445312 102.664062 85.152344 88.734375 78.738281 L 82.679688 75.953125 C 65.300781 67.949219 44.683594 73.796875 34.082031 89.730469 L 27.285156 99.945312 C 20.5625 110.050781 19.738281 122.976562 25.125 133.855469 C 31.320312 146.359375 29.238281 161.382812 19.882812 171.734375 L 17.15625 174.75 C 0.121094 193.589844 4.753906 223.335938 26.710938 236.097656 L 40.238281 243.957031 C 48.265625 248.621094 57.382812 251.082031 66.667969 251.082031 Z M 66.667969 251.082031 " fill-opacity="1" fill-rule="nonzero"/></g><path fill="#08979d" d="M 213.589844 222.050781 C 213.757812 234.789062 205.089844 245.546875 200.6875 249.3125 L 193.9375 249.3125 C 198.957031 232.316406 207.25 223.863281 211.894531 221.050781 C 212.667969 220.582031 213.578125 221.144531 213.589844 222.050781 Z M 213.589844 222.050781 " fill-opacity="1" fill-rule="nonzero"/><path fill="#ffffff" d="M 214.304688 180.253906 C 221.214844 206.300781 203.792969 237.152344 196.300781 248.636719 L 181.117188 248.636719 C 187.640625 199.488281 198.574219 187.542969 212.394531 179.472656 C 213.136719 179.039062 214.082031 179.421875 214.304688 180.253906 Z M 214.304688 180.253906 " fill-opacity="1" fill-rule="nonzero"/><path fill="#08979d" d="M 212.734375 180.054688 C 213.097656 179.84375 213.546875 180.035156 213.652344 180.425781 C 217.058594 193.257812 214.476562 207.328125 210.070312 219.679688 C 205.742188 231.796875 199.683594 242.179688 195.933594 247.960938 L 181.890625 247.960938 C 185.136719 223.863281 189.449219 208.894531 194.617188 198.960938 C 199.820312 188.960938 205.90625 184.042969 212.734375 180.054688 Z M 214.957031 180.078125 C 214.617188 178.808594 213.175781 178.234375 212.054688 178.886719 C 205.0625 182.972656 198.769531 188.058594 193.421875 198.335938 C 188.089844 208.578125 183.714844 223.945312 180.449219 248.546875 L 180.347656 249.3125 L 196.664062 249.3125 L 196.867188 249.007812 C 200.628906 243.238281 206.886719 232.605469 211.339844 220.132812 C 215.789062 207.671875 218.464844 193.292969 214.957031 180.078125 Z M 214.957031 180.078125 " fill-opacity="1" fill-rule="evenodd"/><path fill="#08979d" d="M 189.824219 196.277344 C 195.796875 218.105469 188.960938 240.792969 184.492188 249.3125 L 173.359375 249.3125 C 170.855469 222.707031 181.035156 203.363281 187.726562 195.757812 C 188.386719 195.007812 189.5625 195.3125 189.824219 196.277344 Z M 189.824219 196.277344 " fill-opacity="1" fill-rule="nonzero"/><path fill="#08979d" d="M 204.851562 198.789062 L 208.484375 188.558594 L 209.757812 189.015625 L 201.4375 212.4375 L 206.902344 210.792969 L 207.289062 212.089844 L 200.875 214.019531 L 193.308594 235.324219 L 200.121094 232.785156 L 200.589844 234.054688 L 192.71875 236.988281 L 188.503906 248.863281 L 187.230469 248.410156 L 195.796875 224.292969 L 192.628906 215.390625 L 193.898438 214.933594 L 196.511719 222.277344 L 204.085938 200.941406 L 201.726562 193.039062 L 203.019531 192.652344 Z M 204.851562 198.789062 " fill-opacity="1" fill-rule="evenodd"/><path fill="#ffffff" d="M 184.132812 213.707031 L 185.851562 204.21875 L 187.179688 204.460938 L 183.6875 223.722656 L 188.226562 221.324219 L 188.855469 222.523438 L 183.378906 225.414062 L 180.382812 241.929688 L 184.136719 238.976562 L 184.972656 240.039062 L 180.019531 243.9375 L 179.085938 249.097656 L 177.757812 248.855469 L 180.15625 235.625 L 176.199219 230.449219 L 177.269531 229.628906 L 180.480469 233.828125 L 183.828125 215.375 L 180.625 211.902344 L 181.613281 210.984375 Z M 184.132812 213.707031 " fill-opacity="1" fill-rule="evenodd"/><path fill="#ffffff" d="M 65.015625 89.503906 L 67.613281 90.132812 C 68.074219 90.242188 68.121094 90.882812 67.679688 91.058594 L 65.261719 92.035156 C 65.117188 92.09375 65.007812 92.222656 64.96875 92.375 L 64.296875 95.148438 C 64.1875 95.59375 63.582031 95.660156 63.382812 95.246094 L 62.128906 92.644531 C 62.070312 92.519531 61.957031 92.425781 61.824219 92.386719 L 58.773438 91.527344 C 58.320312 91.398438 58.292969 90.765625 58.730469 90.597656 L 61.503906 89.535156 C 61.640625 89.484375 61.746094 89.375 61.792969 89.238281 L 62.84375 86.179688 C 63 85.730469 63.640625 85.746094 63.777344 86.199219 L 64.664062 89.167969 C 64.714844 89.335938 64.847656 89.460938 65.015625 89.503906 Z M 65.015625 89.503906 " fill-opacity="1" fill-rule="nonzero"/><path fill="#ffffff" d="M 44.273438 115.109375 L 44.941406 115.652344 C 45.3125 115.953125 45.078125 116.550781 44.605469 116.519531 L 43.769531 116.46875 C 43.609375 116.460938 43.457031 116.527344 43.359375 116.648438 L 42.699219 117.460938 C 42.410156 117.820312 41.832031 117.617188 41.832031 117.15625 L 41.828125 116.078125 C 41.824219 115.9375 41.765625 115.804688 41.660156 115.714844 L 40.753906 114.917969 C 40.398438 114.609375 40.644531 114.027344 41.113281 114.0625 L 42.195312 114.148438 C 42.339844 114.160156 42.480469 114.105469 42.582031 114.003906 L 43.433594 113.132812 C 43.769531 112.792969 44.339844 113.082031 44.269531 113.550781 L 44.097656 114.65625 C 44.070312 114.828125 44.136719 115 44.273438 115.109375 Z M 44.273438 115.109375 " fill-opacity="1" fill-rule="nonzero"/><path fill="#08979d" d="M 206.21875 154.796875 L 204.273438 157.433594 C 204.15625 157.59375 203.964844 157.671875 203.773438 157.632812 L 201.375 157.15625 C 200.855469 157.054688 200.542969 157.742188 200.941406 158.105469 L 202.832031 159.824219 C 202.96875 159.949219 203.035156 160.140625 203.003906 160.332031 L 202.527344 163.164062 C 202.441406 163.699219 203.058594 164.027344 203.410156 163.632812 L 205.347656 161.457031 C 205.460938 161.328125 205.628906 161.265625 205.792969 161.289062 L 208.035156 161.613281 C 208.542969 161.6875 208.828125 161.019531 208.445312 160.664062 L 206.773438 159.121094 C 206.640625 158.996094 206.578125 158.808594 206.605469 158.621094 L 207.132812 155.21875 C 207.21875 154.660156 206.546875 154.351562 206.21875 154.796875 Z M 206.21875 154.796875 " fill-opacity="1" fill-rule="nonzero"/><path fill="#ffffff" d="M 88.722656 84.949219 C 88.722656 81.046875 91.886719 77.878906 95.792969 77.878906 L 176.222656 77.878906 C 180.128906 77.878906 183.292969 81.046875 183.292969 84.949219 L 183.292969 242.21875 C 183.292969 246.125 180.128906 249.289062 176.222656 249.289062 L 95.792969 249.289062 C 91.886719 249.289062 88.722656 246.125 88.722656 242.21875 Z M 88.722656 84.949219 " fill-opacity="1" fill-rule="nonzero"/><path fill="#08979d" d="M 88.132812 84.949219 C 88.132812 80.71875 91.5625 77.292969 95.792969 77.292969 L 176.222656 77.292969 C 180.453125 77.292969 183.882812 80.71875 183.882812 84.949219 L 183.882812 242.21875 C 183.882812 246.449219 180.453125 249.878906 176.222656 249.878906 L 95.792969 249.878906 C 91.5625 249.878906 88.132812 246.449219 88.132812 242.21875 Z M 95.792969 78.46875 C 92.214844 78.46875 89.3125 81.371094 89.3125 84.949219 L 89.3125 242.21875 C 89.3125 245.800781 92.214844 248.699219 95.792969 248.699219 L 176.222656 248.699219 C 179.804688 248.699219 182.703125 245.800781 182.703125 242.21875 L 182.703125 84.949219 C 182.703125 81.371094 179.804688 78.46875 176.222656 78.46875 Z M 95.792969 78.46875 " fill-opacity="1" fill-rule="evenodd"/><path fill="#05585c" d="M 163.546875 140.910156 C 163.546875 156.203125 151.148438 168.597656 135.855469 168.597656 C 120.5625 168.597656 108.164062 156.203125 108.164062 140.910156 C 108.164062 125.617188 120.5625 113.21875 135.855469 113.21875 C 151.148438 113.21875 163.546875 125.617188 163.546875 140.910156 Z M 163.546875 140.910156 " fill-opacity="1" fill-rule="nonzero"/><path fill="#08979d" d="M 117.203125 83.628906 L 114.140625 77.878906 L 157.878906 77.878906 L 154.273438 83.886719 C 153.210938 85.660156 151.292969 86.746094 149.222656 86.746094 L 122.402344 86.746094 C 120.226562 86.746094 118.230469 85.546875 117.203125 83.628906 Z M 117.203125 83.628906 " fill-opacity="1" fill-rule="nonzero"/><path fill="#08979d" d="M 182.132812 81.425781 L 89.28125 81.425781 C 92.355469 78.351562 95.289062 77.78125 96.371094 77.878906 L 175.039062 77.878906 C 178.824219 77.878906 181.347656 80.246094 182.132812 81.425781 Z M 182.132812 81.425781 " fill-opacity="1" fill-rule="nonzero"/><path fill="#08979d" d="M 182.0625 245.929688 L 89.902344 245.929688 C 93.097656 249.050781 94.941406 249.632812 96.066406 249.53125 L 175.894531 249.53125 C 179.828125 249.53125 181.242188 247.128906 182.0625 245.929688 Z M 182.0625 245.929688 " fill-opacity="1" fill-rule="nonzero"/><path fill="#08979d" d="M 102.273438 100.257812 C 102.273438 99.605469 102.800781 99.078125 103.453125 99.078125 L 134.828125 99.078125 C 135.476562 99.078125 136.003906 99.605469 136.003906 100.257812 L 136.003906 101.515625 C 136.003906 102.167969 135.476562 102.695312 134.828125 102.695312 L 103.453125 102.695312 C 102.800781 102.695312 102.273438 102.167969 102.273438 101.515625 Z M 102.273438 100.257812 " fill-opacity="1" fill-rule="nonzero"/><path fill="#08979d" d="M 102.273438 179.792969 C 102.273438 179.140625 102.800781 178.613281 103.453125 178.613281 L 134.828125 178.613281 C 135.476562 178.613281 136.003906 179.140625 136.003906 179.792969 L 136.003906 181.050781 C 136.003906 181.703125 135.476562 182.230469 134.828125 182.230469 L 103.453125 182.230469 C 102.800781 182.230469 102.273438 181.703125 102.273438 181.050781 Z M 102.273438 179.792969 " fill-opacity="1" fill-rule="nonzero"/><path fill="#08979d" d="M 102.273438 211.019531 C 102.273438 210.367188 102.800781 209.839844 103.453125 209.839844 L 122.304688 209.839844 C 122.957031 209.839844 123.484375 210.367188 123.484375 211.019531 L 123.484375 212.195312 C 123.484375 212.847656 122.957031 213.375 122.304688 213.375 L 103.453125 213.375 C 102.800781 213.375 102.273438 212.847656 102.273438 212.195312 Z M 102.273438 211.019531 " fill-opacity="1" fill-rule="nonzero"/><path fill="#05585c" d="M 102.273438 188.628906 C 102.273438 187.980469 102.800781 187.453125 103.453125 187.453125 L 166.492188 187.453125 C 167.140625 187.453125 167.667969 187.980469 167.667969 188.628906 L 167.667969 200.414062 C 167.667969 201.0625 167.140625 201.59375 166.492188 201.59375 L 103.453125 201.59375 C 102.800781 201.59375 102.273438 201.0625 102.273438 200.414062 Z M 102.273438 188.628906 " fill-opacity="1" fill-rule="nonzero"/><path fill="#05585c" d="M 102.273438 219.265625 C 102.273438 218.617188 102.800781 218.089844 103.453125 218.089844 L 166.492188 218.089844 C 167.140625 218.089844 167.667969 218.617188 167.667969 219.265625 L 167.667969 231.050781 C 167.667969 231.699219 167.140625 232.226562 166.492188 232.226562 L 103.453125 232.226562 C 102.800781 232.226562 102.273438 231.699219 102.273438 231.050781 Z M 102.273438 219.265625 " fill-opacity="1" fill-rule="nonzero"/><path fill="#08979d" d="M 175.476562 86.304688 L 176.65625 86.304688 L 176.65625 91.121094 L 175.476562 91.121094 Z M 175.476562 86.304688 " fill-opacity="1" fill-rule="evenodd"/><path fill="#08979d" d="M 172.464844 86.90625 L 173.644531 86.90625 L 173.644531 91.121094 L 172.464844 91.121094 Z M 172.464844 86.90625 " fill-opacity="1" fill-rule="evenodd"/><path fill="#08979d" d="M 169.453125 88.109375 L 170.632812 88.109375 L 170.632812 91.121094 L 169.453125 91.121094 Z M 169.453125 88.109375 " fill-opacity="1" fill-rule="evenodd"/><path fill="#08979d" d="M 166.441406 89.316406 L 167.617188 89.316406 L 167.617188 91.121094 L 166.441406 91.121094 Z M 166.441406 89.316406 " fill-opacity="1" fill-rule="evenodd"/><path fill="#ffffff" d="M 136.121094 141.242188 C 128.328125 141.242188 121.90625 147.207031 121.042969 154.882812 C 120.933594 155.851562 121.734375 156.644531 122.710938 156.644531 L 149.53125 156.644531 C 150.507812 156.644531 151.308594 155.851562 151.199219 154.882812 C 150.335938 147.207031 143.914062 141.242188 136.121094 141.242188 Z M 136.121094 141.242188 " fill-opacity="1" fill-rule="nonzero"/><path fill="#ffffff" d="M 143.59375 132.183594 C 143.59375 136.1875 140.351562 139.429688 136.347656 139.429688 C 132.34375 139.429688 129.097656 136.1875 129.097656 132.183594 C 129.097656 128.179688 132.34375 124.933594 136.347656 124.933594 C 140.351562 124.933594 143.59375 128.179688 143.59375 132.183594 Z M 143.59375 132.183594 " fill-opacity="1" fill-rule="nonzero"/><path fill="#ffffff" d="M 216.570312 123.824219 C 216.570312 134.886719 207.601562 143.855469 196.539062 143.855469 C 185.476562 143.855469 176.507812 134.886719 176.507812 123.824219 C 176.507812 112.761719 185.476562 103.792969 196.539062 103.792969 C 207.601562 103.792969 216.570312 112.761719 216.570312 123.824219 Z M 216.570312 123.824219 " fill-opacity="1" fill-rule="nonzero"/><path fill="#08979d" d="M 196.539062 104.269531 C 185.738281 104.269531 176.984375 113.023438 176.984375 123.824219 C 176.984375 134.625 185.738281 143.378906 196.539062 143.378906 C 207.335938 143.378906 216.09375 134.625 216.09375 123.824219 C 216.09375 113.023438 207.335938 104.269531 196.539062 104.269531 Z M 176.027344 123.824219 C 176.027344 112.496094 185.210938 103.316406 196.539062 103.316406 C 207.863281 103.316406 217.046875 112.496094 217.046875 123.824219 C 217.046875 135.148438 207.863281 144.332031 196.539062 144.332031 C 185.210938 144.332031 176.027344 135.148438 176.027344 123.824219 Z M 176.027344 123.824219 " fill-opacity="1" fill-rule="evenodd"/><path fill="#08979d" d="M 196.773438 111.421875 C 192.953125 111.421875 189.859375 114.570312 189.859375 118.453125 L 189.859375 123.265625 C 189.859375 123.835938 190.320312 124.300781 190.894531 124.300781 C 191.464844 124.300781 191.925781 123.835938 191.925781 123.265625 L 191.925781 118.320312 C 191.925781 115.601562 194.097656 113.394531 196.773438 113.394531 C 199.453125 113.394531 201.621094 115.601562 201.621094 118.320312 L 201.621094 123.007812 C 201.621094 123.578125 202.085938 124.042969 202.65625 124.042969 C 203.226562 124.042969 203.691406 123.578125 203.691406 123.007812 L 203.691406 118.453125 C 203.691406 114.570312 200.59375 111.421875 196.773438 111.421875 Z M 196.773438 111.421875 " fill-opacity="1" fill-rule="evenodd"/><path fill="#05585c" d="M 187.949219 123.347656 C 187.949219 122.554688 188.589844 121.917969 189.382812 121.917969 L 204.167969 121.917969 C 204.957031 121.917969 205.597656 122.554688 205.597656 123.347656 L 205.597656 134.316406 C 205.597656 135.105469 204.957031 135.746094 204.167969 135.746094 L 189.382812 135.746094 C 188.589844 135.746094 187.949219 135.105469 187.949219 134.316406 Z M 187.949219 123.347656 " fill-opacity="1" fill-rule="nonzero"/><path fill="#ffffff" d="M 197.898438 129.402344 C 198.308594 129.074219 198.570312 128.570312 198.570312 128.003906 C 198.570312 127.011719 197.765625 126.207031 196.773438 126.207031 C 195.78125 126.207031 194.976562 127.011719 194.976562 128.003906 C 194.976562 128.621094 195.289062 129.164062 195.761719 129.488281 L 195.359375 131.171875 C 195.300781 131.421875 195.492188 131.664062 195.75 131.664062 L 197.929688 131.664062 C 198.1875 131.664062 198.378906 131.421875 198.320312 131.171875 Z M 197.898438 129.402344 " fill-opacity="1" fill-rule="evenodd"/><path fill="#ffffff" d="M 75.578125 154.105469 L 77.503906 161.105469 C 78.46875 164.605469 75.578125 168.742188 67.546875 168.742188 C 61.125 168.742188 60.160156 162.800781 60.480469 159.832031 L 62.085938 151.875 C 60.480469 150.285156 59.195312 149.328125 59.195312 141.691406 C 59.195312 132.144531 64.335938 128.644531 70.4375 128.644531 C 76.542969 128.644531 81.679688 133.730469 81.679688 142.964844 C 81.679688 150.921875 77.398438 153.46875 75.578125 154.105469 Z M 75.578125 154.105469 " fill-opacity="1" fill-rule="nonzero"/><path fill="#08979d" d="M 77.929688 132.695312 C 79.875 135.003906 81.132812 138.449219 81.132812 142.964844 C 81.132812 146.839844 80.089844 149.34375 78.875 150.945312 C 77.652344 152.554688 76.226562 153.292969 75.398438 153.585938 L 74.914062 153.753906 L 76.976562 161.25 C 77.402344 162.796875 76.988281 164.492188 75.527344 165.832031 C 74.058594 167.179688 71.476562 168.191406 67.546875 168.191406 C 64.546875 168.191406 62.878906 166.824219 61.96875 165.140625 C 61.039062 163.417969 60.875 161.328125 61.023438 159.917969 L 62.683594 151.695312 L 62.472656 151.484375 C 62.410156 151.421875 62.351562 151.363281 62.292969 151.304688 C 61.566406 150.589844 60.992188 150.023438 60.554688 148.859375 C 60.066406 147.5625 59.746094 145.492188 59.746094 141.691406 C 59.746094 137.015625 61.003906 133.910156 62.917969 131.976562 C 64.835938 130.039062 67.488281 129.195312 70.4375 129.195312 C 73.328125 129.195312 75.988281 130.394531 77.929688 132.695312 Z M 78.765625 131.984375 C 76.613281 129.433594 73.648438 128.09375 70.4375 128.09375 C 67.285156 128.09375 64.316406 129 62.140625 131.199219 C 59.960938 133.402344 58.648438 136.820312 58.648438 141.691406 C 58.648438 145.527344 58.96875 147.757812 59.527344 149.246094 C 60.046875 150.632812 60.765625 151.347656 61.492188 152.058594 L 59.9375 159.746094 L 59.9375 159.773438 C 59.765625 161.332031 59.929688 163.679688 61.003906 165.664062 C 62.097656 167.691406 64.125 169.292969 67.546875 169.292969 C 71.648438 169.292969 74.527344 168.238281 76.269531 166.644531 C 78.019531 165.035156 78.570312 162.914062 78.035156 160.957031 L 76.238281 154.433594 C 77.226562 154.003906 78.578125 153.15625 79.746094 151.613281 C 81.128906 149.792969 82.230469 147.046875 82.230469 142.964844 C 82.226562 138.246094 80.914062 134.53125 78.765625 131.984375 Z M 78.765625 131.984375 " fill-opacity="1" fill-rule="evenodd"/><path fill="#08979d" d="M 90.816406 147.125 C 95.597656 152.109375 94.957031 164.375 94.222656 168.113281 C 85.234375 161.449219 79.621094 159.960938 77.421875 160.273438 L 75.410156 153.664062 C 78.871094 152.730469 81.070312 149.617188 81.386719 142.453125 C 81.636719 136.722656 78.765625 132.796875 77.296875 131.550781 C 72.269531 131.238281 69.753906 137.46875 68.179688 139.960938 C 66.921875 141.953125 65.980469 141.621094 65.664062 141.207031 C 64.09375 137.46875 61.261719 137.15625 60.636719 141.207031 C 60.132812 144.445312 62.519531 146.085938 63.777344 146.5 L 60.617188 160.273438 C 53.585938 160.664062 45.378906 164.585938 43.035156 166.152344 C 42.09375 156.1875 51.203125 148.679688 53.71875 142.453125 C 56.234375 136.222656 52.773438 133.105469 55.289062 129.058594 C 57.15625 126.058594 60.636719 125.632812 62.835938 125.007812 C 65.035156 124.386719 66.292969 121.894531 68.808594 120.648438 C 73.210938 119.089844 77.402344 122.933594 78.554688 125.632812 C 79.289062 125.527344 81.386719 125.820312 83.902344 127.8125 C 91.132812 132.796875 84.84375 140.894531 90.816406 147.125 Z M 90.816406 147.125 " fill-opacity="1" fill-rule="nonzero"/><path fill="#08979d" d="M 69.1875 153.707031 C 72.9375 154.582031 75.121094 154.253906 75.746094 153.980469 L 76.683594 156.996094 C 72.6875 157.433594 70.023438 154.984375 69.1875 153.707031 Z M 69.1875 153.707031 " fill-opacity="1" fill-rule="nonzero"/><path fill="#ffffff" d="M 68.347656 165.859375 C 74.65625 165.859375 77.617188 161.976562 78.308594 160.03125 C 90.339844 160.03125 100.296875 168.359375 104.863281 174.1875 C 109.425781 180.011719 126.4375 210.816406 122.289062 223.304688 C 118.96875 233.296875 110.945312 234.820312 106.519531 234.128906 L 107.253906 247.371094 C 107.308594 248.316406 106.554688 249.113281 105.613281 249.113281 L 44.699219 249.113281 C 38.335938 249.53125 24.449219 249.695312 19.804688 247.03125 C 13.996094 243.703125 8.601562 226.636719 19.804688 192.917969 C 28.765625 165.945312 49.816406 159.753906 59.21875 160.03125 C 59.636719 161.976562 62.042969 165.859375 68.347656 165.859375 Z M 68.347656 165.859375 " fill-opacity="1" fill-rule="nonzero"/><path fill="#08979d" d="M 19.285156 192.742188 C 28.332031 165.507812 49.625 159.199219 59.238281 159.484375 L 59.667969 159.496094 L 59.757812 159.917969 C 60.121094 161.625 62.316406 165.308594 68.347656 165.308594 C 74.398438 165.308594 77.167969 161.597656 77.789062 159.847656 L 77.921875 159.484375 L 78.308594 159.484375 C 90.578125 159.484375 100.679688 167.953125 105.292969 173.847656 C 107.617188 176.8125 113.03125 186.015625 117.347656 196.03125 C 119.503906 201.042969 121.398438 206.277344 122.492188 211.058594 C 123.582031 215.820312 123.894531 220.207031 122.808594 223.480469 C 121.105469 228.605469 118.179688 231.597656 115.070312 233.210938 C 112.269531 234.667969 109.347656 234.980469 107.105469 234.757812 L 107.800781 247.339844 C 107.871094 248.601562 106.871094 249.664062 105.613281 249.664062 L 44.714844 249.664062 C 41.519531 249.871094 36.445312 250.015625 31.582031 249.777344 C 29.144531 249.65625 26.75 249.441406 24.667969 249.082031 C 22.597656 248.726562 20.777344 248.226562 19.53125 247.507812 C 17.941406 246.597656 16.453125 244.792969 15.277344 242.136719 C 14.097656 239.472656 13.21875 235.90625 12.878906 231.410156 C 12.195312 222.421875 13.667969 209.648438 19.285156 192.742188 Z M 58.796875 160.574219 C 49.40625 160.492188 29.070312 166.769531 20.324219 193.089844 C 14.738281 209.902344 13.304688 222.523438 13.972656 231.328125 C 14.304688 235.730469 15.164062 239.164062 16.277344 241.691406 C 17.398438 244.222656 18.761719 245.800781 20.074219 246.554688 C 21.152344 247.171875 22.8125 247.648438 24.851562 247.996094 C 26.878906 248.34375 29.222656 248.558594 31.636719 248.679688 C 36.457031 248.917969 41.5 248.773438 44.664062 248.5625 L 105.613281 248.5625 C 106.242188 248.5625 106.742188 248.03125 106.707031 247.402344 L 105.9375 233.480469 L 106.605469 233.585938 C 108.71875 233.914062 111.710938 233.71875 114.566406 232.234375 C 117.410156 230.757812 120.152344 227.996094 121.769531 223.132812 C 122.757812 220.15625 122.5 216.015625 121.421875 211.304688 C 120.351562 206.613281 118.484375 201.445312 116.339844 196.464844 C 112.042969 186.5 106.671875 177.386719 104.429688 174.527344 C 99.964844 168.820312 90.304688 160.753906 78.675781 160.585938 C 77.707031 162.789062 74.554688 166.410156 68.347656 166.410156 C 62.175781 166.410156 59.492188 162.820312 58.796875 160.574219 Z M 58.796875 160.574219 " fill-opacity="1" fill-rule="evenodd"/><path fill="#08979d" d="M 38.132812 249.136719 C 28.128906 236.90625 17.554688 232.542969 13.515625 231.890625 C 13.515625 235.808594 15.472656 243.257812 18.988281 246.785156 C 21.800781 249.609375 32.925781 249.53125 38.132812 249.136719 Z M 38.132812 249.136719 " fill-opacity="1" fill-rule="nonzero"/><path fill="#08979d" d="M 115.5 232.675781 C 122.066406 230.164062 123.183594 221.175781 122.925781 216.992188 C 116.984375 219.816406 108.988281 229.40625 105.730469 233.851562 C 106.253906 234.503906 108.9375 235.183594 115.5 232.675781 Z M 115.5 232.675781 " fill-opacity="1" fill-rule="nonzero"/><path fill="#08979d" d="M 67.519531 204.15625 C 64.617188 205.40625 43.039062 215.535156 33.082031 220.390625 C 34.328125 218.308594 39.304688 214.980469 40.550781 213.730469 C 41.792969 212.480469 46.359375 197.914062 46.359375 199.996094 C 46.359375 202.074219 43.871094 211.648438 45.113281 211.648438 C 46.359375 211.648438 63.785156 204.15625 67.519531 204.15625 Z M 67.519531 204.15625 " fill-opacity="1" fill-rule="nonzero"/><path fill="#08979d" d="M 76.234375 216.230469 C 58.640625 239.871094 44.285156 248.28125 39.304688 249.53125 L 48.019531 249.53125 C 62.957031 237.875 73.050781 222.472656 76.234375 216.230469 Z M 76.234375 216.230469 " fill-opacity="1" fill-rule="nonzero"/><path fill="#08979d" d="M 97.808594 212.066406 C 98.472656 220.058594 104.171875 230.105469 106.9375 234.128906 L 106.9375 237.875 C 100.628906 230.882812 98.222656 217.753906 97.808594 212.066406 Z M 97.808594 212.066406 " fill-opacity="1" fill-rule="nonzero"/><path fill="#08979d" d="M 105.691406 200.828125 C 108.015625 202.160156 112.191406 205.265625 113.992188 206.65625 L 107.351562 198.746094 C 107.019531 200.078125 106.105469 200.6875 105.691406 200.828125 Z M 105.691406 200.828125 " fill-opacity="1" fill-rule="nonzero"/><path fill="#ffffff" d="M 81.164062 185.46875 L 77.964844 216.75 C 77.929688 217.113281 78.25 217.414062 78.609375 217.347656 L 93.6875 214.632812 C 93.917969 214.589844 94.097656 214.40625 94.132812 214.171875 L 98.539062 184.4375 C 98.589844 184.089844 98.304688 183.785156 97.957031 183.808594 L 81.671875 184.976562 C 81.40625 184.996094 81.191406 185.203125 81.164062 185.46875 Z M 81.164062 185.46875 " fill-opacity="1" fill-rule="nonzero"/><path fill="#08979d" d="M 97.917969 183.261719 C 98.617188 183.210938 99.183594 183.824219 99.082031 184.519531 L 94.675781 214.253906 C 94.605469 214.722656 94.246094 215.089844 93.785156 215.175781 L 78.707031 217.890625 C 77.988281 218.019531 77.347656 217.421875 77.421875 216.695312 L 80.621094 185.414062 C 80.671875 184.882812 81.101562 184.464844 81.632812 184.425781 Z M 97.996094 184.359375 L 81.710938 185.523438 L 78.511719 216.808594 L 93.589844 214.09375 Z M 97.996094 184.359375 " fill-opacity="1" fill-rule="evenodd"/><path fill="#ffffff" d="M 102.785156 200.828125 L 97.808594 208.320312 C 91.167969 208.734375 89.925781 204.988281 91.167969 199.164062 C 92.164062 194.5 95.871094 194.445312 97.394531 195 L 98.222656 191.667969 C 102.785156 195.414062 102.785156 199.023438 102.785156 200.828125 Z M 102.785156 200.828125 " fill-opacity="1" fill-rule="nonzero"/><path fill="#08979d" d="M 97.902344 190.695312 L 98.570312 191.242188 C 100.921875 193.175781 102.125 195.09375 102.734375 196.792969 C 103.335938 198.476562 103.335938 199.90625 103.335938 200.820312 L 103.335938 200.992188 L 98.113281 208.851562 L 97.84375 208.871094 C 94.4375 209.082031 92.207031 208.238281 91.066406 206.371094 C 89.960938 204.5625 90.007812 201.980469 90.632812 199.046875 C 91.164062 196.558594 92.445312 195.222656 93.871094 194.617188 C 94.980469 194.144531 96.136719 194.140625 96.996094 194.320312 Z M 98.539062 192.667969 L 97.777344 195.726562 L 97.207031 195.515625 C 96.554688 195.28125 95.394531 195.164062 94.296875 195.632812 C 93.238281 196.082031 92.171875 197.101562 91.707031 199.277344 C 91.089844 202.171875 91.132812 204.375 92 205.796875 C 92.808594 207.113281 94.445312 207.925781 97.503906 207.785156 L 102.238281 200.660156 C 102.238281 199.777344 102.203125 198.570312 101.699219 197.164062 C 101.222656 195.824219 100.308594 194.277344 98.539062 192.667969 Z M 98.539062 192.667969 " fill-opacity="1" fill-rule="evenodd"/><path fill="#ffffff" d="M 73.742188 199.996094 C 72.746094 202.660156 70.839844 204.433594 70.007812 204.988281 L 75.402344 213.316406 C 77.0625 211.648438 79.136719 211.648438 83.699219 209.570312 C 88.265625 207.488281 89.507812 199.996094 88.265625 195.832031 C 87.269531 192.503906 81.488281 195 79.136719 196.664062 L 79.550781 192.085938 C 76.648438 193.335938 74.988281 196.664062 73.742188 199.996094 Z M 73.742188 199.996094 " fill-opacity="1" fill-rule="nonzero"/><path fill="#08979d" d="M 80.179688 191.214844 L 79.785156 195.597656 C 80.996094 194.890625 82.585938 194.171875 84.089844 193.839844 C 85.0625 193.621094 86.054688 193.550781 86.902344 193.792969 C 87.785156 194.050781 88.484375 194.648438 88.789062 195.675781 C 89.445312 197.871094 89.4375 200.890625 88.691406 203.625 C 87.941406 206.355469 86.421875 208.933594 83.925781 210.070312 C 82.074219 210.914062 80.617188 211.425781 79.453125 211.832031 C 79.167969 211.929688 78.898438 212.023438 78.648438 212.117188 C 77.363281 212.578125 76.53125 212.960938 75.789062 213.703125 L 75.3125 214.183594 L 69.253906 204.832031 L 69.703125 204.53125 C 70.457031 204.03125 72.28125 202.339844 73.230469 199.800781 C 73.855469 198.121094 74.601562 196.410156 75.570312 194.953125 C 76.539062 193.496094 77.753906 192.261719 79.335938 191.582031 Z M 76.480469 195.566406 C 75.582031 196.917969 74.875 198.535156 74.257812 200.1875 C 73.359375 202.589844 71.757812 204.304688 70.75 205.121094 L 75.515625 212.476562 C 76.308594 211.84375 77.199219 211.46875 78.277344 211.082031 C 78.539062 210.984375 78.816406 210.890625 79.105469 210.789062 C 80.265625 210.382812 81.667969 209.890625 83.472656 209.066406 C 85.542969 208.125 86.925781 205.914062 87.632812 203.335938 C 88.335938 200.765625 88.328125 197.957031 87.738281 195.988281 C 87.546875 195.351562 87.152344 195.011719 86.597656 194.851562 C 86.003906 194.679688 85.222656 194.710938 84.328125 194.914062 C 82.550781 195.308594 80.582031 196.3125 79.453125 197.113281 L 78.484375 197.800781 L 78.914062 193.046875 C 77.976562 193.648438 77.175781 194.515625 76.480469 195.566406 Z M 76.480469 195.566406 " fill-opacity="1" fill-rule="evenodd"/><g clip-path="url(#967b19a38b)"><path fill="#05585c" d="M 66.667969 251.082031 L 165.96875 251.082031 C 177.417969 251.082031 188.476562 246.894531 197.058594 239.3125 L 207.3125 230.25 C 224.738281 214.847656 223.28125 187.226562 204.332031 173.75 C 189.078125 162.902344 184.640625 142.191406 194.109375 126.042969 L 195.179688 124.21875 C 203.738281 109.621094 201.746094 91.144531 190.269531 78.710938 L 176.425781 63.71875 C 162.742188 48.894531 138.789062 50.828125 127.65625 67.652344 C 119.191406 80.445312 102.664062 85.152344 88.734375 78.738281 L 82.679688 75.953125 C 65.300781 67.949219 44.683594 73.796875 34.082031 89.730469 L 27.285156 99.945312 C 20.5625 110.050781 19.738281 122.976562 25.125 133.855469 C 31.320312 146.359375 29.238281 161.382812 19.882812 171.734375 L 17.15625 174.75 C 0.121094 193.589844 4.753906 223.335938 26.710938 236.097656 L 40.238281 243.957031 C 48.265625 248.621094 57.382812 251.082031 66.667969 251.082031 Z M 66.667969 251.082031 " fill-opacity="1" fill-rule="nonzero"/></g><path fill="#08979d" d="M 213.589844 222.050781 C 213.757812 234.789062 205.089844 245.546875 200.6875 249.3125 L 193.9375 249.3125 C 198.957031 232.316406 207.25 223.863281 211.894531 221.050781 C 212.667969 220.582031 213.578125 221.144531 213.589844 222.050781 Z M 213.589844 222.050781 " fill-opacity="1" fill-rule="nonzero"/><path fill="#ffffff" d="M 214.304688 180.253906 C 221.214844 206.300781 203.792969 237.152344 196.300781 248.636719 L 181.117188 248.636719 C 187.640625 199.488281 198.574219 187.542969 212.394531 179.472656 C 213.136719 179.039062 214.082031 179.421875 214.304688 180.253906 Z M 214.304688 180.253906 " fill-opacity="1" fill-rule="nonzero"/><path fill="#08979d" d="M 212.734375 180.054688 C 213.097656 179.84375 213.546875 180.035156 213.652344 180.425781 C 217.058594 193.257812 214.476562 207.328125 210.070312 219.679688 C 205.742188 231.796875 199.683594 242.179688 195.933594 247.960938 L 181.890625 247.960938 C 185.136719 223.863281 189.449219 208.894531 194.617188 198.960938 C 199.820312 188.960938 205.90625 184.042969 212.734375 180.054688 Z M 214.957031 180.078125 C 214.617188 178.808594 213.175781 178.234375 212.054688 178.886719 C 205.0625 182.972656 198.769531 188.058594 193.421875 198.335938 C 188.089844 208.578125 183.714844 223.945312 180.449219 248.546875 L 180.347656 249.3125 L 196.664062 249.3125 L 196.867188 249.007812 C 200.628906 243.238281 206.886719 232.605469 211.339844 220.132812 C 215.789062 207.671875 218.464844 193.292969 214.957031 180.078125 Z M 214.957031 180.078125 " fill-opacity="1" fill-rule="evenodd"/><path fill="#08979d" d="M 189.824219 196.277344 C 195.796875 218.105469 188.960938 240.792969 184.492188 249.3125 L 173.359375 249.3125 C 170.855469 222.707031 181.035156 203.363281 187.726562 195.757812 C 188.386719 195.007812 189.5625 195.3125 189.824219 196.277344 Z M 189.824219 196.277344 " fill-opacity="1" fill-rule="nonzero"/><path fill="#08979d" d="M 204.851562 198.789062 L 208.484375 188.558594 L 209.757812 189.015625 L 201.4375 212.4375 L 206.902344 210.792969 L 207.289062 212.089844 L 200.875 214.019531 L 193.308594 235.324219 L 200.121094 232.785156 L 200.589844 234.054688 L 192.71875 236.988281 L 188.503906 248.863281 L 187.230469 248.410156 L 195.796875 224.292969 L 192.628906 215.390625 L 193.898438 214.933594 L 196.511719 222.277344 L 204.085938 200.941406 L 201.726562 193.039062 L 203.019531 192.652344 Z M 204.851562 198.789062 " fill-opacity="1" fill-rule="evenodd"/><path fill="#ffffff" d="M 184.132812 213.707031 L 185.851562 204.21875 L 187.179688 204.460938 L 183.6875 223.722656 L 188.226562 221.324219 L 188.855469 222.523438 L 183.378906 225.414062 L 180.382812 241.929688 L 184.136719 238.976562 L 184.972656 240.039062 L 180.019531 243.9375 L 179.085938 249.097656 L 177.757812 248.855469 L 180.15625 235.625 L 176.199219 230.449219 L 177.269531 229.628906 L 180.480469 233.828125 L 183.828125 215.375 L 180.625 211.902344 L 181.613281 210.984375 Z M 184.132812 213.707031 " fill-opacity="1" fill-rule="evenodd"/><path fill="#ffffff" d="M 65.015625 89.503906 L 67.613281 90.132812 C 68.074219 90.242188 68.121094 90.882812 67.679688 91.058594 L 65.261719 92.035156 C 65.117188 92.09375 65.007812 92.222656 64.96875 92.375 L 64.296875 95.148438 C 64.1875 95.59375 63.582031 95.660156 63.382812 95.246094 L 62.128906 92.644531 C 62.070312 92.519531 61.957031 92.425781 61.824219 92.386719 L 58.773438 91.527344 C 58.320312 91.398438 58.292969 90.765625 58.730469 90.597656 L 61.503906 89.535156 C 61.640625 89.484375 61.746094 89.375 61.792969 89.238281 L 62.84375 86.179688 C 63 85.730469 63.640625 85.746094 63.777344 86.199219 L 64.664062 89.167969 C 64.714844 89.335938 64.847656 89.460938 65.015625 89.503906 Z M 65.015625 89.503906 " fill-opacity="1" fill-rule="nonzero"/><path fill="#ffffff" d="M 44.273438 115.109375 L 44.941406 115.652344 C 45.3125 115.953125 45.078125 116.550781 44.605469 116.519531 L 43.769531 116.46875 C 43.609375 116.460938 43.457031 116.527344 43.359375 116.648438 L 42.699219 117.460938 C 42.410156 117.820312 41.832031 117.617188 41.832031 117.15625 L 41.828125 116.078125 C 41.824219 115.9375 41.765625 115.804688 41.660156 115.714844 L 40.753906 114.917969 C 40.398438 114.609375 40.644531 114.027344 41.113281 114.0625 L 42.195312 114.148438 C 42.339844 114.160156 42.480469 114.105469 42.582031 114.003906 L 43.433594 113.132812 C 43.769531 112.792969 44.339844 113.082031 44.269531 113.550781 L 44.097656 114.65625 C 44.070312 114.828125 44.136719 115 44.273438 115.109375 Z M 44.273438 115.109375 " fill-opacity="1" fill-rule="nonzero"/><path fill="#08979d" d="M 206.21875 154.796875 L 204.273438 157.433594 C 204.15625 157.59375 203.964844 157.671875 203.773438 157.632812 L 201.375 157.15625 C 200.855469 157.054688 200.542969 157.742188 200.941406 158.105469 L 202.832031 159.824219 C 202.96875 159.949219 203.035156 160.140625 203.003906 160.332031 L 202.527344 163.164062 C 202.441406 163.699219 203.058594 164.027344 203.410156 163.632812 L 205.347656 161.457031 C 205.460938 161.328125 205.628906 161.265625 205.792969 161.289062 L 208.035156 161.613281 C 208.542969 161.6875 208.828125 161.019531 208.445312 160.664062 L 206.773438 159.121094 C 206.640625 158.996094 206.578125 158.808594 206.605469 158.621094 L 207.132812 155.21875 C 207.21875 154.660156 206.546875 154.351562 206.21875 154.796875 Z M 206.21875 154.796875 " fill-opacity="1" fill-rule="nonzero"/><path fill="#ffffff" d="M 88.722656 84.949219 C 88.722656 81.046875 91.886719 77.878906 95.792969 77.878906 L 176.222656 77.878906 C 180.128906 77.878906 183.292969 81.046875 183.292969 84.949219 L 183.292969 242.21875 C 183.292969 246.125 180.128906 249.289062 176.222656 249.289062 L 95.792969 249.289062 C 91.886719 249.289062 88.722656 246.125 88.722656 242.21875 Z M 88.722656 84.949219 " fill-opacity="1" fill-rule="nonzero"/><path fill="#08979d" d="M 88.132812 84.949219 C 88.132812 80.71875 91.5625 77.292969 95.792969 77.292969 L 176.222656 77.292969 C 180.453125 77.292969 183.882812 80.71875 183.882812 84.949219 L 183.882812 242.21875 C 183.882812 246.449219 180.453125 249.878906 176.222656 249.878906 L 95.792969 249.878906 C 91.5625 249.878906 88.132812 246.449219 88.132812 242.21875 Z M 95.792969 78.46875 C 92.214844 78.46875 89.3125 81.371094 89.3125 84.949219 L 89.3125 242.21875 C 89.3125 245.800781 92.214844 248.699219 95.792969 248.699219 L 176.222656 248.699219 C 179.804688 248.699219 182.703125 245.800781 182.703125 242.21875 L 182.703125 84.949219 C 182.703125 81.371094 179.804688 78.46875 176.222656 78.46875 Z M 95.792969 78.46875 " fill-opacity="1" fill-rule="evenodd"/><path fill="#05585c" d="M 163.546875 140.910156 C 163.546875 156.203125 151.148438 168.597656 135.855469 168.597656 C 120.5625 168.597656 108.164062 156.203125 108.164062 140.910156 C 108.164062 125.617188 120.5625 113.21875 135.855469 113.21875 C 151.148438 113.21875 163.546875 125.617188 163.546875 140.910156 Z M 163.546875 140.910156 " fill-opacity="1" fill-rule="nonzero"/><path fill="#08979d" d="M 117.203125 83.628906 L 114.140625 77.878906 L 157.878906 77.878906 L 154.273438 83.886719 C 153.210938 85.660156 151.292969 86.746094 149.222656 86.746094 L 122.402344 86.746094 C 120.226562 86.746094 118.230469 85.546875 117.203125 83.628906 Z M 117.203125 83.628906 " fill-opacity="1" fill-rule="nonzero"/><path fill="#08979d" d="M 182.132812 81.425781 L 89.28125 81.425781 C 92.355469 78.351562 95.289062 77.78125 96.371094 77.878906 L 175.039062 77.878906 C 178.824219 77.878906 181.347656 80.246094 182.132812 81.425781 Z M 182.132812 81.425781 " fill-opacity="1" fill-rule="nonzero"/><path fill="#08979d" d="M 182.0625 245.929688 L 89.902344 245.929688 C 93.097656 249.050781 94.941406 249.632812 96.066406 249.53125 L 175.894531 249.53125 C 179.828125 249.53125 181.242188 247.128906 182.0625 245.929688 Z M 182.0625 245.929688 " fill-opacity="1" fill-rule="nonzero"/><path fill="#08979d" d="M 102.273438 100.257812 C 102.273438 99.605469 102.800781 99.078125 103.453125 99.078125 L 134.828125 99.078125 C 135.476562 99.078125 136.003906 99.605469 136.003906 100.257812 L 136.003906 101.515625 C 136.003906 102.167969 135.476562 102.695312 134.828125 102.695312 L 103.453125 102.695312 C 102.800781 102.695312 102.273438 102.167969 102.273438 101.515625 Z M 102.273438 100.257812 " fill-opacity="1" fill-rule="nonzero"/><path fill="#08979d" d="M 102.273438 179.792969 C 102.273438 179.140625 102.800781 178.613281 103.453125 178.613281 L 134.828125 178.613281 C 135.476562 178.613281 136.003906 179.140625 136.003906 179.792969 L 136.003906 181.050781 C 136.003906 181.703125 135.476562 182.230469 134.828125 182.230469 L 103.453125 182.230469 C 102.800781 182.230469 102.273438 181.703125 102.273438 181.050781 Z M 102.273438 179.792969 " fill-opacity="1" fill-rule="nonzero"/><path fill="#08979d" d="M 102.273438 211.019531 C 102.273438 210.367188 102.800781 209.839844 103.453125 209.839844 L 122.304688 209.839844 C 122.957031 209.839844 123.484375 210.367188 123.484375 211.019531 L 123.484375 212.195312 C 123.484375 212.847656 122.957031 213.375 122.304688 213.375 L 103.453125 213.375 C 102.800781 213.375 102.273438 212.847656 102.273438 212.195312 Z M 102.273438 211.019531 " fill-opacity="1" fill-rule="nonzero"/><path fill="#05585c" d="M 102.273438 188.628906 C 102.273438 187.980469 102.800781 187.453125 103.453125 187.453125 L 166.492188 187.453125 C 167.140625 187.453125 167.667969 187.980469 167.667969 188.628906 L 167.667969 200.414062 C 167.667969 201.0625 167.140625 201.59375 166.492188 201.59375 L 103.453125 201.59375 C 102.800781 201.59375 102.273438 201.0625 102.273438 200.414062 Z M 102.273438 188.628906 " fill-opacity="1" fill-rule="nonzero"/><path fill="#05585c" d="M 102.273438 219.265625 C 102.273438 218.617188 102.800781 218.089844 103.453125 218.089844 L 166.492188 218.089844 C 167.140625 218.089844 167.667969 218.617188 167.667969 219.265625 L 167.667969 231.050781 C 167.667969 231.699219 167.140625 232.226562 166.492188 232.226562 L 103.453125 232.226562 C 102.800781 232.226562 102.273438 231.699219 102.273438 231.050781 Z M 102.273438 219.265625 " fill-opacity="1" fill-rule="nonzero"/><path fill="#08979d" d="M 175.476562 86.304688 L 176.65625 86.304688 L 176.65625 91.121094 L 175.476562 91.121094 Z M 175.476562 86.304688 " fill-opacity="1" fill-rule="evenodd"/><path fill="#08979d" d="M 172.464844 86.90625 L 173.644531 86.90625 L 173.644531 91.121094 L 172.464844 91.121094 Z M 172.464844 86.90625 " fill-opacity="1" fill-rule="evenodd"/><path fill="#08979d" d="M 169.453125 88.109375 L 170.632812 88.109375 L 170.632812 91.121094 L 169.453125 91.121094 Z M 169.453125 88.109375 " fill-opacity="1" fill-rule="evenodd"/><path fill="#08979d" d="M 166.441406 89.316406 L 167.617188 89.316406 L 167.617188 91.121094 L 166.441406 91.121094 Z M 166.441406 89.316406 " fill-opacity="1" fill-rule="evenodd"/><path fill="#ffffff" d="M 136.121094 141.242188 C 128.328125 141.242188 121.90625 147.207031 121.042969 154.882812 C 120.933594 155.851562 121.734375 156.644531 122.710938 156.644531 L 149.53125 156.644531 C 150.507812 156.644531 151.308594 155.851562 151.199219 154.882812 C 150.335938 147.207031 143.914062 141.242188 136.121094 141.242188 Z M 136.121094 141.242188 " fill-opacity="1" fill-rule="nonzero"/><path fill="#ffffff" d="M 143.59375 132.183594 C 143.59375 136.1875 140.351562 139.429688 136.347656 139.429688 C 132.34375 139.429688 129.097656 136.1875 129.097656 132.183594 C 129.097656 128.179688 132.34375 124.933594 136.347656 124.933594 C 140.351562 124.933594 143.59375 128.179688 143.59375 132.183594 Z M 143.59375 132.183594 " fill-opacity="1" fill-rule="nonzero"/><path fill="#ffffff" d="M 216.570312 123.824219 C 216.570312 134.886719 207.601562 143.855469 196.539062 143.855469 C 185.476562 143.855469 176.507812 134.886719 176.507812 123.824219 C 176.507812 112.761719 185.476562 103.792969 196.539062 103.792969 C 207.601562 103.792969 216.570312 112.761719 216.570312 123.824219 Z M 216.570312 123.824219 " fill-opacity="1" fill-rule="nonzero"/><path fill="#08979d" d="M 196.539062 104.269531 C 185.738281 104.269531 176.984375 113.023438 176.984375 123.824219 C 176.984375 134.625 185.738281 143.378906 196.539062 143.378906 C 207.335938 143.378906 216.09375 134.625 216.09375 123.824219 C 216.09375 113.023438 207.335938 104.269531 196.539062 104.269531 Z M 176.027344 123.824219 C 176.027344 112.496094 185.210938 103.316406 196.539062 103.316406 C 207.863281 103.316406 217.046875 112.496094 217.046875 123.824219 C 217.046875 135.148438 207.863281 144.332031 196.539062 144.332031 C 185.210938 144.332031 176.027344 135.148438 176.027344 123.824219 Z M 176.027344 123.824219 " fill-opacity="1" fill-rule="evenodd"/><path fill="#08979d" d="M 196.773438 111.421875 C 192.953125 111.421875 189.859375 114.570312 189.859375 118.453125 L 189.859375 123.265625 C 189.859375 123.835938 190.320312 124.300781 190.894531 124.300781 C 191.464844 124.300781 191.925781 123.835938 191.925781 123.265625 L 191.925781 118.320312 C 191.925781 115.601562 194.097656 113.394531 196.773438 113.394531 C 199.453125 113.394531 201.621094 115.601562 201.621094 118.320312 L 201.621094 123.007812 C 201.621094 123.578125 202.085938 124.042969 202.65625 124.042969 C 203.226562 124.042969 203.691406 123.578125 203.691406 123.007812 L 203.691406 118.453125 C 203.691406 114.570312 200.59375 111.421875 196.773438 111.421875 Z M 196.773438 111.421875 " fill-opacity="1" fill-rule="evenodd"/><path fill="#05585c" d="M 187.949219 123.347656 C 187.949219 122.554688 188.589844 121.917969 189.382812 121.917969 L 204.167969 121.917969 C 204.957031 121.917969 205.597656 122.554688 205.597656 123.347656 L 205.597656 134.316406 C 205.597656 135.105469 204.957031 135.746094 204.167969 135.746094 L 189.382812 135.746094 C 188.589844 135.746094 187.949219 135.105469 187.949219 134.316406 Z M 187.949219 123.347656 " fill-opacity="1" fill-rule="nonzero"/><path fill="#ffffff" d="M 197.898438 129.402344 C 198.308594 129.074219 198.570312 128.570312 198.570312 128.003906 C 198.570312 127.011719 197.765625 126.207031 196.773438 126.207031 C 195.78125 126.207031 194.976562 127.011719 194.976562 128.003906 C 194.976562 128.621094 195.289062 129.164062 195.761719 129.488281 L 195.359375 131.171875 C 195.300781 131.421875 195.492188 131.664062 195.75 131.664062 L 197.929688 131.664062 C 198.1875 131.664062 198.378906 131.421875 198.320312 131.171875 Z M 197.898438 129.402344 " fill-opacity="1" fill-rule="evenodd"/><path fill="#ffffff" d="M 75.578125 154.105469 L 77.503906 161.105469 C 78.46875 164.605469 75.578125 168.742188 67.546875 168.742188 C 61.125 168.742188 60.160156 162.800781 60.480469 159.832031 L 62.085938 151.875 C 60.480469 150.285156 59.195312 149.328125 59.195312 141.691406 C 59.195312 132.144531 64.335938 128.644531 70.4375 128.644531 C 76.542969 128.644531 81.679688 133.730469 81.679688 142.964844 C 81.679688 150.921875 77.398438 153.46875 75.578125 154.105469 Z M 75.578125 154.105469 " fill-opacity="1" fill-rule="nonzero"/><path fill="#08979d" d="M 77.929688 132.695312 C 79.875 135.003906 81.132812 138.449219 81.132812 142.964844 C 81.132812 146.839844 80.089844 149.34375 78.875 150.945312 C 77.652344 152.554688 76.226562 153.292969 75.398438 153.585938 L 74.914062 153.753906 L 76.976562 161.25 C 77.402344 162.796875 76.988281 164.492188 75.527344 165.832031 C 74.058594 167.179688 71.476562 168.191406 67.546875 168.191406 C 64.546875 168.191406 62.878906 166.824219 61.96875 165.140625 C 61.039062 163.417969 60.875 161.328125 61.023438 159.917969 L 62.683594 151.695312 L 62.472656 151.484375 C 62.410156 151.421875 62.351562 151.363281 62.292969 151.304688 C 61.566406 150.589844 60.992188 150.023438 60.554688 148.859375 C 60.066406 147.5625 59.746094 145.492188 59.746094 141.691406 C 59.746094 137.015625 61.003906 133.910156 62.917969 131.976562 C 64.835938 130.039062 67.488281 129.195312 70.4375 129.195312 C 73.328125 129.195312 75.988281 130.394531 77.929688 132.695312 Z M 78.765625 131.984375 C 76.613281 129.433594 73.648438 128.09375 70.4375 128.09375 C 67.285156 128.09375 64.316406 129 62.140625 131.199219 C 59.960938 133.402344 58.648438 136.820312 58.648438 141.691406 C 58.648438 145.527344 58.96875 147.757812 59.527344 149.246094 C 60.046875 150.632812 60.765625 151.347656 61.492188 152.058594 L 59.9375 159.746094 L 59.9375 159.773438 C 59.765625 161.332031 59.929688 163.679688 61.003906 165.664062 C 62.097656 167.691406 64.125 169.292969 67.546875 169.292969 C 71.648438 169.292969 74.527344 168.238281 76.269531 166.644531 C 78.019531 165.035156 78.570312 162.914062 78.035156 160.957031 L 76.238281 154.433594 C 77.226562 154.003906 78.578125 153.15625 79.746094 151.613281 C 81.128906 149.792969 82.230469 147.046875 82.230469 142.964844 C 82.226562 138.246094 80.914062 134.53125 78.765625 131.984375 Z M 78.765625 131.984375 " fill-opacity="1" fill-rule="evenodd"/><path fill="#08979d" d="M 90.816406 147.125 C 95.597656 152.109375 94.957031 164.375 94.222656 168.113281 C 85.234375 161.449219 79.621094 159.960938 77.421875 160.273438 L 75.410156 153.664062 C 78.871094 152.730469 81.070312 149.617188 81.386719 142.453125 C 81.636719 136.722656 78.765625 132.796875 77.296875 131.550781 C 72.269531 131.238281 69.753906 137.46875 68.179688 139.960938 C 66.921875 141.953125 65.980469 141.621094 65.664062 141.207031 C 64.09375 137.46875 61.261719 137.15625 60.636719 141.207031 C 60.132812 144.445312 62.519531 146.085938 63.777344 146.5 L 60.617188 160.273438 C 53.585938 160.664062 45.378906 164.585938 43.035156 166.152344 C 42.09375 156.1875 51.203125 148.679688 53.71875 142.453125 C 56.234375 136.222656 52.773438 133.105469 55.289062 129.058594 C 57.15625 126.058594 60.636719 125.632812 62.835938 125.007812 C 65.035156 124.386719 66.292969 121.894531 68.808594 120.648438 C 73.210938 119.089844 77.402344 122.933594 78.554688 125.632812 C 79.289062 125.527344 81.386719 125.820312 83.902344 127.8125 C 91.132812 132.796875 84.84375 140.894531 90.816406 147.125 Z M 90.816406 147.125 " fill-opacity="1" fill-rule="nonzero"/><path fill="#08979d" d="M 69.1875 153.707031 C 72.9375 154.582031 75.121094 154.253906 75.746094 153.980469 L 76.683594 156.996094 C 72.6875 157.433594 70.023438 154.984375 69.1875 153.707031 Z M 69.1875 153.707031 " fill-opacity="1" fill-rule="nonzero"/><path fill="#ffffff" d="M 68.347656 165.859375 C 74.65625 165.859375 77.617188 161.976562 78.308594 160.03125 C 90.339844 160.03125 100.296875 168.359375 104.863281 174.1875 C 109.425781 180.011719 126.4375 210.816406 122.289062 223.304688 C 118.96875 233.296875 110.945312 234.820312 106.519531 234.128906 L 107.253906 247.371094 C 107.308594 248.316406 106.554688 249.113281 105.613281 249.113281 L 44.699219 249.113281 C 38.335938 249.53125 24.449219 249.695312 19.804688 247.03125 C 13.996094 243.703125 8.601562 226.636719 19.804688 192.917969 C 28.765625 165.945312 49.816406 159.753906 59.21875 160.03125 C 59.636719 161.976562 62.042969 165.859375 68.347656 165.859375 Z M 68.347656 165.859375 " fill-opacity="1" fill-rule="nonzero"/><path fill="#08979d" d="M 19.285156 192.742188 C 28.332031 165.507812 49.625 159.199219 59.238281 159.484375 L 59.667969 159.496094 L 59.757812 159.917969 C 60.121094 161.625 62.316406 165.308594 68.347656 165.308594 C 74.398438 165.308594 77.167969 161.597656 77.789062 159.847656 L 77.921875 159.484375 L 78.308594 159.484375 C 90.578125 159.484375 100.679688 167.953125 105.292969 173.847656 C 107.617188 176.8125 113.03125 186.015625 117.347656 196.03125 C 119.503906 201.042969 121.398438 206.277344 122.492188 211.058594 C 123.582031 215.820312 123.894531 220.207031 122.808594 223.480469 C 121.105469 228.605469 118.179688 231.597656 115.070312 233.210938 C 112.269531 234.667969 109.347656 234.980469 107.105469 234.757812 L 107.800781 247.339844 C 107.871094 248.601562 106.871094 249.664062 105.613281 249.664062 L 44.714844 249.664062 C 41.519531 249.871094 36.445312 250.015625 31.582031 249.777344 C 29.144531 249.65625 26.75 249.441406 24.667969 249.082031 C 22.597656 248.726562 20.777344 248.226562 19.53125 247.507812 C 17.941406 246.597656 16.453125 244.792969 15.277344 242.136719 C 14.097656 239.472656 13.21875 235.90625 12.878906 231.410156 C 12.195312 222.421875 13.667969 209.648438 19.285156 192.742188 Z M 58.796875 160.574219 C 49.40625 160.492188 29.070312 166.769531 20.324219 193.089844 C 14.738281 209.902344 13.304688 222.523438 13.972656 231.328125 C 14.304688 235.730469 15.164062 239.164062 16.277344 241.691406 C 17.398438 244.222656 18.761719 245.800781 20.074219 246.554688 C 21.152344 247.171875 22.8125 247.648438 24.851562 247.996094 C 26.878906 248.34375 29.222656 248.558594 31.636719 248.679688 C 36.457031 248.917969 41.5 248.773438 44.664062 248.5625 L 105.613281 248.5625 C 106.242188 248.5625 106.742188 248.03125 106.707031 247.402344 L 105.9375 233.480469 L 106.605469 233.585938 C 108.71875 233.914062 111.710938 233.71875 114.566406 232.234375 C 117.410156 230.757812 120.152344 227.996094 121.769531 223.132812 C 122.757812 220.15625 122.5 216.015625 121.421875 211.304688 C 120.351562 206.613281 118.484375 201.445312 116.339844 196.464844 C 112.042969 186.5 106.671875 177.386719 104.429688 174.527344 C 99.964844 168.820312 90.304688 160.753906 78.675781 160.585938 C 77.707031 162.789062 74.554688 166.410156 68.347656 166.410156 C 62.175781 166.410156 59.492188 162.820312 58.796875 160.574219 Z M 58.796875 160.574219 " fill-opacity="1" fill-rule="evenodd"/><path fill="#08979d" d="M 38.132812 249.136719 C 28.128906 236.90625 17.554688 232.542969 13.515625 231.890625 C 13.515625 235.808594 15.472656 243.257812 18.988281 246.785156 C 21.800781 249.609375 32.925781 249.53125 38.132812 249.136719 Z M 38.132812 249.136719 " fill-opacity="1" fill-rule="nonzero"/><path fill="#08979d" d="M 115.5 232.675781 C 122.066406 230.164062 123.183594 221.175781 122.925781 216.992188 C 116.984375 219.816406 108.988281 229.40625 105.730469 233.851562 C 106.253906 234.503906 108.9375 235.183594 115.5 232.675781 Z M 115.5 232.675781 " fill-opacity="1" fill-rule="nonzero"/><path fill="#08979d" d="M 67.519531 204.15625 C 64.617188 205.40625 43.039062 215.535156 33.082031 220.390625 C 34.328125 218.308594 39.304688 214.980469 40.550781 213.730469 C 41.792969 212.480469 46.359375 197.914062 46.359375 199.996094 C 46.359375 202.074219 43.871094 211.648438 45.113281 211.648438 C 46.359375 211.648438 63.785156 204.15625 67.519531 204.15625 Z M 67.519531 204.15625 " fill-opacity="1" fill-rule="nonzero"/><path fill="#08979d" d="M 76.234375 216.230469 C 58.640625 239.871094 44.285156 248.28125 39.304688 249.53125 L 48.019531 249.53125 C 62.957031 237.875 73.050781 222.472656 76.234375 216.230469 Z M 76.234375 216.230469 " fill-opacity="1" fill-rule="nonzero"/><path fill="#08979d" d="M 97.808594 212.066406 C 98.472656 220.058594 104.171875 230.105469 106.9375 234.128906 L 106.9375 237.875 C 100.628906 230.882812 98.222656 217.753906 97.808594 212.066406 Z M 97.808594 212.066406 " fill-opacity="1" fill-rule="nonzero"/><path fill="#08979d" d="M 105.691406 200.828125 C 108.015625 202.160156 112.191406 205.265625 113.992188 206.65625 L 107.351562 198.746094 C 107.019531 200.078125 106.105469 200.6875 105.691406 200.828125 Z M 105.691406 200.828125 " fill-opacity="1" fill-rule="nonzero"/><path fill="#ffffff" d="M 81.164062 185.46875 L 77.964844 216.75 C 77.929688 217.113281 78.25 217.414062 78.609375 217.347656 L 93.6875 214.632812 C 93.917969 214.589844 94.097656 214.40625 94.132812 214.171875 L 98.539062 184.4375 C 98.589844 184.089844 98.304688 183.785156 97.957031 183.808594 L 81.671875 184.976562 C 81.40625 184.996094 81.191406 185.203125 81.164062 185.46875 Z M 81.164062 185.46875 " fill-opacity="1" fill-rule="nonzero"/><path fill="#08979d" d="M 97.917969 183.261719 C 98.617188 183.210938 99.183594 183.824219 99.082031 184.519531 L 94.675781 214.253906 C 94.605469 214.722656 94.246094 215.089844 93.785156 215.175781 L 78.707031 217.890625 C 77.988281 218.019531 77.347656 217.421875 77.421875 216.695312 L 80.621094 185.414062 C 80.671875 184.882812 81.101562 184.464844 81.632812 184.425781 Z M 97.996094 184.359375 L 81.710938 185.523438 L 78.511719 216.808594 L 93.589844 214.09375 Z M 97.996094 184.359375 " fill-opacity="1" fill-rule="evenodd"/><path fill="#ffffff" d="M 102.785156 200.828125 L 97.808594 208.320312 C 91.167969 208.734375 89.925781 204.988281 91.167969 199.164062 C 92.164062 194.5 95.871094 194.445312 97.394531 195 L 98.222656 191.667969 C 102.785156 195.414062 102.785156 199.023438 102.785156 200.828125 Z M 102.785156 200.828125 " fill-opacity="1" fill-rule="nonzero"/><path fill="#08979d" d="M 97.902344 190.695312 L 98.570312 191.242188 C 100.921875 193.175781 102.125 195.09375 102.734375 196.792969 C 103.335938 198.476562 103.335938 199.90625 103.335938 200.820312 L 103.335938 200.992188 L 98.113281 208.851562 L 97.84375 208.871094 C 94.4375 209.082031 92.207031 208.238281 91.066406 206.371094 C 89.960938 204.5625 90.007812 201.980469 90.632812 199.046875 C 91.164062 196.558594 92.445312 195.222656 93.871094 194.617188 C 94.980469 194.144531 96.136719 194.140625 96.996094 194.320312 Z M 98.539062 192.667969 L 97.777344 195.726562 L 97.207031 195.515625 C 96.554688 195.28125 95.394531 195.164062 94.296875 195.632812 C 93.238281 196.082031 92.171875 197.101562 91.707031 199.277344 C 91.089844 202.171875 91.132812 204.375 92 205.796875 C 92.808594 207.113281 94.445312 207.925781 97.503906 207.785156 L 102.238281 200.660156 C 102.238281 199.777344 102.203125 198.570312 101.699219 197.164062 C 101.222656 195.824219 100.308594 194.277344 98.539062 192.667969 Z M 98.539062 192.667969 " fill-opacity="1" fill-rule="evenodd"/><path fill="#ffffff" d="M 73.742188 199.996094 C 72.746094 202.660156 70.839844 204.433594 70.007812 204.988281 L 75.402344 213.316406 C 77.0625 211.648438 79.136719 211.648438 83.699219 209.570312 C 88.265625 207.488281 89.507812 199.996094 88.265625 195.832031 C 87.269531 192.503906 81.488281 195 79.136719 196.664062 L 79.550781 192.085938 C 76.648438 193.335938 74.988281 196.664062 73.742188 199.996094 Z M 73.742188 199.996094 " fill-opacity="1" fill-rule="nonzero"/><path fill="#08979d" d="M 80.179688 191.214844 L 79.785156 195.597656 C 80.996094 194.890625 82.585938 194.171875 84.089844 193.839844 C 85.0625 193.621094 86.054688 193.550781 86.902344 193.792969 C 87.785156 194.050781 88.484375 194.648438 88.789062 195.675781 C 89.445312 197.871094 89.4375 200.890625 88.691406 203.625 C 87.941406 206.355469 86.421875 208.933594 83.925781 210.070312 C 82.074219 210.914062 80.617188 211.425781 79.453125 211.832031 C 79.167969 211.929688 78.898438 212.023438 78.648438 212.117188 C 77.363281 212.578125 76.53125 212.960938 75.789062 213.703125 L 75.3125 214.183594 L 69.253906 204.832031 L 69.703125 204.53125 C 70.457031 204.03125 72.28125 202.339844 73.230469 199.800781 C 73.855469 198.121094 74.601562 196.410156 75.570312 194.953125 C 76.539062 193.496094 77.753906 192.261719 79.335938 191.582031 Z M 76.480469 195.566406 C 75.582031 196.917969 74.875 198.535156 74.257812 200.1875 C 73.359375 202.589844 71.757812 204.304688 70.75 205.121094 L 75.515625 212.476562 C 76.308594 211.84375 77.199219 211.46875 78.277344 211.082031 C 78.539062 210.984375 78.816406 210.890625 79.105469 210.789062 C 80.265625 210.382812 81.667969 209.890625 83.472656 209.066406 C 85.542969 208.125 86.925781 205.914062 87.632812 203.335938 C 88.335938 200.765625 88.328125 197.957031 87.738281 195.988281 C 87.546875 195.351562 87.152344 195.011719 86.597656 194.851562 C 86.003906 194.679688 85.222656 194.710938 84.328125 194.914062 C 82.550781 195.308594 80.582031 196.3125 79.453125 197.113281 L 78.484375 197.800781 L 78.914062 193.046875 C 77.976562 193.648438 77.175781 194.515625 76.480469 195.566406 Z M 76.480469 195.566406 " fill-opacity="1" fill-rule="evenodd"/></svg>