<svg xmlns="http://www.w3.org/2000/svg" xmlns:xlink="http://www.w3.org/1999/xlink" width="50" zoomAndPan="magnify" viewBox="0 0 37.5 37.499999" height="50" preserveAspectRatio="xMidYMid meet" version="1.0"><defs><clipPath id="b82d66fbcf"><path d="M 2 2 L 37.007812 2 L 37.007812 37.007812 L 2 37.007812 Z M 2 2 " clip-rule="nonzero"/></clipPath><clipPath id="36046cece8"><path d="M 0 0 L 37.007812 0 L 37.007812 37.007812 L 0 37.007812 Z M 0 0 " clip-rule="nonzero"/></clipPath><clipPath id="a8bb6ae390"><path d="M 3.699219 3.699219 L 31.085938 3.699219 L 31.085938 32.566406 L 3.699219 32.566406 Z M 3.699219 3.699219 " clip-rule="nonzero"/></clipPath></defs><g clip-path="url(#b82d66fbcf)"><path fill="#f2cdfc" d="M 404.21875 203.570312 C 404.21875 314.40625 314.371094 404.253906 203.535156 404.253906 C 92.699219 404.253906 2.847656 314.40625 2.847656 203.570312 C 2.847656 92.734375 92.699219 2.886719 203.535156 2.886719 C 314.371094 2.886719 404.21875 92.734375 404.21875 203.570312 Z M 404.21875 203.570312 " fill-opacity="1" fill-rule="nonzero"/></g><g clip-path="url(#36046cece8)"><path fill="#000000" d="M 192.007812 95.460938 L 192.007812 82.167969 C 192.007812 78.210938 195.230469 74.988281 199.1875 74.988281 C 203.164062 74.988281 206.382812 78.210938 206.382812 82.167969 L 206.382812 95.460938 C 206.382812 99.421875 203.164062 102.640625 199.203125 102.640625 L 199.1875 102.640625 C 195.230469 102.640625 192.007812 99.421875 192.007812 95.460938 Z M 281.472656 130.398438 L 290.875 121 C 292.230469 119.644531 292.976562 117.839844 292.976562 115.921875 C 292.976562 114.003906 292.230469 112.203125 290.863281 110.835938 C 288.0625 108.035156 283.507812 108.035156 280.707031 110.835938 L 271.308594 120.234375 C 268.507812 123.035156 268.507812 127.589844 271.308594 130.390625 L 271.320312 130.398438 C 272.71875 131.800781 274.558594 132.5 276.394531 132.5 C 278.234375 132.5 280.074219 131.800781 281.472656 130.398438 Z M 323.15625 193.824219 L 309.863281 193.824219 C 305.90625 193.824219 302.683594 197.046875 302.683594 201.003906 L 302.683594 201.019531 C 302.683594 204.980469 305.90625 208.199219 309.863281 208.199219 L 323.15625 208.199219 C 327.117188 208.199219 330.335938 204.980469 330.335938 201.003906 C 330.335938 197.046875 327.117188 193.824219 323.15625 193.824219 Z M 285.089844 273.125 C 282.289062 270.324219 277.738281 270.324219 274.9375 273.125 L 274.925781 273.136719 C 272.125 275.933594 272.125 280.492188 274.925781 283.289062 L 284.324219 292.6875 C 285.722656 294.085938 287.558594 294.785156 289.398438 294.785156 C 291.238281 294.785156 293.082031 294.085938 294.488281 292.675781 C 297.289062 289.878906 297.289062 285.324219 294.488281 282.523438 Z M 204.320312 304.5 L 204.304688 304.5 C 200.34375 304.5 197.125 307.722656 197.125 311.679688 L 197.125 324.972656 C 197.125 328.933594 200.34375 332.152344 204.320312 332.152344 C 208.277344 332.152344 211.5 328.933594 211.5 324.972656 L 211.5 311.679688 C 211.5 307.722656 208.277344 304.5 204.320312 304.5 Z M 132.191406 276.742188 C 130.832031 275.386719 129.03125 274.636719 127.113281 274.636719 C 125.195312 274.636719 123.390625 275.386719 122.035156 276.742188 L 112.636719 286.140625 C 109.835938 288.941406 109.835938 293.496094 112.648438 296.304688 C 114.003906 297.664062 115.804688 298.410156 117.722656 298.410156 C 119.640625 298.410156 121.445312 297.664062 122.800781 296.304688 L 132.199219 286.90625 C 133.558594 285.550781 134.304688 283.746094 134.304688 281.828125 C 134.304688 279.910156 133.558594 278.109375 132.199219 276.753906 Z M 93.644531 198.941406 L 80.351562 198.941406 C 76.394531 198.941406 73.171875 202.160156 73.171875 206.136719 C 73.171875 210.09375 76.394531 213.316406 80.351562 213.316406 L 93.644531 213.316406 C 97.605469 213.316406 100.824219 210.09375 100.824219 206.136719 L 100.824219 206.121094 C 100.824219 202.160156 97.605469 198.941406 93.644531 198.941406 Z M 123.496094 136.121094 C 125.414062 136.121094 127.214844 135.375 128.535156 134.050781 L 128.546875 134.039062 C 128.558594 134.027344 128.570312 134.015625 128.582031 134.003906 C 131.382812 131.207031 131.382812 126.652344 128.582031 123.851562 L 119.183594 114.453125 C 117.828125 113.097656 116.023438 112.347656 114.105469 112.347656 C 112.1875 112.347656 110.386719 113.097656 109.019531 114.464844 C 107.664062 115.820312 106.914062 117.621094 106.914062 119.539062 C 106.914062 121.457031 107.664062 123.261719 109.019531 124.617188 L 118.417969 134.015625 C 119.773438 135.375 121.578125 136.121094 123.496094 136.121094 Z M 257.238281 248.375 C 258.40625 249.535156 259.054688 251.089844 259.054688 252.746094 C 259.058594 254.402344 258.414062 255.960938 257.242188 257.136719 C 256.074219 258.316406 254.515625 258.964844 252.855469 258.964844 C 251.203125 258.964844 249.644531 258.316406 248.46875 257.140625 L 209.183594 217.855469 C 206.957031 219.015625 204.433594 219.683594 201.753906 219.683594 C 192.871094 219.683594 185.640625 212.457031 185.640625 203.570312 C 185.640625 196.882812 189.738281 191.136719 195.550781 188.703125 L 195.550781 145.550781 C 195.550781 142.132812 198.332031 139.347656 201.753906 139.347656 C 203.414062 139.347656 204.972656 139.992188 206.144531 141.164062 C 207.3125 142.332031 207.957031 143.890625 207.957031 145.550781 L 207.957031 188.703125 C 213.773438 191.136719 217.867188 196.882812 217.867188 203.570312 C 217.867188 205.210938 217.617188 206.792969 217.160156 208.289062 Z M 212.167969 203.570312 C 212.167969 198.644531 208.722656 194.515625 204.117188 193.441406 C 203.890625 193.386719 203.65625 193.34375 203.421875 193.304688 C 203.261719 193.277344 203.101562 193.25 202.9375 193.230469 C 202.585938 193.191406 202.230469 193.167969 201.875 193.164062 C 201.835938 193.164062 201.796875 193.160156 201.753906 193.160156 C 201.714844 193.160156 201.675781 193.164062 201.636719 193.164062 C 201.28125 193.167969 200.921875 193.191406 200.570312 193.230469 C 200.40625 193.25 200.25 193.277344 200.089844 193.304688 C 199.855469 193.34375 199.621094 193.386719 199.390625 193.441406 C 194.785156 194.515625 191.34375 198.644531 191.34375 203.570312 C 191.34375 209.3125 196.011719 213.984375 201.753906 213.984375 C 204.136719 213.984375 206.328125 213.171875 208.082031 211.820312 C 208.3125 211.644531 208.53125 211.460938 208.742188 211.265625 C 208.839844 211.179688 208.941406 211.09375 209.035156 211 C 209.304688 210.738281 209.558594 210.464844 209.796875 210.175781 C 209.894531 210.058594 209.976562 209.933594 210.070312 209.808594 C 210.214844 209.621094 210.355469 209.425781 210.484375 209.226562 C 210.582031 209.074219 210.679688 208.914062 210.769531 208.753906 C 210.882812 208.5625 210.984375 208.363281 211.085938 208.164062 C 211.769531 206.777344 212.167969 205.21875 212.167969 203.570312 Z M 407.070312 203.570312 C 407.070312 257.9375 385.898438 309.050781 347.457031 347.492188 C 309.011719 385.933594 257.902344 407.105469 203.535156 407.105469 C 149.167969 407.105469 98.054688 385.933594 59.613281 347.492188 C 21.171875 309.050781 0 257.9375 0 203.570312 C 0 149.203125 21.171875 98.09375 59.613281 59.648438 C 98.054688 21.207031 149.167969 0.0351562 203.535156 0.0351562 C 257.902344 0.0351562 309.011719 21.207031 347.457031 59.648438 C 385.898438 98.09375 407.070312 149.203125 407.070312 203.570312 Z M 401.367188 203.570312 C 401.367188 150.726562 380.792969 101.046875 343.425781 63.679688 C 306.058594 26.316406 256.378906 5.734375 203.535156 5.734375 C 150.691406 5.734375 101.011719 26.316406 63.644531 63.679688 C 26.277344 101.046875 5.699219 150.726562 5.699219 203.570312 C 5.699219 256.414062 26.277344 306.09375 63.644531 343.460938 C 101.011719 380.828125 150.691406 401.40625 203.535156 401.40625 C 256.378906 401.40625 306.058594 380.828125 343.425781 343.460938 C 380.792969 306.09375 401.367188 256.414062 401.367188 203.570312 Z M 357.816406 203.570312 C 357.816406 288.640625 288.605469 357.851562 203.535156 357.851562 C 118.464844 357.851562 49.253906 288.640625 49.253906 203.570312 C 49.253906 118.5 118.464844 49.289062 203.535156 49.289062 C 288.605469 49.289062 357.816406 118.5 357.816406 203.570312 Z M 352.113281 203.570312 C 352.113281 121.644531 285.460938 54.992188 203.535156 54.992188 C 121.605469 54.992188 54.953125 121.644531 54.953125 203.570312 C 54.953125 285.496094 121.605469 352.152344 203.535156 352.152344 C 285.460938 352.152344 352.113281 285.496094 352.113281 203.570312 Z M 352.113281 203.570312 " fill-opacity="1" fill-rule="nonzero"/></g><g clip-path="url(#a8bb6ae390)"><path fill="#08979d" d="M 26.167969 6.570312 L 24.835938 6.570312 L 24.835938 4.578125 C 24.835938 4.097656 24.445312 3.714844 23.96875 3.714844 C 23.492188 3.714844 23.105469 4.101562 23.105469 4.578125 L 23.105469 6.574219 L 11.21875 6.574219 L 11.21875 4.578125 C 11.21875 4.097656 10.828125 3.714844 10.355469 3.714844 C 9.875 3.714844 9.488281 4.101562 9.488281 4.578125 L 9.488281 6.574219 L 8.648438 6.574219 C 5.917969 6.574219 3.699219 8.789062 3.699219 11.523438 L 3.699219 27.441406 C 3.699219 30.175781 5.917969 32.390625 8.648438 32.390625 L 26.167969 32.390625 C 28.902344 32.390625 31.117188 30.175781 31.117188 27.441406 L 31.117188 11.523438 C 31.121094 8.789062 28.902344 6.570312 26.167969 6.570312 Z M 23.101562 7.484375 L 23.101562 9.28125 C 23.101562 9.761719 23.492188 10.144531 23.964844 10.144531 C 24.445312 10.144531 24.832031 9.757812 24.832031 9.28125 L 24.832031 7.550781 C 25.382812 7.875 25.761719 8.472656 25.761719 9.160156 C 25.761719 10.183594 24.925781 11.019531 23.902344 11.019531 C 22.875 11.019531 22.042969 10.183594 22.042969 9.160156 C 22.050781 8.417969 22.480469 7.785156 23.101562 7.484375 Z M 9.484375 7.515625 L 9.484375 9.28125 C 9.484375 9.761719 9.875 10.144531 10.351562 10.144531 C 10.828125 10.144531 11.214844 9.757812 11.214844 9.28125 L 11.214844 7.515625 C 11.804688 7.828125 12.207031 8.445312 12.207031 9.15625 C 12.207031 10.179688 11.371094 11.015625 10.347656 11.015625 C 9.320312 11.015625 8.488281 10.179688 8.488281 9.15625 C 8.496094 8.445312 8.898438 7.828125 9.484375 7.515625 Z M 29.386719 27.4375 C 29.386719 29.214844 27.945312 30.652344 26.171875 30.652344 L 8.648438 30.652344 C 6.875 30.652344 5.433594 29.210938 5.433594 27.4375 L 5.433594 14.25 L 29.386719 14.25 Z M 29.386719 27.4375 " fill-opacity="1" fill-rule="nonzero"/></g><path fill="#08979d" d="M 11.246094 19.242188 L 8.847656 19.242188 C 8.652344 19.242188 8.496094 19.085938 8.496094 18.894531 L 8.496094 16.496094 C 8.496094 16.304688 8.652344 16.144531 8.847656 16.144531 L 11.246094 16.144531 C 11.4375 16.144531 11.59375 16.304688 11.59375 16.496094 L 11.59375 18.894531 C 11.589844 19.085938 11.4375 19.242188 11.246094 19.242188 Z M 11.246094 19.242188 " fill-opacity="1" fill-rule="nonzero"/><path fill="#08979d" d="M 11.246094 24.160156 L 8.847656 24.160156 C 8.652344 24.160156 8.496094 24.003906 8.496094 23.8125 L 8.496094 21.414062 C 8.496094 21.21875 8.652344 21.0625 8.847656 21.0625 L 11.246094 21.0625 C 11.4375 21.0625 11.59375 21.21875 11.59375 21.414062 L 11.59375 23.8125 C 11.589844 24.007812 11.4375 24.160156 11.246094 24.160156 Z M 11.246094 24.160156 " fill-opacity="1" fill-rule="nonzero"/><path fill="#08979d" d="M 11.246094 29.082031 L 8.847656 29.082031 C 8.652344 29.082031 8.496094 28.925781 8.496094 28.730469 L 8.496094 26.332031 C 8.496094 26.140625 8.652344 25.984375 8.847656 25.984375 L 11.246094 25.984375 C 11.4375 25.984375 11.59375 26.140625 11.59375 26.332031 L 11.59375 28.734375 C 11.589844 28.925781 11.4375 29.082031 11.246094 29.082031 Z M 11.246094 29.082031 " fill-opacity="1" fill-rule="nonzero"/><path fill="#08979d" d="M 16.160156 19.242188 L 13.761719 19.242188 C 13.570312 19.242188 13.414062 19.085938 13.414062 18.894531 L 13.414062 16.496094 C 13.414062 16.304688 13.570312 16.144531 13.761719 16.144531 L 16.160156 16.144531 C 16.355469 16.144531 16.511719 16.304688 16.511719 16.496094 L 16.511719 18.894531 C 16.511719 19.085938 16.355469 19.242188 16.160156 19.242188 Z M 16.160156 19.242188 " fill-opacity="1" fill-rule="nonzero"/><path fill="#08979d" d="M 16.160156 24.160156 L 13.761719 24.160156 C 13.570312 24.160156 13.414062 24.003906 13.414062 23.8125 L 13.414062 21.414062 C 13.414062 21.21875 13.570312 21.0625 13.761719 21.0625 L 16.160156 21.0625 C 16.355469 21.0625 16.511719 21.21875 16.511719 21.414062 L 16.511719 23.8125 C 16.511719 24.007812 16.355469 24.160156 16.160156 24.160156 Z M 16.160156 24.160156 " fill-opacity="1" fill-rule="nonzero"/><path fill="#08979d" d="M 16.160156 29.082031 L 13.761719 29.082031 C 13.570312 29.082031 13.414062 28.925781 13.414062 28.730469 L 13.414062 26.332031 C 13.414062 26.140625 13.570312 25.984375 13.761719 25.984375 L 16.160156 25.984375 C 16.355469 25.984375 16.511719 26.140625 16.511719 26.332031 L 16.511719 28.734375 C 16.511719 28.925781 16.355469 29.082031 16.160156 29.082031 Z M 16.160156 29.082031 " fill-opacity="1" fill-rule="nonzero"/><path fill="#08979d" d="M 21.082031 19.242188 L 18.683594 19.242188 C 18.492188 19.242188 18.335938 19.085938 18.335938 18.894531 L 18.335938 16.496094 C 18.335938 16.304688 18.492188 16.144531 18.683594 16.144531 L 21.082031 16.144531 C 21.273438 16.144531 21.433594 16.304688 21.433594 16.496094 L 21.433594 18.894531 C 21.429688 19.085938 21.273438 19.242188 21.082031 19.242188 Z M 21.082031 19.242188 " fill-opacity="1" fill-rule="nonzero"/><path fill="#08979d" d="M 21.082031 24.160156 L 18.683594 24.160156 C 18.492188 24.160156 18.335938 24.003906 18.335938 23.8125 L 18.335938 21.414062 C 18.335938 21.21875 18.492188 21.0625 18.683594 21.0625 L 21.082031 21.0625 C 21.273438 21.0625 21.433594 21.21875 21.433594 21.414062 L 21.433594 23.8125 C 21.429688 24.007812 21.273438 24.160156 21.082031 24.160156 Z M 21.082031 24.160156 " fill-opacity="1" fill-rule="nonzero"/><path fill="#08979d" d="M 21.082031 29.082031 L 18.683594 29.082031 C 18.492188 29.082031 18.335938 28.925781 18.335938 28.730469 L 18.335938 26.332031 C 18.335938 26.140625 18.492188 25.984375 18.683594 25.984375 L 21.082031 25.984375 C 21.273438 25.984375 21.433594 26.140625 21.433594 26.332031 L 21.433594 28.734375 C 21.429688 28.925781 21.273438 29.082031 21.082031 29.082031 Z M 21.082031 29.082031 " fill-opacity="1" fill-rule="nonzero"/><path fill="#08979d" d="M 26.003906 19.242188 L 23.605469 19.242188 C 23.414062 19.242188 23.253906 19.085938 23.253906 18.894531 L 23.253906 16.496094 C 23.253906 16.304688 23.414062 16.144531 23.605469 16.144531 L 26.003906 16.144531 C 26.195312 16.144531 26.351562 16.304688 26.351562 16.496094 L 26.351562 18.894531 C 26.347656 19.085938 26.191406 19.242188 26.003906 19.242188 Z M 26.003906 19.242188 " fill-opacity="1" fill-rule="nonzero"/><path fill="#08979d" d="M 26.003906 24.160156 L 23.605469 24.160156 C 23.414062 24.160156 23.253906 24.003906 23.253906 23.8125 L 23.253906 21.414062 C 23.253906 21.21875 23.414062 21.0625 23.605469 21.0625 L 26.003906 21.0625 C 26.195312 21.0625 26.351562 21.21875 26.351562 21.414062 L 26.351562 23.8125 C 26.347656 24.007812 26.191406 24.160156 26.003906 24.160156 Z M 26.003906 24.160156 " fill-opacity="1" fill-rule="nonzero"/></svg>