<svg xmlns="http://www.w3.org/2000/svg" xmlns:xlink="http://www.w3.org/1999/xlink" width="600" zoomAndPan="magnify" viewBox="0 0 224.87999 299.999988" height="700" preserveAspectRatio="xMidYMid meet" version="1.0"><defs><clipPath id="01c28dc0e0"><path d="M 84 72 L 184 72 L 184 249.507812 L 84 249.507812 Z M 84 72 " clip-rule="nonzero"/></clipPath><clipPath id="1573587d4c"><path d="M 171 105 L 224.761719 105 L 224.761719 132 L 171 132 Z M 171 105 " clip-rule="nonzero"/></clipPath><clipPath id="f183139022"><path d="M 170 104 L 224.761719 104 L 224.761719 133 L 170 133 Z M 170 104 " clip-rule="nonzero"/></clipPath><clipPath id="cc2dbd7d45"><path d="M 84 72 L 184 72 L 184 249.507812 L 84 249.507812 Z M 84 72 " clip-rule="nonzero"/></clipPath><clipPath id="6098749523"><path d="M 171 105 L 224.761719 105 L 224.761719 132 L 171 132 Z M 171 105 " clip-rule="nonzero"/></clipPath><clipPath id="a0708b3d11"><path d="M 170 104 L 224.761719 104 L 224.761719 133 L 170 133 Z M 170 104 " clip-rule="nonzero"/></clipPath></defs><path fill="#05585c" d="M 169.019531 248.574219 L 45.378906 248.574219 C 33.789062 248.574219 26.367188 236.234375 31.792969 225.992188 C 34.539062 220.804688 34.09375 214.503906 30.648438 209.753906 L 23.175781 199.464844 C 8.484375 179.226562 18.558594 150.542969 42.675781 143.941406 L 48.136719 142.445312 C 65.886719 137.585938 75.863281 118.765625 69.925781 101.347656 C 61.019531 75.222656 87.214844 50.867188 112.617188 61.65625 L 123.3125 66.195312 C 129.050781 68.632812 135.308594 69.585938 141.511719 68.964844 L 159.03125 67.214844 C 182.863281 64.832031 202.890625 84.90625 200.453125 108.738281 L 196.488281 147.503906 C 195.492188 157.261719 198.316406 167.023438 204.375 174.738281 L 208.476562 179.964844 C 221.53125 196.59375 218.441406 220.6875 201.617188 233.484375 L 191.929688 240.851562 C 185.339844 245.859375 177.292969 248.574219 169.019531 248.574219 Z M 169.019531 248.574219 " fill-opacity="1" fill-rule="nonzero"/><path fill="#ffffff" d="M 198.144531 247.28125 L 192.5 247.28125 C 197.824219 231.304688 204.417969 223.886719 208.164062 221.382812 C 208.871094 220.914062 209.691406 221.480469 209.617188 222.328125 C 208.566406 234.332031 201.636719 243.882812 198.144531 247.28125 Z M 198.144531 247.28125 " fill-opacity="1" fill-rule="nonzero"/><path fill="#08979d" d="M 208.855469 221.855469 C 208.953125 221.921875 209.042969 222.0625 209.027344 222.277344 C 208.007812 233.90625 201.371094 243.21875 197.898438 246.6875 L 193.328125 246.6875 C 198.582031 231.324219 204.957031 224.242188 208.496094 221.878906 C 208.644531 221.777344 208.769531 221.800781 208.855469 221.855469 Z M 209.511719 220.867188 C 209.03125 220.546875 208.386719 220.519531 207.835938 220.890625 C 203.9375 223.492188 197.285156 231.042969 191.933594 247.09375 L 191.675781 247.875 L 198.382812 247.875 L 198.558594 247.707031 C 202.121094 244.238281 209.140625 234.5625 210.210938 222.378906 C 210.265625 221.746094 209.984375 221.179688 209.511719 220.867188 Z M 209.511719 220.867188 " fill-opacity="1" fill-rule="evenodd"/><path fill="#08979d" d="M 210.871094 189.585938 C 213.710938 212.007812 199.933594 237.640625 192.5 247.875 L 184.179688 247.875 C 188.144531 205.597656 201.421875 191 208.945312 188.292969 C 209.855469 187.964844 210.75 188.625 210.871094 189.585938 Z M 210.871094 189.585938 " fill-opacity="1" fill-rule="nonzero"/><path fill="#ffffff" d="M 201.898438 205.417969 L 204.707031 196.890625 L 205.835938 197.261719 L 198.824219 218.550781 L 204.136719 216.140625 L 204.628906 217.222656 L 198.316406 220.085938 L 192.53125 237.65625 L 197.570312 235.164062 L 198.097656 236.226562 L 192.011719 239.238281 L 189.199219 247.765625 L 188.070312 247.394531 L 193.777344 230.070312 L 190.757812 222.546875 L 191.863281 222.105469 L 194.355469 228.320312 L 201.316406 207.191406 L 199.074219 201.449219 L 200.183594 201.019531 Z M 201.898438 205.417969 " fill-opacity="1" fill-rule="evenodd"/><path fill="#ffffff" d="M 197.09375 174.699219 C 205.992188 196.722656 194.695312 232.03125 187.746094 247.28125 L 177.941406 247.28125 C 178.160156 199.296875 188.496094 179.269531 194.84375 174.03125 C 195.621094 173.390625 196.71875 173.765625 197.09375 174.699219 Z M 197.09375 174.699219 " fill-opacity="1" fill-rule="nonzero"/><path fill="#08979d" d="M 195.222656 174.492188 C 195.636719 174.148438 196.289062 174.292969 196.542969 174.921875 C 200.925781 185.773438 200.351562 199.964844 197.777344 213.417969 C 195.246094 226.648438 190.800781 239.066406 187.363281 246.6875 L 178.539062 246.6875 C 178.691406 223.050781 181.308594 206.289062 184.664062 194.792969 C 188.058594 183.179688 192.183594 177 195.222656 174.492188 Z M 197.644531 174.476562 C 197.144531 173.238281 195.605469 172.632812 194.464844 173.574219 C 191.15625 176.304688 186.941406 182.753906 183.523438 194.460938 C 180.101562 206.1875 177.457031 223.246094 177.347656 247.28125 L 177.34375 247.875 L 188.128906 247.875 L 188.285156 247.527344 C 191.777344 239.867188 196.355469 227.179688 198.945312 213.640625 C 201.53125 200.121094 202.160156 185.648438 197.644531 174.476562 Z M 197.644531 174.476562 " fill-opacity="1" fill-rule="evenodd"/><path fill="#08979d" d="M 191.035156 197.90625 L 193.101562 185.6875 L 194.273438 185.886719 L 190.125 210.425781 L 195.152344 207.265625 L 195.785156 208.273438 L 189.859375 211.992188 L 186.378906 232.570312 L 190.15625 230.707031 L 190.683594 231.773438 L 186.136719 234.015625 L 183.875 247.382812 L 182.703125 247.183594 L 186.4375 225.089844 L 182.753906 217.539062 L 183.824219 217.015625 L 186.777344 223.078125 L 190.707031 199.847656 L 186.921875 192.597656 L 187.976562 192.046875 Z M 191.035156 197.90625 " fill-opacity="1" fill-rule="evenodd"/><path fill="#08979d" d="M 213.09375 150.167969 L 210.542969 153.433594 C 210.390625 153.632812 210.136719 153.726562 209.890625 153.679688 L 206.738281 153.089844 C 206.0625 152.964844 205.652344 153.816406 206.175781 154.265625 L 208.652344 156.390625 C 208.832031 156.546875 208.917969 156.785156 208.875 157.019531 L 208.253906 160.527344 C 208.136719 161.1875 208.949219 161.59375 209.410156 161.109375 L 211.953125 158.414062 C 212.101562 158.253906 212.316406 158.175781 212.53125 158.207031 L 215.476562 158.609375 C 216.136719 158.699219 216.511719 157.871094 216.011719 157.433594 L 213.820312 155.519531 C 213.644531 155.367188 213.5625 155.132812 213.597656 154.90625 L 214.289062 150.691406 C 214.402344 150.003906 213.523438 149.617188 213.09375 150.167969 Z M 213.09375 150.167969 " fill-opacity="1" fill-rule="nonzero"/><path fill="#08979d" d="M 26.777344 128.78125 L 27.308594 131.308594 C 27.339844 131.464844 27.285156 131.621094 27.164062 131.71875 L 25.613281 132.941406 C 25.28125 133.207031 25.523438 133.746094 25.949219 133.6875 L 27.957031 133.410156 C 28.105469 133.390625 28.253906 133.449219 28.347656 133.5625 L 29.769531 135.296875 C 30.039062 135.621094 30.558594 135.410156 30.511719 134.996094 L 30.246094 132.703125 C 30.230469 132.566406 30.28125 132.4375 30.382812 132.347656 L 31.757812 131.140625 C 32.066406 130.871094 31.824219 130.355469 31.410156 130.410156 L 29.621094 130.640625 C 29.476562 130.660156 29.332031 130.605469 29.238281 130.492188 L 27.507812 128.4375 C 27.222656 128.101562 26.6875 128.355469 26.777344 128.78125 Z M 26.777344 128.78125 " fill-opacity="1" fill-rule="nonzero"/><path fill="#ffffff" d="M 85.84375 81.625 C 85.84375 77.359375 89.300781 73.898438 93.566406 73.898438 L 174.683594 73.898438 C 178.949219 73.898438 182.40625 77.359375 182.40625 81.625 L 182.40625 240.230469 C 182.40625 244.496094 178.949219 247.957031 174.683594 247.957031 L 93.566406 247.957031 C 89.300781 247.957031 85.84375 244.496094 85.84375 240.230469 Z M 85.84375 81.625 " fill-opacity="1" fill-rule="evenodd"/><g clip-path="url(#01c28dc0e0)"><path fill="#08979d" d="M 84.65625 81.625 C 84.65625 76.703125 88.644531 72.710938 93.570312 72.710938 L 174.683594 72.710938 C 179.605469 72.710938 183.597656 76.703125 183.597656 81.625 L 183.597656 240.230469 C 183.597656 245.152344 179.605469 249.144531 174.683594 249.144531 L 93.570312 249.144531 C 88.644531 249.144531 84.65625 245.152344 84.65625 240.230469 Z M 93.570312 73.898438 C 89.300781 73.898438 85.84375 77.359375 85.84375 81.625 L 85.84375 240.230469 C 85.84375 244.496094 89.300781 247.957031 93.570312 247.957031 L 174.683594 247.957031 C 178.949219 247.957031 182.40625 244.496094 182.40625 240.230469 L 182.40625 81.625 C 182.40625 77.359375 178.949219 73.898438 174.683594 73.898438 Z M 93.570312 73.898438 " fill-opacity="1" fill-rule="evenodd"/></g><path fill="#08979d" d="M 86.4375 81.625 C 86.4375 77.6875 89.628906 74.492188 93.566406 74.492188 L 174.683594 74.492188 C 178.621094 74.492188 181.8125 77.6875 181.8125 81.625 L 181.8125 240.230469 C 181.8125 244.167969 178.621094 247.359375 174.683594 247.359375 L 93.566406 247.359375 C 89.628906 247.359375 86.4375 244.167969 86.4375 240.230469 Z M 86.4375 81.625 " fill-opacity="1" fill-rule="nonzero"/><path fill="#ffffff" d="M 152.589844 142.539062 C 152.996094 142.175781 153.597656 142.136719 154.050781 142.441406 L 170.289062 153.449219 C 170.613281 153.671875 170.808594 154.039062 170.808594 154.433594 L 170.808594 168.957031 C 170.808594 169.613281 170.277344 170.144531 169.621094 170.144531 L 124.898438 170.144531 C 123.808594 170.144531 123.292969 168.796875 124.105469 168.070312 Z M 152.589844 142.539062 " fill-opacity="1" fill-rule="nonzero"/><path fill="#05585c" d="M 146.449219 129.738281 C 146.449219 133.351562 143.523438 136.277344 139.914062 136.277344 C 136.304688 136.277344 133.378906 133.351562 133.378906 129.738281 C 133.378906 126.128906 136.304688 123.203125 139.914062 123.203125 C 143.523438 123.203125 146.449219 126.128906 146.449219 129.738281 Z M 146.449219 129.738281 " fill-opacity="1" fill-rule="nonzero"/><path fill="#ffffff" d="M 115.164062 80.289062 L 112.070312 74.492188 L 156.183594 74.492188 L 152.546875 80.550781 C 151.472656 82.339844 149.539062 83.433594 147.453125 83.433594 L 120.40625 83.433594 C 118.210938 83.433594 116.195312 82.226562 115.164062 80.289062 Z M 115.164062 80.289062 " fill-opacity="1" fill-rule="nonzero"/><path fill="#ffffff" d="M 180.910156 78.046875 L 87.03125 78.046875 C 89.113281 74.484375 92.761719 74.085938 93.867188 74.1875 L 173.78125 74.1875 C 179.214844 74.1875 180.109375 76.863281 180.910156 78.046875 Z M 180.910156 78.046875 " fill-opacity="1" fill-rule="nonzero"/><path fill="#ffffff" d="M 180.910156 243.820312 L 87.03125 243.820312 C 88.816406 245.898438 90.003906 247.375 93.3125 247.375 L 174.628906 247.375 C 178.632812 247.375 180.078125 245.003906 180.910156 243.820312 Z M 180.910156 243.820312 " fill-opacity="1" fill-rule="nonzero"/><path fill="#ffffff" d="M 100.105469 96.46875 C 100.105469 95.8125 100.636719 95.277344 101.292969 95.277344 L 122.683594 95.277344 C 123.339844 95.277344 123.871094 95.8125 123.871094 96.46875 L 123.871094 97.65625 C 123.871094 98.3125 123.339844 98.84375 122.683594 98.84375 L 101.292969 98.84375 C 100.636719 98.84375 100.105469 98.3125 100.105469 97.65625 Z M 100.105469 96.46875 " fill-opacity="1" fill-rule="nonzero"/><path fill="#ffffff" d="M 101.886719 187.96875 C 101.886719 187.3125 102.417969 186.78125 103.074219 186.78125 L 135.753906 186.78125 C 136.410156 186.78125 136.941406 187.3125 136.941406 187.96875 L 136.941406 189.15625 C 136.941406 189.8125 136.410156 190.34375 135.753906 190.34375 L 103.074219 190.34375 C 102.417969 190.34375 101.886719 189.8125 101.886719 189.15625 Z M 101.886719 187.96875 " fill-opacity="1" fill-rule="nonzero"/><path fill="#05585c" d="M 101.886719 225.402344 C 101.886719 224.746094 102.417969 224.210938 103.074219 224.210938 L 135.753906 224.210938 C 136.410156 224.210938 136.941406 224.746094 136.941406 225.402344 L 136.941406 226.589844 C 136.941406 227.246094 136.410156 227.777344 135.753906 227.777344 L 103.074219 227.777344 C 102.417969 227.777344 101.886719 227.246094 101.886719 226.589844 Z M 101.886719 225.402344 " fill-opacity="1" fill-rule="nonzero"/><path fill="#05585c" d="M 101.886719 204.011719 C 101.886719 203.355469 102.417969 202.824219 103.074219 202.824219 L 165.460938 202.824219 C 166.117188 202.824219 166.652344 203.355469 166.652344 204.011719 L 166.652344 205.199219 C 166.652344 205.855469 166.117188 206.386719 165.460938 206.386719 L 103.074219 206.386719 C 102.417969 206.386719 101.886719 205.855469 101.886719 205.199219 Z M 101.886719 204.011719 " fill-opacity="1" fill-rule="nonzero"/><path fill="#05585c" d="M 101.886719 214.109375 C 101.886719 213.453125 102.417969 212.921875 103.074219 212.921875 L 165.460938 212.921875 C 166.117188 212.921875 166.652344 213.453125 166.652344 214.109375 L 166.652344 215.300781 C 166.652344 215.957031 166.117188 216.488281 165.460938 216.488281 L 103.074219 216.488281 C 102.417969 216.488281 101.886719 215.957031 101.886719 215.300781 Z M 101.886719 214.109375 " fill-opacity="1" fill-rule="nonzero"/><path fill="#05585c" d="M 97.132812 110.132812 C 97.132812 109.148438 97.933594 108.351562 98.917969 108.351562 L 169.621094 108.351562 C 170.605469 108.351562 171.402344 109.148438 171.402344 110.132812 L 171.402344 168.957031 C 171.402344 169.941406 170.605469 170.738281 169.621094 170.738281 L 98.917969 170.738281 C 97.933594 170.738281 97.132812 169.941406 97.132812 168.957031 Z M 98.917969 109.539062 C 98.589844 109.539062 98.320312 109.804688 98.320312 110.132812 L 98.320312 168.957031 C 98.320312 169.285156 98.589844 169.550781 98.917969 169.550781 L 169.621094 169.550781 C 169.949219 169.550781 170.214844 169.285156 170.214844 168.957031 L 170.214844 110.132812 C 170.214844 109.804688 169.949219 109.539062 169.621094 109.539062 Z M 98.917969 109.539062 " fill-opacity="1" fill-rule="evenodd"/><path fill="#05585c" d="M 97.726562 154.082031 C 97.726562 153.71875 97.894531 153.375 98.179688 153.148438 L 119.828125 136 C 120.277344 135.644531 120.914062 135.65625 121.347656 136.035156 L 158.023438 168.058594 C 158.851562 168.78125 158.339844 170.144531 157.242188 170.144531 L 98.914062 170.144531 C 98.257812 170.144531 97.726562 169.613281 97.726562 168.957031 Z M 97.726562 154.082031 " fill-opacity="1" fill-rule="nonzero"/><path fill="#05585c" d="M 120.957031 136.484375 C 120.742188 136.292969 120.421875 136.285156 120.199219 136.464844 L 98.546875 153.617188 C 98.40625 153.726562 98.320312 153.898438 98.320312 154.082031 L 98.320312 168.957031 C 98.320312 169.285156 98.589844 169.550781 98.917969 169.550781 L 157.246094 169.550781 C 157.792969 169.550781 158.046875 168.867188 157.636719 168.507812 Z M 119.460938 135.53125 C 120.132812 135 121.089844 135.023438 121.738281 135.585938 L 158.417969 167.613281 C 159.65625 168.695312 158.890625 170.738281 157.246094 170.738281 L 98.917969 170.738281 C 97.933594 170.738281 97.132812 169.941406 97.132812 168.957031 L 97.132812 154.082031 C 97.132812 153.535156 97.382812 153.023438 97.808594 152.683594 Z M 119.460938 135.53125 " fill-opacity="1" fill-rule="evenodd"/><path fill="#ffffff" d="M 173.929688 82.988281 L 175.117188 82.988281 L 175.117188 87.847656 L 173.929688 87.847656 Z M 173.929688 82.988281 " fill-opacity="1" fill-rule="evenodd"/><path fill="#ffffff" d="M 170.890625 83.59375 L 172.078125 83.59375 L 172.078125 87.847656 L 170.890625 87.847656 Z M 170.890625 83.59375 " fill-opacity="1" fill-rule="evenodd"/><path fill="#ffffff" d="M 167.851562 84.808594 L 169.042969 84.808594 L 169.042969 87.847656 L 167.851562 87.847656 Z M 167.851562 84.808594 " fill-opacity="1" fill-rule="evenodd"/><path fill="#ffffff" d="M 164.816406 86.023438 L 166.003906 86.023438 L 166.003906 87.847656 L 164.816406 87.847656 Z M 164.816406 86.023438 " fill-opacity="1" fill-rule="evenodd"/><path fill="#08979d" d="M 40.519531 111.914062 C 48.488281 111.914062 54.949219 105.53125 54.949219 97.65625 C 54.949219 89.78125 48.488281 83.394531 40.519531 83.394531 C 38.695312 83.394531 36.949219 83.730469 35.339844 84.339844 C 38.792969 84.878906 45.699219 88.292969 45.699219 97.65625 C 45.699219 107.015625 38.792969 110.429688 35.339844 110.96875 C 36.949219 111.582031 38.695312 111.914062 40.519531 111.914062 Z M 40.519531 111.914062 " fill-opacity="1" fill-rule="nonzero"/><g clip-path="url(#1573587d4c)"><path fill="#ffffff" d="M 171.402344 107.160156 C 171.402344 106.175781 172.203125 105.378906 173.1875 105.378906 L 222.5 105.378906 C 223.484375 105.378906 224.285156 106.175781 224.285156 107.160156 L 224.285156 129.738281 C 224.285156 130.722656 223.484375 131.523438 222.5 131.523438 L 173.1875 131.523438 C 172.203125 131.523438 171.402344 130.722656 171.402344 129.738281 Z M 171.402344 107.160156 " fill-opacity="1" fill-rule="nonzero"/></g><g clip-path="url(#f183139022)"><path fill="#08979d" d="M 170.808594 107.160156 C 170.808594 105.847656 171.871094 104.785156 173.1875 104.785156 L 222.5 104.785156 C 223.8125 104.785156 224.878906 105.847656 224.878906 107.160156 L 224.878906 129.738281 C 224.878906 131.050781 223.8125 132.117188 222.5 132.117188 L 173.1875 132.117188 C 171.871094 132.117188 170.808594 131.050781 170.808594 129.738281 Z M 173.1875 105.972656 C 172.527344 105.972656 171.996094 106.503906 171.996094 107.160156 L 171.996094 129.738281 C 171.996094 130.394531 172.527344 130.929688 173.1875 130.929688 L 222.5 130.929688 C 223.15625 130.929688 223.691406 130.394531 223.691406 129.738281 L 223.691406 107.160156 C 223.691406 106.503906 223.15625 105.972656 222.5 105.972656 Z M 173.1875 105.972656 " fill-opacity="1" fill-rule="evenodd"/></g><path fill="#08979d" d="M 176.15625 118.449219 C 176.15625 114.511719 179.347656 111.320312 183.285156 111.320312 L 212.402344 111.320312 C 216.339844 111.320312 219.53125 114.511719 219.53125 118.449219 C 219.53125 122.390625 216.339844 125.582031 212.402344 125.582031 L 183.285156 125.582031 C 179.347656 125.582031 176.15625 122.390625 176.15625 118.449219 Z M 176.15625 118.449219 " fill-opacity="1" fill-rule="nonzero"/><path fill="#ffffff" d="M 217.152344 118.449219 C 217.152344 121.40625 214.628906 123.796875 211.507812 123.796875 C 208.390625 123.796875 205.867188 121.40625 205.867188 118.449219 C 205.867188 115.496094 208.390625 113.105469 211.507812 113.105469 C 214.628906 113.105469 217.152344 115.496094 217.152344 118.449219 Z M 217.152344 118.449219 " fill-opacity="1" fill-rule="nonzero"/><path fill="#08979d" d="M 211.714844 122.015625 C 213.40625 122.015625 214.777344 120.421875 214.777344 118.453125 C 214.777344 116.480469 213.40625 114.886719 211.714844 114.886719 C 211.328125 114.886719 210.960938 114.96875 210.617188 115.121094 C 211.351562 115.257812 212.816406 116.109375 212.816406 118.453125 C 212.816406 120.792969 211.351562 121.644531 210.617188 121.78125 C 210.960938 121.933594 211.328125 122.015625 211.714844 122.015625 Z M 211.714844 122.015625 " fill-opacity="1" fill-rule="nonzero"/><path fill="#ffffff" d="M 53.039062 131.363281 C 43.832031 137.871094 47.699219 149.449219 49.433594 153.933594 L 48.675781 163.089844 C 49.460938 165.96875 52.316406 171.734375 57.441406 171.734375 C 62.566406 171.734375 64.914062 166.8125 65.449219 164.355469 L 64.648438 157.40625 C 70.652344 155.238281 71.054688 146.554688 70.652344 139.609375 C 70.175781 131.363281 61.148438 125.625 53.039062 131.363281 Z M 53.039062 131.363281 " fill-opacity="1" fill-rule="nonzero"/><path fill="#08979d" d="M 64.433594 130.769531 C 61.300781 129.125 57.257812 129.105469 53.378906 131.847656 C 48.976562 134.960938 47.695312 139.269531 47.726562 143.402344 C 47.757812 147.558594 49.125 151.492188 49.988281 153.722656 L 50.039062 153.847656 L 49.277344 163.03125 C 49.667969 164.410156 50.535156 166.433594 51.894531 168.117188 C 53.285156 169.84375 55.125 171.140625 57.441406 171.140625 C 59.789062 171.140625 61.5 170.023438 62.710938 168.582031 C 63.898438 167.171875 64.578125 165.476562 64.847656 164.324219 L 64.003906 157.007812 L 64.445312 156.847656 C 67.175781 155.863281 68.695312 153.382812 69.472656 150.160156 C 70.253906 146.9375 70.257812 143.105469 70.058594 139.644531 C 69.832031 135.730469 67.578125 132.417969 64.433594 130.769531 Z M 48.082031 163.035156 L 48.832031 154.023438 C 47.953125 151.742188 46.570312 147.710938 46.539062 143.414062 C 46.503906 139.007812 47.890625 134.273438 52.695312 130.875 C 56.929688 127.882812 61.453125 127.863281 64.984375 129.714844 C 68.496094 131.558594 70.996094 135.242188 71.246094 139.574219 C 71.445312 143.0625 71.453125 147.039062 70.628906 150.4375 C 69.84375 153.679688 68.277344 156.511719 65.289062 157.792969 L 66.050781 164.382812 L 66.027344 164.480469 C 65.746094 165.785156 64.988281 167.722656 63.621094 169.347656 C 62.242188 170.984375 60.21875 172.328125 57.441406 172.328125 C 54.632812 172.328125 52.484375 170.742188 50.96875 168.863281 C 49.519531 167.066406 48.589844 164.933594 48.15625 163.4375 L 48.042969 163.425781 Z M 48.082031 163.035156 " fill-opacity="1" fill-rule="evenodd"/><path fill="#ffffff" d="M 56.953125 168.453125 C 62.964844 168.453125 65.789062 164.761719 66.449219 162.914062 C 77.917969 162.914062 87.414062 170.828125 91.765625 176.363281 C 96.117188 181.902344 112.332031 211.175781 108.378906 223.042969 C 105.214844 232.535156 97.566406 233.988281 93.347656 233.328125 L 94.03125 245.6875 C 94.089844 246.707031 93.277344 247.566406 92.253906 247.566406 L 34.40625 247.566406 C 28.339844 247.964844 15.101562 248.121094 10.671875 245.589844 C 5.132812 242.425781 -0.0078125 226.207031 10.671875 194.167969 C 19.214844 168.53125 39.285156 162.652344 48.25 162.914062 C 48.648438 164.761719 50.941406 168.453125 56.953125 168.453125 Z M 56.953125 168.453125 " fill-opacity="1" fill-rule="nonzero"/><path fill="#08979d" d="M 10.109375 193.976562 C 18.746094 168.0625 39.078125 162.050781 48.269531 162.320312 L 48.734375 162.335938 L 48.832031 162.792969 C 49.171875 164.382812 51.238281 167.859375 56.953125 167.859375 C 62.6875 167.859375 65.304688 164.351562 65.886719 162.714844 L 66.027344 162.320312 L 66.445312 162.320312 C 78.179688 162.320312 87.824219 170.390625 92.230469 175.996094 C 94.449219 178.824219 99.617188 187.578125 103.730469 197.09375 C 105.792969 201.859375 107.597656 206.839844 108.640625 211.390625 C 109.679688 215.914062 109.984375 220.105469 108.941406 223.230469 C 107.3125 228.117188 104.507812 230.980469 101.53125 232.519531 C 98.878906 233.890625 96.117188 234.203125 93.980469 234.003906 L 94.625 245.652344 C 94.703125 247.015625 93.617188 248.164062 92.253906 248.164062 L 34.425781 248.164062 C 31.375 248.359375 26.535156 248.5 21.894531 248.269531 C 19.570312 248.15625 17.285156 247.949219 15.296875 247.609375 C 13.320312 247.269531 11.578125 246.792969 10.375 246.105469 C 8.84375 245.230469 7.414062 243.5 6.289062 240.96875 C 5.164062 238.425781 4.324219 235.03125 3.996094 230.75 C 3.347656 222.195312 4.75 210.050781 10.109375 193.976562 Z M 47.792969 163.503906 C 38.84375 163.445312 19.546875 169.417969 11.234375 194.355469 C 5.910156 210.324219 4.546875 222.308594 5.183594 230.664062 C 5.5 234.839844 6.316406 238.09375 7.375 240.484375 C 8.441406 242.882812 9.730469 244.367188 10.964844 245.074219 C 11.980469 245.65625 13.554688 246.105469 15.496094 246.4375 C 17.421875 246.765625 19.65625 246.96875 21.953125 247.082031 C 26.550781 247.308594 31.351562 247.171875 34.367188 246.976562 L 34.386719 246.972656 L 92.253906 246.972656 C 92.933594 246.972656 93.476562 246.402344 93.441406 245.71875 L 92.710938 232.628906 L 93.4375 232.742188 C 95.441406 233.054688 98.277344 232.867188 100.984375 231.464844 C 103.675781 230.074219 106.277344 227.460938 107.8125 222.855469 C 108.75 220.046875 108.507812 216.128906 107.484375 211.65625 C 106.460938 207.203125 104.683594 202.292969 102.640625 197.566406 C 98.546875 188.097656 93.429688 179.445312 91.296875 176.730469 C 87.050781 171.328125 77.878906 163.695312 66.84375 163.511719 C 65.890625 165.632812 62.859375 169.046875 56.953125 169.046875 C 51.078125 169.046875 48.488281 165.664062 47.792969 163.503906 Z M 47.792969 163.503906 " fill-opacity="1" fill-rule="evenodd"/><path fill="#08979d" d="M 28.148438 247.589844 C 18.609375 235.96875 8.527344 231.820312 4.679688 231.199219 C 4.679688 234.925781 6.542969 242.003906 9.894531 245.355469 C 12.574219 248.039062 23.179688 247.964844 28.148438 247.589844 Z M 28.148438 247.589844 " fill-opacity="1" fill-rule="nonzero"/><path fill="#08979d" d="M 101.90625 231.945312 C 108.164062 229.5625 109.234375 221.019531 108.984375 217.042969 C 103.320312 219.726562 95.699219 228.839844 92.59375 233.0625 C 93.089844 233.683594 95.648438 234.328125 101.90625 231.945312 Z M 101.90625 231.945312 " fill-opacity="1" fill-rule="nonzero"/><path fill="#08979d" d="M 56.164062 204.847656 C 53.394531 206.035156 32.824219 215.660156 23.332031 220.273438 C 24.515625 218.296875 29.265625 215.132812 30.449219 213.945312 C 31.636719 212.757812 35.988281 198.914062 35.988281 200.890625 C 35.988281 202.867188 33.613281 211.96875 34.800781 211.96875 C 35.988281 211.96875 52.601562 204.847656 56.164062 204.847656 Z M 56.164062 204.847656 " fill-opacity="1" fill-rule="nonzero"/><path fill="#08979d" d="M 64.46875 216.316406 C 47.699219 238.785156 34.011719 246.777344 29.265625 247.964844 L 37.570312 247.964844 C 51.8125 236.886719 61.4375 222.25 64.46875 216.316406 Z M 64.46875 216.316406 " fill-opacity="1" fill-rule="nonzero"/><path fill="#08979d" d="M 85.039062 212.363281 C 85.671875 219.957031 91.105469 229.503906 93.742188 233.328125 L 93.742188 236.886719 C 87.730469 230.242188 85.433594 217.769531 85.039062 212.363281 Z M 85.039062 212.363281 " fill-opacity="1" fill-rule="nonzero"/><path fill="#08979d" d="M 92.554688 201.683594 C 94.769531 202.949219 98.753906 205.902344 100.46875 207.21875 L 94.136719 199.703125 C 93.820312 200.96875 92.949219 201.550781 92.554688 201.683594 Z M 92.554688 201.683594 " fill-opacity="1" fill-rule="nonzero"/><path fill="#ffffff" d="M 69.164062 187.148438 L 66.132812 216.71875 C 66.089844 217.113281 66.4375 217.433594 66.828125 217.367188 L 81.058594 214.8125 C 81.308594 214.765625 81.503906 214.566406 81.542969 214.3125 L 85.722656 186.195312 C 85.777344 185.820312 85.46875 185.488281 85.089844 185.515625 L 69.714844 186.613281 C 69.425781 186.636719 69.195312 186.859375 69.164062 187.148438 Z M 69.164062 187.148438 " fill-opacity="1" fill-rule="nonzero"/><path fill="#08979d" d="M 85.046875 184.921875 C 85.808594 184.871094 86.421875 185.53125 86.308594 186.285156 L 82.128906 214.402344 C 82.054688 214.90625 81.664062 215.304688 81.164062 215.394531 L 66.933594 217.949219 C 66.15625 218.089844 65.460938 217.445312 65.542969 216.660156 L 68.574219 187.085938 C 68.632812 186.511719 69.097656 186.0625 69.671875 186.023438 Z M 85.132812 186.109375 L 69.757812 187.207031 L 66.722656 216.78125 L 80.953125 214.226562 Z M 85.132812 186.109375 " fill-opacity="1" fill-rule="evenodd"/><path fill="#ffffff" d="M 89.785156 201.683594 L 85.039062 208.800781 C 78.710938 209.199219 77.523438 205.636719 78.710938 200.097656 C 79.660156 195.667969 83.191406 195.617188 84.644531 196.144531 L 85.433594 192.980469 C 89.785156 196.539062 89.785156 199.96875 89.785156 201.683594 Z M 89.785156 201.683594 " fill-opacity="1" fill-rule="nonzero"/><path fill="#08979d" d="M 85.085938 191.925781 L 85.8125 192.519531 C 88.0625 194.363281 89.21875 196.195312 89.800781 197.824219 C 90.378906 199.4375 90.378906 200.804688 90.378906 201.671875 L 90.378906 201.863281 L 85.371094 209.375 L 85.078125 209.394531 C 81.816406 209.597656 79.65625 208.792969 78.550781 206.984375 C 77.480469 205.246094 77.53125 202.765625 78.128906 199.976562 C 78.640625 197.59375 79.875 196.300781 81.257812 195.714844 C 82.304688 195.273438 83.386719 195.253906 84.214844 195.414062 Z M 85.777344 194.0625 L 85.058594 196.925781 L 84.441406 196.703125 C 83.835938 196.480469 82.746094 196.375 81.722656 196.808594 C 80.734375 197.226562 79.730469 198.175781 79.289062 200.222656 C 78.703125 202.96875 78.75 205.042969 79.5625 206.367188 C 80.308594 207.582031 81.828125 208.351562 84.710938 208.222656 L 89.191406 201.503906 C 89.1875 200.667969 89.15625 199.539062 88.683594 198.222656 C 88.238281 196.988281 87.398438 195.554688 85.777344 194.0625 Z M 85.777344 194.0625 " fill-opacity="1" fill-rule="evenodd"/><path fill="#08979d" d="M 49.722656 151.664062 L 48.925781 159.535156 C 48.660156 158.953125 48.046875 157.261719 47.730469 155.164062 C 47.332031 152.539062 40.949219 142.484375 42.945312 135.050781 C 44.539062 129.101562 48.925781 129.363281 50.921875 130.238281 C 52.117188 128.050781 59.296875 120.617188 69.664062 121.492188 C 80.035156 122.367188 81.230469 137.234375 72.855469 139.421875 C 66.15625 141.171875 58.632812 140.152344 55.707031 139.421875 C 55.441406 140.003906 54.667969 141.957031 53.710938 145.105469 C 52.515625 149.042969 52.515625 149.917969 52.117188 147.292969 C 51.71875 144.667969 50.121094 139.859375 48.128906 144.667969 C 46.53125 148.515625 48.527344 150.9375 49.722656 151.664062 Z M 49.722656 151.664062 " fill-opacity="1" fill-rule="nonzero"/><path fill="#08979d" d="M 55.515625 157.25 C 58.261719 158.867188 62.503906 157.921875 64.285156 157.25 L 64.664062 160.078125 C 60.699219 161.046875 56.914062 158.597656 55.515625 157.25 Z M 55.515625 157.25 " fill-opacity="1" fill-rule="nonzero"/><path fill="#ffffff" d="M 62.097656 200.890625 C 61.148438 203.421875 59.328125 205.109375 58.535156 205.636719 L 63.679688 213.550781 C 65.261719 211.96875 67.238281 211.96875 71.589844 209.988281 C 75.941406 208.011719 77.128906 200.890625 75.941406 196.933594 C 74.992188 193.769531 69.480469 196.144531 67.238281 197.726562 L 67.632812 193.375 C 64.863281 194.5625 63.28125 197.726562 62.097656 200.890625 Z M 62.097656 200.890625 " fill-opacity="1" fill-rule="nonzero"/><path fill="#08979d" d="M 68.316406 192.4375 L 67.9375 196.582031 C 69.082031 195.929688 70.554688 195.28125 71.945312 194.96875 C 72.875 194.761719 73.835938 194.691406 74.660156 194.929688 C 75.523438 195.179688 76.210938 195.765625 76.511719 196.765625 C 77.140625 198.867188 77.132812 201.75 76.414062 204.359375 C 75.699219 206.964844 74.238281 209.4375 71.835938 210.53125 C 70.066406 211.335938 68.671875 211.820312 67.5625 212.207031 C 67.289062 212.300781 67.035156 212.390625 66.796875 212.476562 C 65.574219 212.914062 64.792969 213.277344 64.097656 213.96875 L 63.578125 214.488281 L 57.71875 205.46875 L 58.207031 205.144531 C 58.914062 204.671875 60.640625 203.078125 61.539062 200.683594 C 62.140625 199.085938 62.847656 197.453125 63.777344 196.0625 C 64.707031 194.667969 65.875 193.484375 67.398438 192.828125 Z M 64.765625 196.71875 C 63.914062 198 63.242188 199.53125 62.652344 201.097656 C 61.804688 203.355469 60.308594 204.980469 59.335938 205.777344 L 63.800781 212.648438 C 64.554688 212.066406 65.390625 211.71875 66.394531 211.359375 C 66.644531 211.265625 66.910156 211.175781 67.1875 211.078125 C 68.292969 210.691406 69.628906 210.226562 71.34375 209.449219 C 73.289062 208.5625 74.597656 206.488281 75.269531 204.046875 C 75.9375 201.613281 75.929688 198.960938 75.371094 197.105469 C 75.195312 196.523438 74.839844 196.21875 74.332031 196.070312 C 73.785156 195.914062 73.050781 195.941406 72.203125 196.128906 C 70.519531 196.503906 68.652344 197.457031 67.582031 198.210938 L 66.53125 198.953125 L 66.941406 194.429688 C 66.109375 194.988281 65.394531 195.777344 64.765625 196.71875 Z M 64.765625 196.71875 " fill-opacity="1" fill-rule="evenodd"/><path fill="#05585c" d="M 169.019531 248.574219 L 45.378906 248.574219 C 33.789062 248.574219 26.367188 236.234375 31.792969 225.992188 C 34.539062 220.804688 34.09375 214.503906 30.648438 209.753906 L 23.175781 199.464844 C 8.484375 179.226562 18.558594 150.542969 42.675781 143.941406 L 48.136719 142.445312 C 65.886719 137.585938 75.863281 118.765625 69.925781 101.347656 C 61.019531 75.222656 87.214844 50.867188 112.617188 61.65625 L 123.3125 66.195312 C 129.050781 68.632812 135.308594 69.585938 141.511719 68.964844 L 159.03125 67.214844 C 182.863281 64.832031 202.890625 84.90625 200.453125 108.738281 L 196.488281 147.503906 C 195.492188 157.261719 198.316406 167.023438 204.375 174.738281 L 208.476562 179.964844 C 221.53125 196.59375 218.441406 220.6875 201.617188 233.484375 L 191.929688 240.851562 C 185.339844 245.859375 177.292969 248.574219 169.019531 248.574219 Z M 169.019531 248.574219 " fill-opacity="1" fill-rule="nonzero"/><path fill="#ffffff" d="M 198.144531 247.28125 L 192.5 247.28125 C 197.824219 231.304688 204.417969 223.886719 208.164062 221.382812 C 208.871094 220.914062 209.691406 221.480469 209.617188 222.328125 C 208.566406 234.332031 201.636719 243.882812 198.144531 247.28125 Z M 198.144531 247.28125 " fill-opacity="1" fill-rule="nonzero"/><path fill="#08979d" d="M 208.855469 221.855469 C 208.953125 221.921875 209.042969 222.0625 209.027344 222.277344 C 208.007812 233.90625 201.371094 243.21875 197.898438 246.6875 L 193.328125 246.6875 C 198.582031 231.324219 204.957031 224.242188 208.496094 221.878906 C 208.644531 221.777344 208.769531 221.800781 208.855469 221.855469 Z M 209.511719 220.867188 C 209.03125 220.546875 208.386719 220.519531 207.835938 220.890625 C 203.9375 223.492188 197.285156 231.042969 191.933594 247.09375 L 191.675781 247.875 L 198.382812 247.875 L 198.558594 247.707031 C 202.121094 244.238281 209.140625 234.5625 210.210938 222.378906 C 210.265625 221.746094 209.984375 221.179688 209.511719 220.867188 Z M 209.511719 220.867188 " fill-opacity="1" fill-rule="evenodd"/><path fill="#08979d" d="M 210.871094 189.585938 C 213.710938 212.007812 199.933594 237.640625 192.5 247.875 L 184.179688 247.875 C 188.144531 205.597656 201.421875 191 208.945312 188.292969 C 209.855469 187.964844 210.75 188.625 210.871094 189.585938 Z M 210.871094 189.585938 " fill-opacity="1" fill-rule="nonzero"/><path fill="#ffffff" d="M 201.898438 205.417969 L 204.707031 196.890625 L 205.835938 197.261719 L 198.824219 218.550781 L 204.136719 216.140625 L 204.628906 217.222656 L 198.316406 220.085938 L 192.53125 237.65625 L 197.570312 235.164062 L 198.097656 236.226562 L 192.011719 239.238281 L 189.199219 247.765625 L 188.070312 247.394531 L 193.777344 230.070312 L 190.757812 222.546875 L 191.863281 222.105469 L 194.355469 228.320312 L 201.316406 207.191406 L 199.074219 201.449219 L 200.183594 201.019531 Z M 201.898438 205.417969 " fill-opacity="1" fill-rule="evenodd"/><path fill="#ffffff" d="M 197.09375 174.699219 C 205.992188 196.722656 194.695312 232.03125 187.746094 247.28125 L 177.941406 247.28125 C 178.160156 199.296875 188.496094 179.269531 194.84375 174.03125 C 195.621094 173.390625 196.71875 173.765625 197.09375 174.699219 Z M 197.09375 174.699219 " fill-opacity="1" fill-rule="nonzero"/><path fill="#08979d" d="M 195.222656 174.492188 C 195.636719 174.148438 196.289062 174.292969 196.542969 174.921875 C 200.925781 185.773438 200.351562 199.964844 197.777344 213.417969 C 195.246094 226.648438 190.800781 239.066406 187.363281 246.6875 L 178.539062 246.6875 C 178.691406 223.050781 181.308594 206.289062 184.664062 194.792969 C 188.058594 183.179688 192.183594 177 195.222656 174.492188 Z M 197.644531 174.476562 C 197.144531 173.238281 195.605469 172.632812 194.464844 173.574219 C 191.15625 176.304688 186.941406 182.753906 183.523438 194.460938 C 180.101562 206.1875 177.457031 223.246094 177.347656 247.28125 L 177.34375 247.875 L 188.128906 247.875 L 188.285156 247.527344 C 191.777344 239.867188 196.355469 227.179688 198.945312 213.640625 C 201.53125 200.121094 202.160156 185.648438 197.644531 174.476562 Z M 197.644531 174.476562 " fill-opacity="1" fill-rule="evenodd"/><path fill="#08979d" d="M 191.035156 197.90625 L 193.101562 185.6875 L 194.273438 185.886719 L 190.125 210.425781 L 195.152344 207.265625 L 195.785156 208.273438 L 189.859375 211.992188 L 186.378906 232.570312 L 190.15625 230.707031 L 190.683594 231.773438 L 186.136719 234.015625 L 183.875 247.382812 L 182.703125 247.183594 L 186.4375 225.089844 L 182.753906 217.539062 L 183.824219 217.015625 L 186.777344 223.078125 L 190.707031 199.847656 L 186.921875 192.597656 L 187.976562 192.046875 Z M 191.035156 197.90625 " fill-opacity="1" fill-rule="evenodd"/><path fill="#08979d" d="M 213.09375 150.167969 L 210.542969 153.433594 C 210.390625 153.632812 210.136719 153.726562 209.890625 153.679688 L 206.738281 153.089844 C 206.0625 152.964844 205.652344 153.816406 206.175781 154.265625 L 208.652344 156.390625 C 208.832031 156.546875 208.917969 156.785156 208.875 157.019531 L 208.253906 160.527344 C 208.136719 161.1875 208.949219 161.59375 209.410156 161.109375 L 211.953125 158.414062 C 212.101562 158.253906 212.316406 158.175781 212.53125 158.207031 L 215.476562 158.609375 C 216.136719 158.699219 216.511719 157.871094 216.011719 157.433594 L 213.820312 155.519531 C 213.644531 155.367188 213.5625 155.132812 213.597656 154.90625 L 214.289062 150.691406 C 214.402344 150.003906 213.523438 149.617188 213.09375 150.167969 Z M 213.09375 150.167969 " fill-opacity="1" fill-rule="nonzero"/><path fill="#08979d" d="M 26.777344 128.78125 L 27.308594 131.308594 C 27.339844 131.464844 27.285156 131.621094 27.164062 131.71875 L 25.613281 132.941406 C 25.28125 133.207031 25.523438 133.746094 25.949219 133.6875 L 27.957031 133.410156 C 28.105469 133.390625 28.253906 133.449219 28.347656 133.5625 L 29.769531 135.296875 C 30.039062 135.621094 30.558594 135.410156 30.511719 134.996094 L 30.246094 132.703125 C 30.230469 132.566406 30.28125 132.4375 30.382812 132.347656 L 31.757812 131.140625 C 32.066406 130.871094 31.824219 130.355469 31.410156 130.410156 L 29.621094 130.640625 C 29.476562 130.660156 29.332031 130.605469 29.238281 130.492188 L 27.507812 128.4375 C 27.222656 128.101562 26.6875 128.355469 26.777344 128.78125 Z M 26.777344 128.78125 " fill-opacity="1" fill-rule="nonzero"/><path fill="#ffffff" d="M 85.84375 81.625 C 85.84375 77.359375 89.300781 73.898438 93.566406 73.898438 L 174.683594 73.898438 C 178.949219 73.898438 182.40625 77.359375 182.40625 81.625 L 182.40625 240.230469 C 182.40625 244.496094 178.949219 247.957031 174.683594 247.957031 L 93.566406 247.957031 C 89.300781 247.957031 85.84375 244.496094 85.84375 240.230469 Z M 85.84375 81.625 " fill-opacity="1" fill-rule="evenodd"/><g clip-path="url(#cc2dbd7d45)"><path fill="#08979d" d="M 84.65625 81.625 C 84.65625 76.703125 88.644531 72.710938 93.570312 72.710938 L 174.683594 72.710938 C 179.605469 72.710938 183.597656 76.703125 183.597656 81.625 L 183.597656 240.230469 C 183.597656 245.152344 179.605469 249.144531 174.683594 249.144531 L 93.570312 249.144531 C 88.644531 249.144531 84.65625 245.152344 84.65625 240.230469 Z M 93.570312 73.898438 C 89.300781 73.898438 85.84375 77.359375 85.84375 81.625 L 85.84375 240.230469 C 85.84375 244.496094 89.300781 247.957031 93.570312 247.957031 L 174.683594 247.957031 C 178.949219 247.957031 182.40625 244.496094 182.40625 240.230469 L 182.40625 81.625 C 182.40625 77.359375 178.949219 73.898438 174.683594 73.898438 Z M 93.570312 73.898438 " fill-opacity="1" fill-rule="evenodd"/></g><path fill="#08979d" d="M 86.4375 81.625 C 86.4375 77.6875 89.628906 74.492188 93.566406 74.492188 L 174.683594 74.492188 C 178.621094 74.492188 181.8125 77.6875 181.8125 81.625 L 181.8125 240.230469 C 181.8125 244.167969 178.621094 247.359375 174.683594 247.359375 L 93.566406 247.359375 C 89.628906 247.359375 86.4375 244.167969 86.4375 240.230469 Z M 86.4375 81.625 " fill-opacity="1" fill-rule="nonzero"/><path fill="#ffffff" d="M 152.589844 142.539062 C 152.996094 142.175781 153.597656 142.136719 154.050781 142.441406 L 170.289062 153.449219 C 170.613281 153.671875 170.808594 154.039062 170.808594 154.433594 L 170.808594 168.957031 C 170.808594 169.613281 170.277344 170.144531 169.621094 170.144531 L 124.898438 170.144531 C 123.808594 170.144531 123.292969 168.796875 124.105469 168.070312 Z M 152.589844 142.539062 " fill-opacity="1" fill-rule="nonzero"/><path fill="#05585c" d="M 146.449219 129.738281 C 146.449219 133.351562 143.523438 136.277344 139.914062 136.277344 C 136.304688 136.277344 133.378906 133.351562 133.378906 129.738281 C 133.378906 126.128906 136.304688 123.203125 139.914062 123.203125 C 143.523438 123.203125 146.449219 126.128906 146.449219 129.738281 Z M 146.449219 129.738281 " fill-opacity="1" fill-rule="nonzero"/><path fill="#ffffff" d="M 115.164062 80.289062 L 112.070312 74.492188 L 156.183594 74.492188 L 152.546875 80.550781 C 151.472656 82.339844 149.539062 83.433594 147.453125 83.433594 L 120.40625 83.433594 C 118.210938 83.433594 116.195312 82.226562 115.164062 80.289062 Z M 115.164062 80.289062 " fill-opacity="1" fill-rule="nonzero"/><path fill="#ffffff" d="M 180.910156 78.046875 L 87.03125 78.046875 C 89.113281 74.484375 92.761719 74.085938 93.867188 74.1875 L 173.78125 74.1875 C 179.214844 74.1875 180.109375 76.863281 180.910156 78.046875 Z M 180.910156 78.046875 " fill-opacity="1" fill-rule="nonzero"/><path fill="#ffffff" d="M 180.910156 243.820312 L 87.03125 243.820312 C 88.816406 245.898438 90.003906 247.375 93.3125 247.375 L 174.628906 247.375 C 178.632812 247.375 180.078125 245.003906 180.910156 243.820312 Z M 180.910156 243.820312 " fill-opacity="1" fill-rule="nonzero"/><path fill="#ffffff" d="M 100.105469 96.46875 C 100.105469 95.8125 100.636719 95.277344 101.292969 95.277344 L 122.683594 95.277344 C 123.339844 95.277344 123.871094 95.8125 123.871094 96.46875 L 123.871094 97.65625 C 123.871094 98.3125 123.339844 98.84375 122.683594 98.84375 L 101.292969 98.84375 C 100.636719 98.84375 100.105469 98.3125 100.105469 97.65625 Z M 100.105469 96.46875 " fill-opacity="1" fill-rule="nonzero"/><path fill="#ffffff" d="M 101.886719 187.96875 C 101.886719 187.3125 102.417969 186.78125 103.074219 186.78125 L 135.753906 186.78125 C 136.410156 186.78125 136.941406 187.3125 136.941406 187.96875 L 136.941406 189.15625 C 136.941406 189.8125 136.410156 190.34375 135.753906 190.34375 L 103.074219 190.34375 C 102.417969 190.34375 101.886719 189.8125 101.886719 189.15625 Z M 101.886719 187.96875 " fill-opacity="1" fill-rule="nonzero"/><path fill="#05585c" d="M 101.886719 225.402344 C 101.886719 224.746094 102.417969 224.210938 103.074219 224.210938 L 135.753906 224.210938 C 136.410156 224.210938 136.941406 224.746094 136.941406 225.402344 L 136.941406 226.589844 C 136.941406 227.246094 136.410156 227.777344 135.753906 227.777344 L 103.074219 227.777344 C 102.417969 227.777344 101.886719 227.246094 101.886719 226.589844 Z M 101.886719 225.402344 " fill-opacity="1" fill-rule="nonzero"/><path fill="#05585c" d="M 101.886719 204.011719 C 101.886719 203.355469 102.417969 202.824219 103.074219 202.824219 L 165.460938 202.824219 C 166.117188 202.824219 166.652344 203.355469 166.652344 204.011719 L 166.652344 205.199219 C 166.652344 205.855469 166.117188 206.386719 165.460938 206.386719 L 103.074219 206.386719 C 102.417969 206.386719 101.886719 205.855469 101.886719 205.199219 Z M 101.886719 204.011719 " fill-opacity="1" fill-rule="nonzero"/><path fill="#05585c" d="M 101.886719 214.109375 C 101.886719 213.453125 102.417969 212.921875 103.074219 212.921875 L 165.460938 212.921875 C 166.117188 212.921875 166.652344 213.453125 166.652344 214.109375 L 166.652344 215.300781 C 166.652344 215.957031 166.117188 216.488281 165.460938 216.488281 L 103.074219 216.488281 C 102.417969 216.488281 101.886719 215.957031 101.886719 215.300781 Z M 101.886719 214.109375 " fill-opacity="1" fill-rule="nonzero"/><path fill="#05585c" d="M 97.132812 110.132812 C 97.132812 109.148438 97.933594 108.351562 98.917969 108.351562 L 169.621094 108.351562 C 170.605469 108.351562 171.402344 109.148438 171.402344 110.132812 L 171.402344 168.957031 C 171.402344 169.941406 170.605469 170.738281 169.621094 170.738281 L 98.917969 170.738281 C 97.933594 170.738281 97.132812 169.941406 97.132812 168.957031 Z M 98.917969 109.539062 C 98.589844 109.539062 98.320312 109.804688 98.320312 110.132812 L 98.320312 168.957031 C 98.320312 169.285156 98.589844 169.550781 98.917969 169.550781 L 169.621094 169.550781 C 169.949219 169.550781 170.214844 169.285156 170.214844 168.957031 L 170.214844 110.132812 C 170.214844 109.804688 169.949219 109.539062 169.621094 109.539062 Z M 98.917969 109.539062 " fill-opacity="1" fill-rule="evenodd"/><path fill="#05585c" d="M 97.726562 154.082031 C 97.726562 153.71875 97.894531 153.375 98.179688 153.148438 L 119.828125 136 C 120.277344 135.644531 120.914062 135.65625 121.347656 136.035156 L 158.023438 168.058594 C 158.851562 168.78125 158.339844 170.144531 157.242188 170.144531 L 98.914062 170.144531 C 98.257812 170.144531 97.726562 169.613281 97.726562 168.957031 Z M 97.726562 154.082031 " fill-opacity="1" fill-rule="nonzero"/><path fill="#05585c" d="M 120.957031 136.484375 C 120.742188 136.292969 120.421875 136.285156 120.199219 136.464844 L 98.546875 153.617188 C 98.40625 153.726562 98.320312 153.898438 98.320312 154.082031 L 98.320312 168.957031 C 98.320312 169.285156 98.589844 169.550781 98.917969 169.550781 L 157.246094 169.550781 C 157.792969 169.550781 158.046875 168.867188 157.636719 168.507812 Z M 119.460938 135.53125 C 120.132812 135 121.089844 135.023438 121.738281 135.585938 L 158.417969 167.613281 C 159.65625 168.695312 158.890625 170.738281 157.246094 170.738281 L 98.917969 170.738281 C 97.933594 170.738281 97.132812 169.941406 97.132812 168.957031 L 97.132812 154.082031 C 97.132812 153.535156 97.382812 153.023438 97.808594 152.683594 Z M 119.460938 135.53125 " fill-opacity="1" fill-rule="evenodd"/><path fill="#ffffff" d="M 173.929688 82.988281 L 175.117188 82.988281 L 175.117188 87.847656 L 173.929688 87.847656 Z M 173.929688 82.988281 " fill-opacity="1" fill-rule="evenodd"/><path fill="#ffffff" d="M 170.890625 83.59375 L 172.078125 83.59375 L 172.078125 87.847656 L 170.890625 87.847656 Z M 170.890625 83.59375 " fill-opacity="1" fill-rule="evenodd"/><path fill="#ffffff" d="M 167.851562 84.808594 L 169.042969 84.808594 L 169.042969 87.847656 L 167.851562 87.847656 Z M 167.851562 84.808594 " fill-opacity="1" fill-rule="evenodd"/><path fill="#ffffff" d="M 164.816406 86.023438 L 166.003906 86.023438 L 166.003906 87.847656 L 164.816406 87.847656 Z M 164.816406 86.023438 " fill-opacity="1" fill-rule="evenodd"/><path fill="#08979d" d="M 40.519531 111.914062 C 48.488281 111.914062 54.949219 105.53125 54.949219 97.65625 C 54.949219 89.78125 48.488281 83.394531 40.519531 83.394531 C 38.695312 83.394531 36.949219 83.730469 35.339844 84.339844 C 38.792969 84.878906 45.699219 88.292969 45.699219 97.65625 C 45.699219 107.015625 38.792969 110.429688 35.339844 110.96875 C 36.949219 111.582031 38.695312 111.914062 40.519531 111.914062 Z M 40.519531 111.914062 " fill-opacity="1" fill-rule="nonzero"/><g clip-path="url(#6098749523)"><path fill="#ffffff" d="M 171.402344 107.160156 C 171.402344 106.175781 172.203125 105.378906 173.1875 105.378906 L 222.5 105.378906 C 223.484375 105.378906 224.285156 106.175781 224.285156 107.160156 L 224.285156 129.738281 C 224.285156 130.722656 223.484375 131.523438 222.5 131.523438 L 173.1875 131.523438 C 172.203125 131.523438 171.402344 130.722656 171.402344 129.738281 Z M 171.402344 107.160156 " fill-opacity="1" fill-rule="nonzero"/></g><g clip-path="url(#a0708b3d11)"><path fill="#08979d" d="M 170.808594 107.160156 C 170.808594 105.847656 171.871094 104.785156 173.1875 104.785156 L 222.5 104.785156 C 223.8125 104.785156 224.878906 105.847656 224.878906 107.160156 L 224.878906 129.738281 C 224.878906 131.050781 223.8125 132.117188 222.5 132.117188 L 173.1875 132.117188 C 171.871094 132.117188 170.808594 131.050781 170.808594 129.738281 Z M 173.1875 105.972656 C 172.527344 105.972656 171.996094 106.503906 171.996094 107.160156 L 171.996094 129.738281 C 171.996094 130.394531 172.527344 130.929688 173.1875 130.929688 L 222.5 130.929688 C 223.15625 130.929688 223.691406 130.394531 223.691406 129.738281 L 223.691406 107.160156 C 223.691406 106.503906 223.15625 105.972656 222.5 105.972656 Z M 173.1875 105.972656 " fill-opacity="1" fill-rule="evenodd"/></g><path fill="#08979d" d="M 176.15625 118.449219 C 176.15625 114.511719 179.347656 111.320312 183.285156 111.320312 L 212.402344 111.320312 C 216.339844 111.320312 219.53125 114.511719 219.53125 118.449219 C 219.53125 122.390625 216.339844 125.582031 212.402344 125.582031 L 183.285156 125.582031 C 179.347656 125.582031 176.15625 122.390625 176.15625 118.449219 Z M 176.15625 118.449219 " fill-opacity="1" fill-rule="nonzero"/><path fill="#ffffff" d="M 217.152344 118.449219 C 217.152344 121.40625 214.628906 123.796875 211.507812 123.796875 C 208.390625 123.796875 205.867188 121.40625 205.867188 118.449219 C 205.867188 115.496094 208.390625 113.105469 211.507812 113.105469 C 214.628906 113.105469 217.152344 115.496094 217.152344 118.449219 Z M 217.152344 118.449219 " fill-opacity="1" fill-rule="nonzero"/><path fill="#08979d" d="M 211.714844 122.015625 C 213.40625 122.015625 214.777344 120.421875 214.777344 118.453125 C 214.777344 116.480469 213.40625 114.886719 211.714844 114.886719 C 211.328125 114.886719 210.960938 114.96875 210.617188 115.121094 C 211.351562 115.257812 212.816406 116.109375 212.816406 118.453125 C 212.816406 120.792969 211.351562 121.644531 210.617188 121.78125 C 210.960938 121.933594 211.328125 122.015625 211.714844 122.015625 Z M 211.714844 122.015625 " fill-opacity="1" fill-rule="nonzero"/><path fill="#ffffff" d="M 53.039062 131.363281 C 43.832031 137.871094 47.699219 149.449219 49.433594 153.933594 L 48.675781 163.089844 C 49.460938 165.96875 52.316406 171.734375 57.441406 171.734375 C 62.566406 171.734375 64.914062 166.8125 65.449219 164.355469 L 64.648438 157.40625 C 70.652344 155.238281 71.054688 146.554688 70.652344 139.609375 C 70.175781 131.363281 61.148438 125.625 53.039062 131.363281 Z M 53.039062 131.363281 " fill-opacity="1" fill-rule="nonzero"/><path fill="#08979d" d="M 64.433594 130.769531 C 61.300781 129.125 57.257812 129.105469 53.378906 131.847656 C 48.976562 134.960938 47.695312 139.269531 47.726562 143.402344 C 47.757812 147.558594 49.125 151.492188 49.988281 153.722656 L 50.039062 153.847656 L 49.277344 163.03125 C 49.667969 164.410156 50.535156 166.433594 51.894531 168.117188 C 53.285156 169.84375 55.125 171.140625 57.441406 171.140625 C 59.789062 171.140625 61.5 170.023438 62.710938 168.582031 C 63.898438 167.171875 64.578125 165.476562 64.847656 164.324219 L 64.003906 157.007812 L 64.445312 156.847656 C 67.175781 155.863281 68.695312 153.382812 69.472656 150.160156 C 70.253906 146.9375 70.257812 143.105469 70.058594 139.644531 C 69.832031 135.730469 67.578125 132.417969 64.433594 130.769531 Z M 48.082031 163.035156 L 48.832031 154.023438 C 47.953125 151.742188 46.570312 147.710938 46.539062 143.414062 C 46.503906 139.007812 47.890625 134.273438 52.695312 130.875 C 56.929688 127.882812 61.453125 127.863281 64.984375 129.714844 C 68.496094 131.558594 70.996094 135.242188 71.246094 139.574219 C 71.445312 143.0625 71.453125 147.039062 70.628906 150.4375 C 69.84375 153.679688 68.277344 156.511719 65.289062 157.792969 L 66.050781 164.382812 L 66.027344 164.480469 C 65.746094 165.785156 64.988281 167.722656 63.621094 169.347656 C 62.242188 170.984375 60.21875 172.328125 57.441406 172.328125 C 54.632812 172.328125 52.484375 170.742188 50.96875 168.863281 C 49.519531 167.066406 48.589844 164.933594 48.15625 163.4375 L 48.042969 163.425781 Z M 48.082031 163.035156 " fill-opacity="1" fill-rule="evenodd"/><path fill="#ffffff" d="M 56.953125 168.453125 C 62.964844 168.453125 65.789062 164.761719 66.449219 162.914062 C 77.917969 162.914062 87.414062 170.828125 91.765625 176.363281 C 96.117188 181.902344 112.332031 211.175781 108.378906 223.042969 C 105.214844 232.535156 97.566406 233.988281 93.347656 233.328125 L 94.03125 245.6875 C 94.089844 246.707031 93.277344 247.566406 92.253906 247.566406 L 34.40625 247.566406 C 28.339844 247.964844 15.101562 248.121094 10.671875 245.589844 C 5.132812 242.425781 -0.0078125 226.207031 10.671875 194.167969 C 19.214844 168.53125 39.285156 162.652344 48.25 162.914062 C 48.648438 164.761719 50.941406 168.453125 56.953125 168.453125 Z M 56.953125 168.453125 " fill-opacity="1" fill-rule="nonzero"/><path fill="#08979d" d="M 10.109375 193.976562 C 18.746094 168.0625 39.078125 162.050781 48.269531 162.320312 L 48.734375 162.335938 L 48.832031 162.792969 C 49.171875 164.382812 51.238281 167.859375 56.953125 167.859375 C 62.6875 167.859375 65.304688 164.351562 65.886719 162.714844 L 66.027344 162.320312 L 66.445312 162.320312 C 78.179688 162.320312 87.824219 170.390625 92.230469 175.996094 C 94.449219 178.824219 99.617188 187.578125 103.730469 197.09375 C 105.792969 201.859375 107.597656 206.839844 108.640625 211.390625 C 109.679688 215.914062 109.984375 220.105469 108.941406 223.230469 C 107.3125 228.117188 104.507812 230.980469 101.53125 232.519531 C 98.878906 233.890625 96.117188 234.203125 93.980469 234.003906 L 94.625 245.652344 C 94.703125 247.015625 93.617188 248.164062 92.253906 248.164062 L 34.425781 248.164062 C 31.375 248.359375 26.535156 248.5 21.894531 248.269531 C 19.570312 248.15625 17.285156 247.949219 15.296875 247.609375 C 13.320312 247.269531 11.578125 246.792969 10.375 246.105469 C 8.84375 245.230469 7.414062 243.5 6.289062 240.96875 C 5.164062 238.425781 4.324219 235.03125 3.996094 230.75 C 3.347656 222.195312 4.75 210.050781 10.109375 193.976562 Z M 47.792969 163.503906 C 38.84375 163.445312 19.546875 169.417969 11.234375 194.355469 C 5.910156 210.324219 4.546875 222.308594 5.183594 230.664062 C 5.5 234.839844 6.316406 238.09375 7.375 240.484375 C 8.441406 242.882812 9.730469 244.367188 10.964844 245.074219 C 11.980469 245.65625 13.554688 246.105469 15.496094 246.4375 C 17.421875 246.765625 19.65625 246.96875 21.953125 247.082031 C 26.550781 247.308594 31.351562 247.171875 34.367188 246.976562 L 34.386719 246.972656 L 92.253906 246.972656 C 92.933594 246.972656 93.476562 246.402344 93.441406 245.71875 L 92.710938 232.628906 L 93.4375 232.742188 C 95.441406 233.054688 98.277344 232.867188 100.984375 231.464844 C 103.675781 230.074219 106.277344 227.460938 107.8125 222.855469 C 108.75 220.046875 108.507812 216.128906 107.484375 211.65625 C 106.460938 207.203125 104.683594 202.292969 102.640625 197.566406 C 98.546875 188.097656 93.429688 179.445312 91.296875 176.730469 C 87.050781 171.328125 77.878906 163.695312 66.84375 163.511719 C 65.890625 165.632812 62.859375 169.046875 56.953125 169.046875 C 51.078125 169.046875 48.488281 165.664062 47.792969 163.503906 Z M 47.792969 163.503906 " fill-opacity="1" fill-rule="evenodd"/><path fill="#08979d" d="M 28.148438 247.589844 C 18.609375 235.96875 8.527344 231.820312 4.679688 231.199219 C 4.679688 234.925781 6.542969 242.003906 9.894531 245.355469 C 12.574219 248.039062 23.179688 247.964844 28.148438 247.589844 Z M 28.148438 247.589844 " fill-opacity="1" fill-rule="nonzero"/><path fill="#08979d" d="M 101.90625 231.945312 C 108.164062 229.5625 109.234375 221.019531 108.984375 217.042969 C 103.320312 219.726562 95.699219 228.839844 92.59375 233.0625 C 93.089844 233.683594 95.648438 234.328125 101.90625 231.945312 Z M 101.90625 231.945312 " fill-opacity="1" fill-rule="nonzero"/><path fill="#08979d" d="M 56.164062 204.847656 C 53.394531 206.035156 32.824219 215.660156 23.332031 220.273438 C 24.515625 218.296875 29.265625 215.132812 30.449219 213.945312 C 31.636719 212.757812 35.988281 198.914062 35.988281 200.890625 C 35.988281 202.867188 33.613281 211.96875 34.800781 211.96875 C 35.988281 211.96875 52.601562 204.847656 56.164062 204.847656 Z M 56.164062 204.847656 " fill-opacity="1" fill-rule="nonzero"/><path fill="#08979d" d="M 64.46875 216.316406 C 47.699219 238.785156 34.011719 246.777344 29.265625 247.964844 L 37.570312 247.964844 C 51.8125 236.886719 61.4375 222.25 64.46875 216.316406 Z M 64.46875 216.316406 " fill-opacity="1" fill-rule="nonzero"/><path fill="#08979d" d="M 85.039062 212.363281 C 85.671875 219.957031 91.105469 229.503906 93.742188 233.328125 L 93.742188 236.886719 C 87.730469 230.242188 85.433594 217.769531 85.039062 212.363281 Z M 85.039062 212.363281 " fill-opacity="1" fill-rule="nonzero"/><path fill="#08979d" d="M 92.554688 201.683594 C 94.769531 202.949219 98.753906 205.902344 100.46875 207.21875 L 94.136719 199.703125 C 93.820312 200.96875 92.949219 201.550781 92.554688 201.683594 Z M 92.554688 201.683594 " fill-opacity="1" fill-rule="nonzero"/><path fill="#ffffff" d="M 69.164062 187.148438 L 66.132812 216.71875 C 66.089844 217.113281 66.4375 217.433594 66.828125 217.367188 L 81.058594 214.8125 C 81.308594 214.765625 81.503906 214.566406 81.542969 214.3125 L 85.722656 186.195312 C 85.777344 185.820312 85.46875 185.488281 85.089844 185.515625 L 69.714844 186.613281 C 69.425781 186.636719 69.195312 186.859375 69.164062 187.148438 Z M 69.164062 187.148438 " fill-opacity="1" fill-rule="nonzero"/><path fill="#08979d" d="M 85.046875 184.921875 C 85.808594 184.871094 86.421875 185.53125 86.308594 186.285156 L 82.128906 214.402344 C 82.054688 214.90625 81.664062 215.304688 81.164062 215.394531 L 66.933594 217.949219 C 66.15625 218.089844 65.460938 217.445312 65.542969 216.660156 L 68.574219 187.085938 C 68.632812 186.511719 69.097656 186.0625 69.671875 186.023438 Z M 85.132812 186.109375 L 69.757812 187.207031 L 66.722656 216.78125 L 80.953125 214.226562 Z M 85.132812 186.109375 " fill-opacity="1" fill-rule="evenodd"/><path fill="#ffffff" d="M 89.785156 201.683594 L 85.039062 208.800781 C 78.710938 209.199219 77.523438 205.636719 78.710938 200.097656 C 79.660156 195.667969 83.191406 195.617188 84.644531 196.144531 L 85.433594 192.980469 C 89.785156 196.539062 89.785156 199.96875 89.785156 201.683594 Z M 89.785156 201.683594 " fill-opacity="1" fill-rule="nonzero"/><path fill="#08979d" d="M 85.085938 191.925781 L 85.8125 192.519531 C 88.0625 194.363281 89.21875 196.195312 89.800781 197.824219 C 90.378906 199.4375 90.378906 200.804688 90.378906 201.671875 L 90.378906 201.863281 L 85.371094 209.375 L 85.078125 209.394531 C 81.816406 209.597656 79.65625 208.792969 78.550781 206.984375 C 77.480469 205.246094 77.53125 202.765625 78.128906 199.976562 C 78.640625 197.59375 79.875 196.300781 81.257812 195.714844 C 82.304688 195.273438 83.386719 195.253906 84.214844 195.414062 Z M 85.777344 194.0625 L 85.058594 196.925781 L 84.441406 196.703125 C 83.835938 196.480469 82.746094 196.375 81.722656 196.808594 C 80.734375 197.226562 79.730469 198.175781 79.289062 200.222656 C 78.703125 202.96875 78.75 205.042969 79.5625 206.367188 C 80.308594 207.582031 81.828125 208.351562 84.710938 208.222656 L 89.191406 201.503906 C 89.1875 200.667969 89.15625 199.539062 88.683594 198.222656 C 88.238281 196.988281 87.398438 195.554688 85.777344 194.0625 Z M 85.777344 194.0625 " fill-opacity="1" fill-rule="evenodd"/><path fill="#08979d" d="M 49.722656 151.664062 L 48.925781 159.535156 C 48.660156 158.953125 48.046875 157.261719 47.730469 155.164062 C 47.332031 152.539062 40.949219 142.484375 42.945312 135.050781 C 44.539062 129.101562 48.925781 129.363281 50.921875 130.238281 C 52.117188 128.050781 59.296875 120.617188 69.664062 121.492188 C 80.035156 122.367188 81.230469 137.234375 72.855469 139.421875 C 66.15625 141.171875 58.632812 140.152344 55.707031 139.421875 C 55.441406 140.003906 54.667969 141.957031 53.710938 145.105469 C 52.515625 149.042969 52.515625 149.917969 52.117188 147.292969 C 51.71875 144.667969 50.121094 139.859375 48.128906 144.667969 C 46.53125 148.515625 48.527344 150.9375 49.722656 151.664062 Z M 49.722656 151.664062 " fill-opacity="1" fill-rule="nonzero"/><path fill="#08979d" d="M 55.515625 157.25 C 58.261719 158.867188 62.503906 157.921875 64.285156 157.25 L 64.664062 160.078125 C 60.699219 161.046875 56.914062 158.597656 55.515625 157.25 Z M 55.515625 157.25 " fill-opacity="1" fill-rule="nonzero"/><path fill="#ffffff" d="M 62.097656 200.890625 C 61.148438 203.421875 59.328125 205.109375 58.535156 205.636719 L 63.679688 213.550781 C 65.261719 211.96875 67.238281 211.96875 71.589844 209.988281 C 75.941406 208.011719 77.128906 200.890625 75.941406 196.933594 C 74.992188 193.769531 69.480469 196.144531 67.238281 197.726562 L 67.632812 193.375 C 64.863281 194.5625 63.28125 197.726562 62.097656 200.890625 Z M 62.097656 200.890625 " fill-opacity="1" fill-rule="nonzero"/><path fill="#08979d" d="M 68.316406 192.4375 L 67.9375 196.582031 C 69.082031 195.929688 70.554688 195.28125 71.945312 194.96875 C 72.875 194.761719 73.835938 194.691406 74.660156 194.929688 C 75.523438 195.179688 76.210938 195.765625 76.511719 196.765625 C 77.140625 198.867188 77.132812 201.75 76.414062 204.359375 C 75.699219 206.964844 74.238281 209.4375 71.835938 210.53125 C 70.066406 211.335938 68.671875 211.820312 67.5625 212.207031 C 67.289062 212.300781 67.035156 212.390625 66.796875 212.476562 C 65.574219 212.914062 64.792969 213.277344 64.097656 213.96875 L 63.578125 214.488281 L 57.71875 205.46875 L 58.207031 205.144531 C 58.914062 204.671875 60.640625 203.078125 61.539062 200.683594 C 62.140625 199.085938 62.847656 197.453125 63.777344 196.0625 C 64.707031 194.667969 65.875 193.484375 67.398438 192.828125 Z M 64.765625 196.71875 C 63.914062 198 63.242188 199.53125 62.652344 201.097656 C 61.804688 203.355469 60.308594 204.980469 59.335938 205.777344 L 63.800781 212.648438 C 64.554688 212.066406 65.390625 211.71875 66.394531 211.359375 C 66.644531 211.265625 66.910156 211.175781 67.1875 211.078125 C 68.292969 210.691406 69.628906 210.226562 71.34375 209.449219 C 73.289062 208.5625 74.597656 206.488281 75.269531 204.046875 C 75.9375 201.613281 75.929688 198.960938 75.371094 197.105469 C 75.195312 196.523438 74.839844 196.21875 74.332031 196.070312 C 73.785156 195.914062 73.050781 195.941406 72.203125 196.128906 C 70.519531 196.503906 68.652344 197.457031 67.582031 198.210938 L 66.53125 198.953125 L 66.941406 194.429688 C 66.109375 194.988281 65.394531 195.777344 64.765625 196.71875 Z M 64.765625 196.71875 " fill-opacity="1" fill-rule="evenodd"/></svg>