<svg xmlns="http://www.w3.org/2000/svg" xmlns:xlink="http://www.w3.org/1999/xlink" width="30" zoomAndPan="magnify" viewBox="0 0 37.5 37.499999" height="30" preserveAspectRatio="xMidYMid meet" version="1.0"><defs><clipPath id="2fbb1ae564"><path d="M 2 2 L 37.007812 2 L 37.007812 37.007812 L 2 37.007812 Z M 2 2 " clip-rule="nonzero"/></clipPath><clipPath id="d7803ae1f0"><path d="M 0 0 L 37.007812 0 L 37.007812 37.007812 L 0 37.007812 Z M 0 0 " clip-rule="nonzero"/></clipPath><clipPath id="c56c5d9a5a"><path d="M 2.339844 2.339844 L 34.90625 2.339844 L 34.90625 34.90625 L 2.339844 34.90625 Z M 2.339844 2.339844 " clip-rule="nonzero"/></clipPath><clipPath id="2381d1c2fe"><path d="M 2.339844 2.339844 L 34.90625 2.339844 L 34.90625 34.90625 L 2.339844 34.90625 Z M 2.339844 2.339844 " clip-rule="nonzero"/></clipPath></defs><g clip-path="url(#2fbb1ae564)"><path fill="#f2cdfc" d="M 404.21875 203.570312 C 404.21875 314.40625 314.371094 404.253906 203.535156 404.253906 C 92.699219 404.253906 2.847656 314.40625 2.847656 203.570312 C 2.847656 92.734375 92.699219 2.886719 203.535156 2.886719 C 314.371094 2.886719 404.21875 92.734375 404.21875 203.570312 Z M 404.21875 203.570312 " fill-opacity="1" fill-rule="nonzero"/></g><g clip-path="url(#d7803ae1f0)"><path fill="#000000" d="M 192.007812 95.460938 L 192.007812 82.167969 C 192.007812 78.210938 195.230469 74.988281 199.1875 74.988281 C 203.164062 74.988281 206.382812 78.210938 206.382812 82.167969 L 206.382812 95.460938 C 206.382812 99.421875 203.164062 102.640625 199.203125 102.640625 L 199.1875 102.640625 C 195.230469 102.640625 192.007812 99.421875 192.007812 95.460938 Z M 281.472656 130.398438 L 290.875 121 C 292.230469 119.644531 292.976562 117.839844 292.976562 115.921875 C 292.976562 114.003906 292.230469 112.203125 290.863281 110.835938 C 288.0625 108.035156 283.507812 108.035156 280.707031 110.835938 L 271.308594 120.234375 C 268.507812 123.035156 268.507812 127.589844 271.308594 130.390625 L 271.320312 130.398438 C 272.71875 131.800781 274.558594 132.5 276.394531 132.5 C 278.234375 132.5 280.074219 131.800781 281.472656 130.398438 Z M 323.15625 193.824219 L 309.863281 193.824219 C 305.90625 193.824219 302.683594 197.046875 302.683594 201.003906 L 302.683594 201.019531 C 302.683594 204.980469 305.90625 208.199219 309.863281 208.199219 L 323.15625 208.199219 C 327.117188 208.199219 330.335938 204.980469 330.335938 201.003906 C 330.335938 197.046875 327.117188 193.824219 323.15625 193.824219 Z M 285.089844 273.125 C 282.289062 270.324219 277.738281 270.324219 274.9375 273.125 L 274.925781 273.136719 C 272.125 275.933594 272.125 280.492188 274.925781 283.289062 L 284.324219 292.6875 C 285.722656 294.085938 287.558594 294.785156 289.398438 294.785156 C 291.238281 294.785156 293.082031 294.085938 294.488281 292.675781 C 297.289062 289.878906 297.289062 285.324219 294.488281 282.523438 Z M 204.320312 304.5 L 204.304688 304.5 C 200.34375 304.5 197.125 307.722656 197.125 311.679688 L 197.125 324.972656 C 197.125 328.933594 200.34375 332.152344 204.320312 332.152344 C 208.277344 332.152344 211.5 328.933594 211.5 324.972656 L 211.5 311.679688 C 211.5 307.722656 208.277344 304.5 204.320312 304.5 Z M 132.191406 276.742188 C 130.832031 275.386719 129.03125 274.636719 127.113281 274.636719 C 125.195312 274.636719 123.390625 275.386719 122.035156 276.742188 L 112.636719 286.140625 C 109.835938 288.941406 109.835938 293.496094 112.648438 296.304688 C 114.003906 297.664062 115.804688 298.410156 117.722656 298.410156 C 119.640625 298.410156 121.445312 297.664062 122.800781 296.304688 L 132.199219 286.90625 C 133.558594 285.550781 134.304688 283.746094 134.304688 281.828125 C 134.304688 279.910156 133.558594 278.109375 132.199219 276.753906 Z M 93.644531 198.941406 L 80.351562 198.941406 C 76.394531 198.941406 73.171875 202.160156 73.171875 206.136719 C 73.171875 210.09375 76.394531 213.316406 80.351562 213.316406 L 93.644531 213.316406 C 97.605469 213.316406 100.824219 210.09375 100.824219 206.136719 L 100.824219 206.121094 C 100.824219 202.160156 97.605469 198.941406 93.644531 198.941406 Z M 123.496094 136.121094 C 125.414062 136.121094 127.214844 135.375 128.535156 134.050781 L 128.546875 134.039062 C 128.558594 134.027344 128.570312 134.015625 128.582031 134.003906 C 131.382812 131.207031 131.382812 126.652344 128.582031 123.851562 L 119.183594 114.453125 C 117.828125 113.097656 116.023438 112.347656 114.105469 112.347656 C 112.1875 112.347656 110.386719 113.097656 109.019531 114.464844 C 107.664062 115.820312 106.914062 117.621094 106.914062 119.539062 C 106.914062 121.457031 107.664062 123.261719 109.019531 124.617188 L 118.417969 134.015625 C 119.773438 135.375 121.578125 136.121094 123.496094 136.121094 Z M 257.238281 248.375 C 258.40625 249.535156 259.054688 251.089844 259.054688 252.746094 C 259.058594 254.402344 258.414062 255.960938 257.242188 257.136719 C 256.074219 258.316406 254.515625 258.964844 252.855469 258.964844 C 251.203125 258.964844 249.644531 258.316406 248.46875 257.140625 L 209.183594 217.855469 C 206.957031 219.015625 204.433594 219.683594 201.753906 219.683594 C 192.871094 219.683594 185.640625 212.457031 185.640625 203.570312 C 185.640625 196.882812 189.738281 191.136719 195.550781 188.703125 L 195.550781 145.550781 C 195.550781 142.132812 198.332031 139.347656 201.753906 139.347656 C 203.414062 139.347656 204.972656 139.992188 206.144531 141.164062 C 207.3125 142.332031 207.957031 143.890625 207.957031 145.550781 L 207.957031 188.703125 C 213.773438 191.136719 217.867188 196.882812 217.867188 203.570312 C 217.867188 205.210938 217.617188 206.792969 217.160156 208.289062 Z M 212.167969 203.570312 C 212.167969 198.644531 208.722656 194.515625 204.117188 193.441406 C 203.890625 193.386719 203.65625 193.34375 203.421875 193.304688 C 203.261719 193.277344 203.101562 193.25 202.9375 193.230469 C 202.585938 193.191406 202.230469 193.167969 201.875 193.164062 C 201.835938 193.164062 201.796875 193.160156 201.753906 193.160156 C 201.714844 193.160156 201.675781 193.164062 201.636719 193.164062 C 201.28125 193.167969 200.921875 193.191406 200.570312 193.230469 C 200.40625 193.25 200.25 193.277344 200.089844 193.304688 C 199.855469 193.34375 199.621094 193.386719 199.390625 193.441406 C 194.785156 194.515625 191.34375 198.644531 191.34375 203.570312 C 191.34375 209.3125 196.011719 213.984375 201.753906 213.984375 C 204.136719 213.984375 206.328125 213.171875 208.082031 211.820312 C 208.3125 211.644531 208.53125 211.460938 208.742188 211.265625 C 208.839844 211.179688 208.941406 211.09375 209.035156 211 C 209.304688 210.738281 209.558594 210.464844 209.796875 210.175781 C 209.894531 210.058594 209.976562 209.933594 210.070312 209.808594 C 210.214844 209.621094 210.355469 209.425781 210.484375 209.226562 C 210.582031 209.074219 210.679688 208.914062 210.769531 208.753906 C 210.882812 208.5625 210.984375 208.363281 211.085938 208.164062 C 211.769531 206.777344 212.167969 205.21875 212.167969 203.570312 Z M 407.070312 203.570312 C 407.070312 257.9375 385.898438 309.050781 347.457031 347.492188 C 309.011719 385.933594 257.902344 407.105469 203.535156 407.105469 C 149.167969 407.105469 98.054688 385.933594 59.613281 347.492188 C 21.171875 309.050781 0 257.9375 0 203.570312 C 0 149.203125 21.171875 98.09375 59.613281 59.648438 C 98.054688 21.207031 149.167969 0.0351562 203.535156 0.0351562 C 257.902344 0.0351562 309.011719 21.207031 347.457031 59.648438 C 385.898438 98.09375 407.070312 149.203125 407.070312 203.570312 Z M 401.367188 203.570312 C 401.367188 150.726562 380.792969 101.046875 343.425781 63.679688 C 306.058594 26.316406 256.378906 5.734375 203.535156 5.734375 C 150.691406 5.734375 101.011719 26.316406 63.644531 63.679688 C 26.277344 101.046875 5.699219 150.726562 5.699219 203.570312 C 5.699219 256.414062 26.277344 306.09375 63.644531 343.460938 C 101.011719 380.828125 150.691406 401.40625 203.535156 401.40625 C 256.378906 401.40625 306.058594 380.828125 343.425781 343.460938 C 380.792969 306.09375 401.367188 256.414062 401.367188 203.570312 Z M 357.816406 203.570312 C 357.816406 288.640625 288.605469 357.851562 203.535156 357.851562 C 118.464844 357.851562 49.253906 288.640625 49.253906 203.570312 C 49.253906 118.5 118.464844 49.289062 203.535156 49.289062 C 288.605469 49.289062 357.816406 118.5 357.816406 203.570312 Z M 352.113281 203.570312 C 352.113281 121.644531 285.460938 54.992188 203.535156 54.992188 C 121.605469 54.992188 54.953125 121.644531 54.953125 203.570312 C 54.953125 285.496094 121.605469 352.152344 203.535156 352.152344 C 285.460938 352.152344 352.113281 285.496094 352.113281 203.570312 Z M 352.113281 203.570312 " fill-opacity="1" fill-rule="nonzero"/></g><g clip-path="url(#c56c5d9a5a)"><path fill="#000000" d="M 18.621094 2.339844 C 9.644531 2.339844 2.339844 9.644531 2.339844 18.621094 C 2.339844 27.601562 9.644531 34.90625 18.621094 34.90625 C 27.601562 34.90625 34.90625 27.601562 34.90625 18.621094 C 34.90625 9.644531 27.601562 2.339844 18.621094 2.339844 Z M 18.621094 33.761719 C 10.261719 33.761719 3.480469 26.984375 3.480469 18.621094 C 3.480469 10.261719 10.261719 3.480469 18.621094 3.480469 C 26.984375 3.480469 33.761719 10.261719 33.761719 18.621094 C 33.761719 26.984375 26.984375 33.761719 18.621094 33.761719 Z M 18.621094 33.761719 " fill-opacity="1" fill-rule="nonzero"/></g><path fill="#000000" d="M 25.523438 24.496094 C 26.539062 23.28125 25.792969 22.570312 25.121094 22.0625 C 24.449219 21.550781 22.863281 20.898438 22.378906 21.484375 C 21.890625 22.066406 21.113281 22.792969 20.515625 22.636719 C 19.5 22.371094 18.210938 21.003906 17.226562 20.019531 C 16.242188 19.035156 14.875 17.742188 14.609375 16.730469 C 14.449219 16.132812 15.128906 15.398438 15.761719 14.867188 C 16.398438 14.335938 15.730469 12.855469 15.183594 12.125 C 14.636719 11.398438 13.964844 10.707031 12.75 11.722656 C 11.535156 12.734375 10 15.425781 12.832031 19.535156 C 13.554688 20.585938 14.179688 21.195312 15.113281 22.128906 C 16.050781 23.066406 16.660156 23.691406 17.710938 24.414062 C 21.820312 27.246094 24.511719 25.710938 25.523438 24.496094 Z M 25.523438 24.496094 " fill-opacity="1" fill-rule="nonzero"/><path fill="#000000" d="M 22.121094 19.257812 C 21.976562 19.257812 21.847656 19.210938 21.738281 19.109375 C 21.628906 19.011719 21.566406 18.886719 21.554688 18.742188 C 21.523438 18.382812 21.429688 18.042969 21.28125 17.71875 C 21.128906 17.394531 20.925781 17.105469 20.671875 16.851562 C 20.417969 16.601562 20.128906 16.398438 19.804688 16.246094 C 19.480469 16.09375 19.140625 16.003906 18.785156 15.96875 C 18.628906 15.957031 18.5 15.886719 18.398438 15.765625 C 18.296875 15.644531 18.253906 15.507812 18.265625 15.351562 C 18.28125 15.191406 18.347656 15.0625 18.46875 14.960938 C 18.589844 14.863281 18.730469 14.816406 18.886719 14.832031 C 19.375 14.875 19.84375 15.003906 20.289062 15.210938 C 20.734375 15.421875 21.128906 15.699219 21.476562 16.046875 C 21.824219 16.394531 22.101562 16.789062 22.3125 17.234375 C 22.519531 17.679688 22.648438 18.144531 22.695312 18.636719 C 22.707031 18.792969 22.664062 18.933594 22.5625 19.054688 C 22.460938 19.175781 22.332031 19.242188 22.175781 19.257812 Z M 22.121094 19.257812 " fill-opacity="1" fill-rule="nonzero"/><path fill="#000000" d="M 24.78125 19.292969 C 24.625 19.292969 24.496094 19.238281 24.382812 19.132812 C 24.273438 19.027344 24.214844 18.898438 24.207031 18.746094 C 24.191406 18.394531 24.144531 18.046875 24.0625 17.703125 C 23.980469 17.363281 23.871094 17.03125 23.726562 16.707031 C 23.585938 16.386719 23.414062 16.082031 23.214844 15.789062 C 23.015625 15.5 22.792969 15.230469 22.542969 14.980469 C 22.292969 14.734375 22.023438 14.507812 21.734375 14.308594 C 21.445312 14.113281 21.140625 13.941406 20.816406 13.796875 C 20.496094 13.65625 20.164062 13.542969 19.820312 13.464844 C 19.480469 13.382812 19.132812 13.332031 18.78125 13.316406 C 18.625 13.308594 18.492188 13.246094 18.382812 13.132812 C 18.277344 13.015625 18.230469 12.878906 18.234375 12.71875 C 18.242188 12.5625 18.304688 12.429688 18.421875 12.324219 C 18.539062 12.21875 18.675781 12.167969 18.832031 12.175781 C 19.253906 12.195312 19.671875 12.253906 20.082031 12.351562 C 20.492188 12.449219 20.890625 12.582031 21.277344 12.753906 C 21.664062 12.925781 22.03125 13.128906 22.378906 13.367188 C 22.726562 13.609375 23.050781 13.875 23.351562 14.175781 C 23.648438 14.472656 23.917969 14.796875 24.15625 15.144531 C 24.394531 15.492188 24.601562 15.859375 24.769531 16.246094 C 24.941406 16.632812 25.078125 17.03125 25.175781 17.441406 C 25.269531 17.855469 25.332031 18.269531 25.351562 18.691406 C 25.359375 18.847656 25.308594 18.988281 25.199219 19.101562 C 25.09375 19.21875 24.960938 19.28125 24.804688 19.289062 Z M 24.78125 19.292969 " fill-opacity="1" fill-rule="nonzero"/><g clip-path="url(#2381d1c2fe)"><path fill="#000000" d="M 18.621094 2.339844 C 9.644531 2.339844 2.339844 9.644531 2.339844 18.621094 C 2.339844 27.601562 9.644531 34.90625 18.621094 34.90625 C 27.601562 34.90625 34.90625 27.601562 34.90625 18.621094 C 34.90625 9.644531 27.601562 2.339844 18.621094 2.339844 Z M 18.621094 33.761719 C 10.261719 33.761719 3.480469 26.984375 3.480469 18.621094 C 3.480469 10.261719 10.261719 3.480469 18.621094 3.480469 C 26.984375 3.480469 33.761719 10.261719 33.761719 18.621094 C 33.761719 26.984375 26.984375 33.761719 18.621094 33.761719 Z M 18.621094 33.761719 " fill-opacity="1" fill-rule="nonzero"/></g><path fill="#000000" d="M 25.523438 24.496094 C 26.539062 23.28125 25.792969 22.570312 25.121094 22.0625 C 24.449219 21.550781 22.863281 20.898438 22.378906 21.484375 C 21.890625 22.066406 21.113281 22.792969 20.515625 22.636719 C 19.5 22.371094 18.210938 21.003906 17.226562 20.019531 C 16.242188 19.035156 14.875 17.742188 14.609375 16.730469 C 14.449219 16.132812 15.128906 15.398438 15.761719 14.867188 C 16.398438 14.335938 15.730469 12.855469 15.183594 12.125 C 14.636719 11.398438 13.964844 10.707031 12.75 11.722656 C 11.535156 12.734375 10 15.425781 12.832031 19.535156 C 13.554688 20.585938 14.179688 21.195312 15.113281 22.128906 C 16.050781 23.066406 16.660156 23.691406 17.710938 24.414062 C 21.820312 27.246094 24.511719 25.710938 25.523438 24.496094 Z M 25.523438 24.496094 " fill-opacity="1" fill-rule="nonzero"/><path fill="#000000" d="M 22.121094 19.257812 C 21.976562 19.257812 21.847656 19.210938 21.738281 19.109375 C 21.628906 19.011719 21.566406 18.886719 21.554688 18.742188 C 21.523438 18.382812 21.429688 18.042969 21.28125 17.71875 C 21.128906 17.394531 20.925781 17.105469 20.671875 16.851562 C 20.417969 16.601562 20.128906 16.398438 19.804688 16.246094 C 19.480469 16.09375 19.140625 16.003906 18.785156 15.96875 C 18.628906 15.957031 18.5 15.886719 18.398438 15.765625 C 18.296875 15.644531 18.253906 15.507812 18.265625 15.351562 C 18.28125 15.191406 18.347656 15.0625 18.46875 14.960938 C 18.589844 14.863281 18.730469 14.816406 18.886719 14.832031 C 19.375 14.875 19.84375 15.003906 20.289062 15.210938 C 20.734375 15.421875 21.128906 15.699219 21.476562 16.046875 C 21.824219 16.394531 22.101562 16.789062 22.3125 17.234375 C 22.519531 17.679688 22.648438 18.144531 22.695312 18.636719 C 22.707031 18.792969 22.664062 18.933594 22.5625 19.054688 C 22.460938 19.175781 22.332031 19.242188 22.175781 19.257812 Z M 22.121094 19.257812 " fill-opacity="1" fill-rule="nonzero"/><path fill="#000000" d="M 24.78125 19.292969 C 24.625 19.292969 24.496094 19.238281 24.382812 19.132812 C 24.273438 19.027344 24.214844 18.898438 24.207031 18.746094 C 24.191406 18.394531 24.144531 18.046875 24.0625 17.703125 C 23.980469 17.363281 23.871094 17.03125 23.726562 16.707031 C 23.585938 16.386719 23.414062 16.082031 23.214844 15.789062 C 23.015625 15.5 22.792969 15.230469 22.542969 14.980469 C 22.292969 14.734375 22.023438 14.507812 21.734375 14.308594 C 21.445312 14.113281 21.140625 13.941406 20.816406 13.796875 C 20.496094 13.65625 20.164062 13.542969 19.820312 13.464844 C 19.480469 13.382812 19.132812 13.332031 18.78125 13.316406 C 18.625 13.308594 18.492188 13.246094 18.382812 13.132812 C 18.277344 13.015625 18.230469 12.878906 18.234375 12.71875 C 18.242188 12.5625 18.304688 12.429688 18.421875 12.324219 C 18.539062 12.21875 18.675781 12.167969 18.832031 12.175781 C 19.253906 12.195312 19.671875 12.253906 20.082031 12.351562 C 20.492188 12.449219 20.890625 12.582031 21.277344 12.753906 C 21.664062 12.925781 22.03125 13.128906 22.378906 13.367188 C 22.726562 13.609375 23.050781 13.875 23.351562 14.175781 C 23.648438 14.472656 23.917969 14.796875 24.15625 15.144531 C 24.394531 15.492188 24.601562 15.859375 24.769531 16.246094 C 24.941406 16.632812 25.078125 17.03125 25.175781 17.441406 C 25.269531 17.855469 25.332031 18.269531 25.351562 18.691406 C 25.359375 18.847656 25.308594 18.988281 25.199219 19.101562 C 25.09375 19.21875 24.960938 19.28125 24.804688 19.289062 Z M 24.78125 19.292969 " fill-opacity="1" fill-rule="nonzero"/></svg>